G04 #@! TF.GenerationSoftware,KiCad,Pcbnew,7.0.7*
G04 #@! TF.CreationDate,2023-09-07T11:23:27-07:00*
G04 #@! TF.ProjectId,bivariate-bivalve,62697661-7269-4617-9465-2d626976616c,rev?*
G04 #@! TF.SameCoordinates,Original*
G04 #@! TF.FileFunction,Legend,Bot*
G04 #@! TF.FilePolarity,Positive*
%FSLAX46Y46*%
G04 Gerber Fmt 4.6, Leading zero omitted, Abs format (unit mm)*
G04 Created by KiCad (PCBNEW 7.0.7) date 2023-09-07 11:23:27*
%MOMM*%
%LPD*%
G01*
G04 APERTURE LIST*
G04 Aperture macros list*
%AMRoundRect*
0 Rectangle with rounded corners*
0 $1 Rounding radius*
0 $2 $3 $4 $5 $6 $7 $8 $9 X,Y pos of 4 corners*
0 Add a 4 corners polygon primitive as box body*
4,1,4,$2,$3,$4,$5,$6,$7,$8,$9,$2,$3,0*
0 Add four circle primitives for the rounded corners*
1,1,$1+$1,$2,$3*
1,1,$1+$1,$4,$5*
1,1,$1+$1,$6,$7*
1,1,$1+$1,$8,$9*
0 Add four rect primitives between the rounded corners*
20,1,$1+$1,$2,$3,$4,$5,0*
20,1,$1+$1,$4,$5,$6,$7,0*
20,1,$1+$1,$6,$7,$8,$9,0*
20,1,$1+$1,$8,$9,$2,$3,0*%
G04 Aperture macros list end*
%ADD10C,0.150000*%
%ADD11C,0.120000*%
%ADD12C,0.152400*%
%ADD13C,1.000000*%
%ADD14C,1.600000*%
%ADD15O,1.600000X1.600000*%
%ADD16R,1.700000X1.700000*%
%ADD17O,1.700000X1.700000*%
%ADD18C,6.200000*%
%ADD19C,1.295400*%
%ADD20R,1.295400X1.295400*%
%ADD21RoundRect,0.250001X0.799999X0.799999X-0.799999X0.799999X-0.799999X-0.799999X0.799999X-0.799999X0*%
G04 APERTURE END LIST*
D10*
X94039411Y-46569819D02*
X94610839Y-46569819D01*
X94325125Y-46569819D02*
X94325125Y-45569819D01*
X94325125Y-45569819D02*
X94420363Y-45712676D01*
X94420363Y-45712676D02*
X94515601Y-45807914D01*
X94515601Y-45807914D02*
X94610839Y-45855533D01*
X93658458Y-46284104D02*
X93182268Y-46284104D01*
X93753696Y-46569819D02*
X93420363Y-45569819D01*
X93420363Y-45569819D02*
X93087030Y-46569819D01*
X53819411Y-71847438D02*
X53914649Y-71799819D01*
X53914649Y-71799819D02*
X54057506Y-71799819D01*
X54057506Y-71799819D02*
X54200363Y-71847438D01*
X54200363Y-71847438D02*
X54295601Y-71942676D01*
X54295601Y-71942676D02*
X54343220Y-72037914D01*
X54343220Y-72037914D02*
X54390839Y-72228390D01*
X54390839Y-72228390D02*
X54390839Y-72371247D01*
X54390839Y-72371247D02*
X54343220Y-72561723D01*
X54343220Y-72561723D02*
X54295601Y-72656961D01*
X54295601Y-72656961D02*
X54200363Y-72752200D01*
X54200363Y-72752200D02*
X54057506Y-72799819D01*
X54057506Y-72799819D02*
X53962268Y-72799819D01*
X53962268Y-72799819D02*
X53819411Y-72752200D01*
X53819411Y-72752200D02*
X53771792Y-72704580D01*
X53771792Y-72704580D02*
X53771792Y-72371247D01*
X53771792Y-72371247D02*
X53962268Y-72371247D01*
X53343220Y-72799819D02*
X53343220Y-71799819D01*
X53343220Y-71799819D02*
X52771792Y-72799819D01*
X52771792Y-72799819D02*
X52771792Y-71799819D01*
X52295601Y-72799819D02*
X52295601Y-71799819D01*
X52295601Y-71799819D02*
X52057506Y-71799819D01*
X52057506Y-71799819D02*
X51914649Y-71847438D01*
X51914649Y-71847438D02*
X51819411Y-71942676D01*
X51819411Y-71942676D02*
X51771792Y-72037914D01*
X51771792Y-72037914D02*
X51724173Y-72228390D01*
X51724173Y-72228390D02*
X51724173Y-72371247D01*
X51724173Y-72371247D02*
X51771792Y-72561723D01*
X51771792Y-72561723D02*
X51819411Y-72656961D01*
X51819411Y-72656961D02*
X51914649Y-72752200D01*
X51914649Y-72752200D02*
X52057506Y-72799819D01*
X52057506Y-72799819D02*
X52295601Y-72799819D01*
X53543220Y-52208866D02*
X52781316Y-52208866D01*
X53162268Y-52589819D02*
X53162268Y-51827914D01*
X99169411Y-34207438D02*
X99264649Y-34159819D01*
X99264649Y-34159819D02*
X99407506Y-34159819D01*
X99407506Y-34159819D02*
X99550363Y-34207438D01*
X99550363Y-34207438D02*
X99645601Y-34302676D01*
X99645601Y-34302676D02*
X99693220Y-34397914D01*
X99693220Y-34397914D02*
X99740839Y-34588390D01*
X99740839Y-34588390D02*
X99740839Y-34731247D01*
X99740839Y-34731247D02*
X99693220Y-34921723D01*
X99693220Y-34921723D02*
X99645601Y-35016961D01*
X99645601Y-35016961D02*
X99550363Y-35112200D01*
X99550363Y-35112200D02*
X99407506Y-35159819D01*
X99407506Y-35159819D02*
X99312268Y-35159819D01*
X99312268Y-35159819D02*
X99169411Y-35112200D01*
X99169411Y-35112200D02*
X99121792Y-35064580D01*
X99121792Y-35064580D02*
X99121792Y-34731247D01*
X99121792Y-34731247D02*
X99312268Y-34731247D01*
X98693220Y-35159819D02*
X98693220Y-34159819D01*
X98693220Y-34159819D02*
X98121792Y-35159819D01*
X98121792Y-35159819D02*
X98121792Y-34159819D01*
X97645601Y-35159819D02*
X97645601Y-34159819D01*
X97645601Y-34159819D02*
X97407506Y-34159819D01*
X97407506Y-34159819D02*
X97264649Y-34207438D01*
X97264649Y-34207438D02*
X97169411Y-34302676D01*
X97169411Y-34302676D02*
X97121792Y-34397914D01*
X97121792Y-34397914D02*
X97074173Y-34588390D01*
X97074173Y-34588390D02*
X97074173Y-34731247D01*
X97074173Y-34731247D02*
X97121792Y-34921723D01*
X97121792Y-34921723D02*
X97169411Y-35016961D01*
X97169411Y-35016961D02*
X97264649Y-35112200D01*
X97264649Y-35112200D02*
X97407506Y-35159819D01*
X97407506Y-35159819D02*
X97645601Y-35159819D01*
X111587030Y-33899819D02*
X112063220Y-33899819D01*
X112063220Y-33899819D02*
X112110839Y-34376009D01*
X112110839Y-34376009D02*
X112063220Y-34328390D01*
X112063220Y-34328390D02*
X111967982Y-34280771D01*
X111967982Y-34280771D02*
X111729887Y-34280771D01*
X111729887Y-34280771D02*
X111634649Y-34328390D01*
X111634649Y-34328390D02*
X111587030Y-34376009D01*
X111587030Y-34376009D02*
X111539411Y-34471247D01*
X111539411Y-34471247D02*
X111539411Y-34709342D01*
X111539411Y-34709342D02*
X111587030Y-34804580D01*
X111587030Y-34804580D02*
X111634649Y-34852200D01*
X111634649Y-34852200D02*
X111729887Y-34899819D01*
X111729887Y-34899819D02*
X111967982Y-34899819D01*
X111967982Y-34899819D02*
X112063220Y-34852200D01*
X112063220Y-34852200D02*
X112110839Y-34804580D01*
X111253696Y-33899819D02*
X110920363Y-34899819D01*
X110920363Y-34899819D02*
X110587030Y-33899819D01*
X130002142Y-111782700D02*
X131816427Y-112689842D01*
X131816427Y-112689842D02*
X135444999Y-112689842D01*
X135444999Y-112689842D02*
X137259284Y-111782700D01*
X137259284Y-111782700D02*
X138166427Y-110875557D01*
X138166427Y-110875557D02*
X139073570Y-109061271D01*
X139073570Y-109061271D02*
X139073570Y-103618414D01*
X139073570Y-103618414D02*
X138166427Y-101804128D01*
X138166427Y-101804128D02*
X137259284Y-100896985D01*
X137259284Y-100896985D02*
X135444999Y-99989842D01*
X135444999Y-99989842D02*
X131816427Y-99989842D01*
X131816427Y-99989842D02*
X130002142Y-100896985D01*
X119116428Y-112689842D02*
X120930713Y-111782700D01*
X120930713Y-111782700D02*
X121837856Y-109968414D01*
X121837856Y-109968414D02*
X121837856Y-93639842D01*
X103695000Y-112689842D02*
X103695000Y-102711271D01*
X103695000Y-102711271D02*
X104602142Y-100896985D01*
X104602142Y-100896985D02*
X106416428Y-99989842D01*
X106416428Y-99989842D02*
X110045000Y-99989842D01*
X110045000Y-99989842D02*
X111859285Y-100896985D01*
X103695000Y-111782700D02*
X105509285Y-112689842D01*
X105509285Y-112689842D02*
X110045000Y-112689842D01*
X110045000Y-112689842D02*
X111859285Y-111782700D01*
X111859285Y-111782700D02*
X112766428Y-109968414D01*
X112766428Y-109968414D02*
X112766428Y-108154128D01*
X112766428Y-108154128D02*
X111859285Y-106339842D01*
X111859285Y-106339842D02*
X110045000Y-105432700D01*
X110045000Y-105432700D02*
X105509285Y-105432700D01*
X105509285Y-105432700D02*
X103695000Y-104525557D01*
X94623571Y-112689842D02*
X94623571Y-99989842D01*
X94623571Y-101804128D02*
X93716428Y-100896985D01*
X93716428Y-100896985D02*
X91902143Y-99989842D01*
X91902143Y-99989842D02*
X89180714Y-99989842D01*
X89180714Y-99989842D02*
X87366428Y-100896985D01*
X87366428Y-100896985D02*
X86459286Y-102711271D01*
X86459286Y-102711271D02*
X86459286Y-112689842D01*
X86459286Y-102711271D02*
X85552143Y-100896985D01*
X85552143Y-100896985D02*
X83737857Y-99989842D01*
X83737857Y-99989842D02*
X81016428Y-99989842D01*
X81016428Y-99989842D02*
X79202143Y-100896985D01*
X79202143Y-100896985D02*
X78295000Y-102711271D01*
X78295000Y-102711271D02*
X78295000Y-112689842D01*
X70130714Y-111782700D02*
X68316428Y-112689842D01*
X68316428Y-112689842D02*
X64687857Y-112689842D01*
X64687857Y-112689842D02*
X62873571Y-111782700D01*
X62873571Y-111782700D02*
X61966428Y-109968414D01*
X61966428Y-109968414D02*
X61966428Y-109061271D01*
X61966428Y-109061271D02*
X62873571Y-107246985D01*
X62873571Y-107246985D02*
X64687857Y-106339842D01*
X64687857Y-106339842D02*
X67409286Y-106339842D01*
X67409286Y-106339842D02*
X69223571Y-105432700D01*
X69223571Y-105432700D02*
X70130714Y-103618414D01*
X70130714Y-103618414D02*
X70130714Y-102711271D01*
X70130714Y-102711271D02*
X69223571Y-100896985D01*
X69223571Y-100896985D02*
X67409286Y-99989842D01*
X67409286Y-99989842D02*
X64687857Y-99989842D01*
X64687857Y-99989842D02*
X62873571Y-100896985D01*
X110498571Y-143360342D02*
X110498571Y-133381771D01*
X110498571Y-133381771D02*
X111405713Y-131567485D01*
X111405713Y-131567485D02*
X113219999Y-130660342D01*
X113219999Y-130660342D02*
X116848571Y-130660342D01*
X116848571Y-130660342D02*
X118662856Y-131567485D01*
X110498571Y-142453200D02*
X112312856Y-143360342D01*
X112312856Y-143360342D02*
X116848571Y-143360342D01*
X116848571Y-143360342D02*
X118662856Y-142453200D01*
X118662856Y-142453200D02*
X119569999Y-140638914D01*
X119569999Y-140638914D02*
X119569999Y-138824628D01*
X119569999Y-138824628D02*
X118662856Y-137010342D01*
X118662856Y-137010342D02*
X116848571Y-136103200D01*
X116848571Y-136103200D02*
X112312856Y-136103200D01*
X112312856Y-136103200D02*
X110498571Y-135196057D01*
X101427142Y-143360342D02*
X101427142Y-130660342D01*
X101427142Y-134288914D02*
X100519999Y-132474628D01*
X100519999Y-132474628D02*
X99612857Y-131567485D01*
X99612857Y-131567485D02*
X97798571Y-130660342D01*
X97798571Y-130660342D02*
X95984285Y-130660342D01*
X82377142Y-142453200D02*
X84191428Y-143360342D01*
X84191428Y-143360342D02*
X87820000Y-143360342D01*
X87820000Y-143360342D02*
X89634285Y-142453200D01*
X89634285Y-142453200D02*
X90541428Y-140638914D01*
X90541428Y-140638914D02*
X90541428Y-133381771D01*
X90541428Y-133381771D02*
X89634285Y-131567485D01*
X89634285Y-131567485D02*
X87820000Y-130660342D01*
X87820000Y-130660342D02*
X84191428Y-130660342D01*
X84191428Y-130660342D02*
X82377142Y-131567485D01*
X82377142Y-131567485D02*
X81470000Y-133381771D01*
X81470000Y-133381771D02*
X81470000Y-135196057D01*
X81470000Y-135196057D02*
X90541428Y-137010342D01*
X125466427Y-161330842D02*
X125466427Y-174030842D01*
X125466427Y-163145128D02*
X124559284Y-162237985D01*
X124559284Y-162237985D02*
X122744999Y-161330842D01*
X122744999Y-161330842D02*
X120023570Y-161330842D01*
X120023570Y-161330842D02*
X118209284Y-162237985D01*
X118209284Y-162237985D02*
X117302142Y-164052271D01*
X117302142Y-164052271D02*
X117302142Y-174030842D01*
X108230713Y-174030842D02*
X108230713Y-161330842D01*
X108230713Y-154980842D02*
X109137856Y-155887985D01*
X109137856Y-155887985D02*
X108230713Y-156795128D01*
X108230713Y-156795128D02*
X107323570Y-155887985D01*
X107323570Y-155887985D02*
X108230713Y-154980842D01*
X108230713Y-154980842D02*
X108230713Y-156795128D01*
X90994999Y-173123700D02*
X92809284Y-174030842D01*
X92809284Y-174030842D02*
X96437856Y-174030842D01*
X96437856Y-174030842D02*
X98252141Y-173123700D01*
X98252141Y-173123700D02*
X99159284Y-172216557D01*
X99159284Y-172216557D02*
X100066427Y-170402271D01*
X100066427Y-170402271D02*
X100066427Y-164959414D01*
X100066427Y-164959414D02*
X99159284Y-163145128D01*
X99159284Y-163145128D02*
X98252141Y-162237985D01*
X98252141Y-162237985D02*
X96437856Y-161330842D01*
X96437856Y-161330842D02*
X92809284Y-161330842D01*
X92809284Y-161330842D02*
X90994999Y-162237985D01*
X75573570Y-173123700D02*
X77387856Y-174030842D01*
X77387856Y-174030842D02*
X81016428Y-174030842D01*
X81016428Y-174030842D02*
X82830713Y-173123700D01*
X82830713Y-173123700D02*
X83737856Y-171309414D01*
X83737856Y-171309414D02*
X83737856Y-164052271D01*
X83737856Y-164052271D02*
X82830713Y-162237985D01*
X82830713Y-162237985D02*
X81016428Y-161330842D01*
X81016428Y-161330842D02*
X77387856Y-161330842D01*
X77387856Y-161330842D02*
X75573570Y-162237985D01*
X75573570Y-162237985D02*
X74666428Y-164052271D01*
X74666428Y-164052271D02*
X74666428Y-165866557D01*
X74666428Y-165866557D02*
X83737856Y-167680842D01*
X63406666Y-54834819D02*
X63739999Y-54358628D01*
X63978094Y-54834819D02*
X63978094Y-53834819D01*
X63978094Y-53834819D02*
X63597142Y-53834819D01*
X63597142Y-53834819D02*
X63501904Y-53882438D01*
X63501904Y-53882438D02*
X63454285Y-53930057D01*
X63454285Y-53930057D02*
X63406666Y-54025295D01*
X63406666Y-54025295D02*
X63406666Y-54168152D01*
X63406666Y-54168152D02*
X63454285Y-54263390D01*
X63454285Y-54263390D02*
X63501904Y-54311009D01*
X63501904Y-54311009D02*
X63597142Y-54358628D01*
X63597142Y-54358628D02*
X63978094Y-54358628D01*
X62454285Y-54834819D02*
X63025713Y-54834819D01*
X62739999Y-54834819D02*
X62739999Y-53834819D01*
X62739999Y-53834819D02*
X62835237Y-53977676D01*
X62835237Y-53977676D02*
X62930475Y-54072914D01*
X62930475Y-54072914D02*
X63025713Y-54120533D01*
X77273333Y-37729819D02*
X77273333Y-38444104D01*
X77273333Y-38444104D02*
X77320952Y-38586961D01*
X77320952Y-38586961D02*
X77416190Y-38682200D01*
X77416190Y-38682200D02*
X77559047Y-38729819D01*
X77559047Y-38729819D02*
X77654285Y-38729819D01*
X76273333Y-38729819D02*
X76844761Y-38729819D01*
X76559047Y-38729819D02*
X76559047Y-37729819D01*
X76559047Y-37729819D02*
X76654285Y-37872676D01*
X76654285Y-37872676D02*
X76749523Y-37967914D01*
X76749523Y-37967914D02*
X76844761Y-38015533D01*
X88876904Y-50969819D02*
X88876904Y-51779342D01*
X88876904Y-51779342D02*
X88829285Y-51874580D01*
X88829285Y-51874580D02*
X88781666Y-51922200D01*
X88781666Y-51922200D02*
X88686428Y-51969819D01*
X88686428Y-51969819D02*
X88495952Y-51969819D01*
X88495952Y-51969819D02*
X88400714Y-51922200D01*
X88400714Y-51922200D02*
X88353095Y-51874580D01*
X88353095Y-51874580D02*
X88305476Y-51779342D01*
X88305476Y-51779342D02*
X88305476Y-50969819D01*
X87305476Y-51969819D02*
X87876904Y-51969819D01*
X87591190Y-51969819D02*
X87591190Y-50969819D01*
X87591190Y-50969819D02*
X87686428Y-51112676D01*
X87686428Y-51112676D02*
X87781666Y-51207914D01*
X87781666Y-51207914D02*
X87876904Y-51255533D01*
X91924999Y-41940119D02*
X91924999Y-42178214D01*
X92163094Y-42082976D02*
X91924999Y-42178214D01*
X91924999Y-42178214D02*
X91686904Y-42082976D01*
X92067856Y-42368690D02*
X91924999Y-42178214D01*
X91924999Y-42178214D02*
X91782142Y-42368690D01*
X91924999Y-41940119D02*
X91924999Y-42178214D01*
X92163094Y-42082976D02*
X91924999Y-42178214D01*
X91924999Y-42178214D02*
X91686904Y-42082976D01*
X92067856Y-42368690D02*
X91924999Y-42178214D01*
X91924999Y-42178214D02*
X91782142Y-42368690D01*
X101783333Y-34114819D02*
X101783333Y-34829104D01*
X101783333Y-34829104D02*
X101830952Y-34971961D01*
X101830952Y-34971961D02*
X101926190Y-35067200D01*
X101926190Y-35067200D02*
X102069047Y-35114819D01*
X102069047Y-35114819D02*
X102164285Y-35114819D01*
X100830952Y-34114819D02*
X101307142Y-34114819D01*
X101307142Y-34114819D02*
X101354761Y-34591009D01*
X101354761Y-34591009D02*
X101307142Y-34543390D01*
X101307142Y-34543390D02*
X101211904Y-34495771D01*
X101211904Y-34495771D02*
X100973809Y-34495771D01*
X100973809Y-34495771D02*
X100878571Y-34543390D01*
X100878571Y-34543390D02*
X100830952Y-34591009D01*
X100830952Y-34591009D02*
X100783333Y-34686247D01*
X100783333Y-34686247D02*
X100783333Y-34924342D01*
X100783333Y-34924342D02*
X100830952Y-35019580D01*
X100830952Y-35019580D02*
X100878571Y-35067200D01*
X100878571Y-35067200D02*
X100973809Y-35114819D01*
X100973809Y-35114819D02*
X101211904Y-35114819D01*
X101211904Y-35114819D02*
X101307142Y-35067200D01*
X101307142Y-35067200D02*
X101354761Y-35019580D01*
X108768333Y-34114819D02*
X108768333Y-34829104D01*
X108768333Y-34829104D02*
X108815952Y-34971961D01*
X108815952Y-34971961D02*
X108911190Y-35067200D01*
X108911190Y-35067200D02*
X109054047Y-35114819D01*
X109054047Y-35114819D02*
X109149285Y-35114819D01*
X107863571Y-34448152D02*
X107863571Y-35114819D01*
X108101666Y-34067200D02*
X108339761Y-34781485D01*
X108339761Y-34781485D02*
X107720714Y-34781485D01*
X53483333Y-66694819D02*
X53483333Y-67409104D01*
X53483333Y-67409104D02*
X53530952Y-67551961D01*
X53530952Y-67551961D02*
X53626190Y-67647200D01*
X53626190Y-67647200D02*
X53769047Y-67694819D01*
X53769047Y-67694819D02*
X53864285Y-67694819D01*
X53102380Y-66694819D02*
X52483333Y-66694819D01*
X52483333Y-66694819D02*
X52816666Y-67075771D01*
X52816666Y-67075771D02*
X52673809Y-67075771D01*
X52673809Y-67075771D02*
X52578571Y-67123390D01*
X52578571Y-67123390D02*
X52530952Y-67171009D01*
X52530952Y-67171009D02*
X52483333Y-67266247D01*
X52483333Y-67266247D02*
X52483333Y-67504342D01*
X52483333Y-67504342D02*
X52530952Y-67599580D01*
X52530952Y-67599580D02*
X52578571Y-67647200D01*
X52578571Y-67647200D02*
X52673809Y-67694819D01*
X52673809Y-67694819D02*
X52959523Y-67694819D01*
X52959523Y-67694819D02*
X53054761Y-67647200D01*
X53054761Y-67647200D02*
X53102380Y-67599580D01*
X53483333Y-53994819D02*
X53483333Y-54709104D01*
X53483333Y-54709104D02*
X53530952Y-54851961D01*
X53530952Y-54851961D02*
X53626190Y-54947200D01*
X53626190Y-54947200D02*
X53769047Y-54994819D01*
X53769047Y-54994819D02*
X53864285Y-54994819D01*
X53054761Y-54090057D02*
X53007142Y-54042438D01*
X53007142Y-54042438D02*
X52911904Y-53994819D01*
X52911904Y-53994819D02*
X52673809Y-53994819D01*
X52673809Y-53994819D02*
X52578571Y-54042438D01*
X52578571Y-54042438D02*
X52530952Y-54090057D01*
X52530952Y-54090057D02*
X52483333Y-54185295D01*
X52483333Y-54185295D02*
X52483333Y-54280533D01*
X52483333Y-54280533D02*
X52530952Y-54423390D01*
X52530952Y-54423390D02*
X53102380Y-54994819D01*
X53102380Y-54994819D02*
X52483333Y-54994819D01*
X105307857Y-39909580D02*
X105355476Y-39957200D01*
X105355476Y-39957200D02*
X105498333Y-40004819D01*
X105498333Y-40004819D02*
X105593571Y-40004819D01*
X105593571Y-40004819D02*
X105736428Y-39957200D01*
X105736428Y-39957200D02*
X105831666Y-39861961D01*
X105831666Y-39861961D02*
X105879285Y-39766723D01*
X105879285Y-39766723D02*
X105926904Y-39576247D01*
X105926904Y-39576247D02*
X105926904Y-39433390D01*
X105926904Y-39433390D02*
X105879285Y-39242914D01*
X105879285Y-39242914D02*
X105831666Y-39147676D01*
X105831666Y-39147676D02*
X105736428Y-39052438D01*
X105736428Y-39052438D02*
X105593571Y-39004819D01*
X105593571Y-39004819D02*
X105498333Y-39004819D01*
X105498333Y-39004819D02*
X105355476Y-39052438D01*
X105355476Y-39052438D02*
X105307857Y-39100057D01*
X104355476Y-40004819D02*
X104926904Y-40004819D01*
X104641190Y-40004819D02*
X104641190Y-39004819D01*
X104641190Y-39004819D02*
X104736428Y-39147676D01*
X104736428Y-39147676D02*
X104831666Y-39242914D01*
X104831666Y-39242914D02*
X104926904Y-39290533D01*
X103879285Y-40004819D02*
X103688809Y-40004819D01*
X103688809Y-40004819D02*
X103593571Y-39957200D01*
X103593571Y-39957200D02*
X103545952Y-39909580D01*
X103545952Y-39909580D02*
X103450714Y-39766723D01*
X103450714Y-39766723D02*
X103403095Y-39576247D01*
X103403095Y-39576247D02*
X103403095Y-39195295D01*
X103403095Y-39195295D02*
X103450714Y-39100057D01*
X103450714Y-39100057D02*
X103498333Y-39052438D01*
X103498333Y-39052438D02*
X103593571Y-39004819D01*
X103593571Y-39004819D02*
X103784047Y-39004819D01*
X103784047Y-39004819D02*
X103879285Y-39052438D01*
X103879285Y-39052438D02*
X103926904Y-39100057D01*
X103926904Y-39100057D02*
X103974523Y-39195295D01*
X103974523Y-39195295D02*
X103974523Y-39433390D01*
X103974523Y-39433390D02*
X103926904Y-39528628D01*
X103926904Y-39528628D02*
X103879285Y-39576247D01*
X103879285Y-39576247D02*
X103784047Y-39623866D01*
X103784047Y-39623866D02*
X103593571Y-39623866D01*
X103593571Y-39623866D02*
X103498333Y-39576247D01*
X103498333Y-39576247D02*
X103450714Y-39528628D01*
X103450714Y-39528628D02*
X103403095Y-39433390D01*
D11*
G04 #@! TO.C,R1*
X59970000Y-58120000D02*
X59970000Y-57790000D01*
X66510000Y-55380000D02*
X59970000Y-55380000D01*
X66510000Y-58120000D02*
X59970000Y-58120000D01*
X66510000Y-57790000D02*
X66510000Y-58120000D01*
X66510000Y-55710000D02*
X66510000Y-55380000D01*
X59970000Y-55380000D02*
X59970000Y-55710000D01*
G04 #@! TO.C,J1*
X79180000Y-39475000D02*
X79180000Y-90395000D01*
X73980000Y-42075000D02*
X73980000Y-90395000D01*
X79180000Y-39475000D02*
X76580000Y-39475000D01*
X79180000Y-90395000D02*
X73980000Y-90395000D01*
X76580000Y-39475000D02*
X76580000Y-42075000D01*
X76580000Y-42075000D02*
X73980000Y-42075000D01*
X75310000Y-39475000D02*
X73980000Y-39475000D01*
X73980000Y-39475000D02*
X73980000Y-40805000D01*
D12*
G04 #@! TO.C,U1*
X84813000Y-43056431D02*
X84813000Y-41672500D01*
X84813000Y-45596431D02*
X84813000Y-44733569D01*
X84813000Y-48136431D02*
X84813000Y-47273569D01*
X84813000Y-50676431D02*
X84813000Y-49813569D01*
X84813000Y-53216431D02*
X84813000Y-52353569D01*
X84813000Y-55756431D02*
X84813000Y-54893569D01*
X84813000Y-58296431D02*
X84813000Y-57433569D01*
X91417000Y-59973569D02*
X91417000Y-61357500D01*
X91417000Y-57433569D02*
X91417000Y-58296431D01*
X91417000Y-54893569D02*
X91417000Y-55756431D01*
X91417000Y-52353569D02*
X91417000Y-53216431D01*
X91417000Y-49813569D02*
X91417000Y-50676431D01*
X91417000Y-47273569D02*
X91417000Y-48136431D01*
X91417000Y-44875440D02*
X91417000Y-45596431D01*
X87810200Y-41672500D02*
G75*
G03*
X88419800Y-41672500I304800J0D01*
G01*
X91417000Y-41672500D02*
X91417000Y-42914560D01*
X84813000Y-41672500D02*
X91417000Y-41672500D01*
X84813000Y-61357500D02*
X84813000Y-59973569D01*
X91417000Y-61357500D02*
X84813000Y-61357500D01*
D11*
G04 #@! TO.C,C19*
X109785000Y-45800000D02*
G75*
G03*
X109785000Y-45800000I-5120000J0D01*
G01*
G04 #@! TD*
%LPC*%
D13*
G04 #@! TO.C,REF\u002A\u002A*
X54290000Y-140470000D03*
G04 #@! TD*
G04 #@! TO.C,REF\u002A\u002A*
X99820000Y-179770000D03*
G04 #@! TD*
G04 #@! TO.C,REF\u002A\u002A*
X147460000Y-36340000D03*
G04 #@! TD*
D14*
G04 #@! TO.C,R1*
X67050000Y-56750000D03*
D15*
X59430000Y-56750000D03*
G04 #@! TD*
D16*
G04 #@! TO.C,J1*
X75310000Y-40805000D03*
D17*
X77850000Y-40805000D03*
X75310000Y-43345000D03*
X77850000Y-43345000D03*
X75310000Y-45885000D03*
X77850000Y-45885000D03*
X75310000Y-48425000D03*
X77850000Y-48425000D03*
X75310000Y-50965000D03*
X77850000Y-50965000D03*
X75310000Y-53505000D03*
X77850000Y-53505000D03*
X75310000Y-56045000D03*
X77850000Y-56045000D03*
X75310000Y-58585000D03*
X77850000Y-58585000D03*
X75310000Y-61125000D03*
X77850000Y-61125000D03*
X75310000Y-63665000D03*
X77850000Y-63665000D03*
X75310000Y-66205000D03*
X77850000Y-66205000D03*
X75310000Y-68745000D03*
X77850000Y-68745000D03*
X75310000Y-71285000D03*
X77850000Y-71285000D03*
X75310000Y-73825000D03*
X77850000Y-73825000D03*
X75310000Y-76365000D03*
X77850000Y-76365000D03*
X75310000Y-78905000D03*
X77850000Y-78905000D03*
X75310000Y-81445000D03*
X77850000Y-81445000D03*
X75310000Y-83985000D03*
X77850000Y-83985000D03*
X75310000Y-86525000D03*
X77850000Y-86525000D03*
X75310000Y-89065000D03*
X77850000Y-89065000D03*
G04 #@! TD*
D18*
G04 #@! TO.C,*
X76570000Y-35945000D03*
G04 #@! TD*
G04 #@! TO.C,*
X53570000Y-93945000D03*
G04 #@! TD*
G04 #@! TO.C,*
X76570000Y-93945000D03*
G04 #@! TD*
G04 #@! TO.C,*
X53570000Y-35945000D03*
G04 #@! TD*
D19*
G04 #@! TO.C,U1*
X84305000Y-43895000D03*
X84305000Y-46435000D03*
X84305000Y-48975000D03*
X84305000Y-51515000D03*
X84305000Y-54055000D03*
X84305000Y-56595000D03*
X84305000Y-59135000D03*
X91925000Y-59135000D03*
X91925000Y-56595000D03*
X91925000Y-54055000D03*
X91925000Y-51515000D03*
X91925000Y-48975000D03*
X91925000Y-46435000D03*
D20*
X91925000Y-43895000D03*
G04 #@! TD*
D21*
G04 #@! TO.C,J5*
X101450000Y-36910000D03*
G04 #@! TD*
G04 #@! TO.C,J4*
X108435000Y-36910000D03*
G04 #@! TD*
G04 #@! TO.C,J3*
X53150000Y-69490000D03*
G04 #@! TD*
G04 #@! TO.C,J2*
X53150000Y-56790000D03*
G04 #@! TD*
D14*
G04 #@! TO.C,C19*
X107165000Y-45800000D03*
X102165000Y-45800000D03*
G04 #@! TD*
%LPD*%
M02*
