M48
; DRILL file {KiCad 7.0.7} date 2023 September 07, Thursday 11:23:36
; FORMAT={-:-/ absolute / metric / decimal}
; #@! TF.CreationDate,2023-09-07T11:23:36-07:00
; #@! TF.GenerationSoftware,Kicad,Pcbnew,7.0.7
; #@! TF.FileFunction,Plated,1,2,PTH
FMAT,2
METRIC
; #@! TA.AperFunction,Plated,PTH,ComponentDrill
T1C0.787
; #@! TA.AperFunction,Plated,PTH,ComponentDrill
T2C0.800
; #@! TA.AperFunction,Plated,PTH,ComponentDrill
T3C1.000
; #@! TA.AperFunction,Plated,PTH,ComponentDrill
T4C1.100
%
G90
G05
T1
X84.305Y-43.895
X84.305Y-46.435
X84.305Y-48.975
X84.305Y-51.515
X84.305Y-54.055
X84.305Y-56.595
X84.305Y-59.135
X91.925Y-43.895
X91.925Y-46.435
X91.925Y-48.975
X91.925Y-51.515
X91.925Y-54.055
X91.925Y-56.595
X91.925Y-59.135
T2
X59.43Y-56.75
X67.05Y-56.75
X102.165Y-45.8
X107.165Y-45.8
T3
X75.31Y-40.805
X75.31Y-43.345
X75.31Y-45.885
X75.31Y-48.425
X75.31Y-50.965
X75.31Y-53.505
X75.31Y-56.045
X75.31Y-58.585
X75.31Y-61.125
X75.31Y-63.665
X75.31Y-66.205
X75.31Y-68.745
X75.31Y-71.285
X75.31Y-73.825
X75.31Y-76.365
X75.31Y-78.905
X75.31Y-81.445
X75.31Y-83.985
X75.31Y-86.525
X75.31Y-89.065
X77.85Y-40.805
X77.85Y-43.345
X77.85Y-45.885
X77.85Y-48.425
X77.85Y-50.965
X77.85Y-53.505
X77.85Y-56.045
X77.85Y-58.585
X77.85Y-61.125
X77.85Y-63.665
X77.85Y-66.205
X77.85Y-68.745
X77.85Y-71.285
X77.85Y-73.825
X77.85Y-76.365
X77.85Y-78.905
X77.85Y-81.445
X77.85Y-83.985
X77.85Y-86.525
X77.85Y-89.065
T4
X53.15Y-56.79
X53.15Y-69.49
X101.45Y-36.91
X108.435Y-36.91
T0
M30
