G04 #@! TF.GenerationSoftware,KiCad,Pcbnew,7.0.7*
G04 #@! TF.CreationDate,2023-09-07T11:23:27-07:00*
G04 #@! TF.ProjectId,bivariate-bivalve,62697661-7269-4617-9465-2d626976616c,rev?*
G04 #@! TF.SameCoordinates,Original*
G04 #@! TF.FileFunction,Soldermask,Bot*
G04 #@! TF.FilePolarity,Negative*
%FSLAX46Y46*%
G04 Gerber Fmt 4.6, Leading zero omitted, Abs format (unit mm)*
G04 Created by KiCad (PCBNEW 7.0.7) date 2023-09-07 11:23:27*
%MOMM*%
%LPD*%
G01*
G04 APERTURE LIST*
G04 Aperture macros list*
%AMRoundRect*
0 Rectangle with rounded corners*
0 $1 Rounding radius*
0 $2 $3 $4 $5 $6 $7 $8 $9 X,Y pos of 4 corners*
0 Add a 4 corners polygon primitive as box body*
4,1,4,$2,$3,$4,$5,$6,$7,$8,$9,$2,$3,0*
0 Add four circle primitives for the rounded corners*
1,1,$1+$1,$2,$3*
1,1,$1+$1,$4,$5*
1,1,$1+$1,$6,$7*
1,1,$1+$1,$8,$9*
0 Add four rect primitives between the rounded corners*
20,1,$1+$1,$2,$3,$4,$5,0*
20,1,$1+$1,$4,$5,$6,$7,0*
20,1,$1+$1,$6,$7,$8,$9,0*
20,1,$1+$1,$8,$9,$2,$3,0*%
G04 Aperture macros list end*
%ADD10C,1.000000*%
%ADD11C,1.600000*%
%ADD12O,1.600000X1.600000*%
%ADD13R,1.700000X1.700000*%
%ADD14O,1.700000X1.700000*%
%ADD15C,6.200000*%
%ADD16C,1.295400*%
%ADD17R,1.295400X1.295400*%
%ADD18RoundRect,0.250001X0.799999X0.799999X-0.799999X0.799999X-0.799999X-0.799999X0.799999X-0.799999X0*%
G04 APERTURE END LIST*
D10*
G04 #@! TO.C,REF\u002A\u002A*
X54290000Y-140470000D03*
G04 #@! TD*
G04 #@! TO.C,REF\u002A\u002A*
X99820000Y-179770000D03*
G04 #@! TD*
G04 #@! TO.C,REF\u002A\u002A*
X147460000Y-36340000D03*
G04 #@! TD*
D11*
G04 #@! TO.C,R1*
X67050000Y-56750000D03*
D12*
X59430000Y-56750000D03*
G04 #@! TD*
D13*
G04 #@! TO.C,J1*
X75310000Y-40805000D03*
D14*
X77850000Y-40805000D03*
X75310000Y-43345000D03*
X77850000Y-43345000D03*
X75310000Y-45885000D03*
X77850000Y-45885000D03*
X75310000Y-48425000D03*
X77850000Y-48425000D03*
X75310000Y-50965000D03*
X77850000Y-50965000D03*
X75310000Y-53505000D03*
X77850000Y-53505000D03*
X75310000Y-56045000D03*
X77850000Y-56045000D03*
X75310000Y-58585000D03*
X77850000Y-58585000D03*
X75310000Y-61125000D03*
X77850000Y-61125000D03*
X75310000Y-63665000D03*
X77850000Y-63665000D03*
X75310000Y-66205000D03*
X77850000Y-66205000D03*
X75310000Y-68745000D03*
X77850000Y-68745000D03*
X75310000Y-71285000D03*
X77850000Y-71285000D03*
X75310000Y-73825000D03*
X77850000Y-73825000D03*
X75310000Y-76365000D03*
X77850000Y-76365000D03*
X75310000Y-78905000D03*
X77850000Y-78905000D03*
X75310000Y-81445000D03*
X77850000Y-81445000D03*
X75310000Y-83985000D03*
X77850000Y-83985000D03*
X75310000Y-86525000D03*
X77850000Y-86525000D03*
X75310000Y-89065000D03*
X77850000Y-89065000D03*
G04 #@! TD*
D15*
G04 #@! TO.C,*
X76570000Y-35945000D03*
G04 #@! TD*
G04 #@! TO.C,*
X53570000Y-93945000D03*
G04 #@! TD*
G04 #@! TO.C,*
X76570000Y-93945000D03*
G04 #@! TD*
G04 #@! TO.C,*
X53570000Y-35945000D03*
G04 #@! TD*
D16*
G04 #@! TO.C,U1*
X84305000Y-43895000D03*
X84305000Y-46435000D03*
X84305000Y-48975000D03*
X84305000Y-51515000D03*
X84305000Y-54055000D03*
X84305000Y-56595000D03*
X84305000Y-59135000D03*
X91925000Y-59135000D03*
X91925000Y-56595000D03*
X91925000Y-54055000D03*
X91925000Y-51515000D03*
X91925000Y-48975000D03*
X91925000Y-46435000D03*
D17*
X91925000Y-43895000D03*
G04 #@! TD*
D18*
G04 #@! TO.C,J5*
X101450000Y-36910000D03*
G04 #@! TD*
G04 #@! TO.C,J4*
X108435000Y-36910000D03*
G04 #@! TD*
G04 #@! TO.C,J3*
X53150000Y-69490000D03*
G04 #@! TD*
G04 #@! TO.C,J2*
X53150000Y-56790000D03*
G04 #@! TD*
D11*
G04 #@! TO.C,C19*
X107165000Y-45800000D03*
X102165000Y-45800000D03*
G04 #@! TD*
M02*
