G04 #@! TF.GenerationSoftware,KiCad,Pcbnew,7.0.7*
G04 #@! TF.CreationDate,2023-09-07T11:23:27-07:00*
G04 #@! TF.ProjectId,bivariate-bivalve,62697661-7269-4617-9465-2d626976616c,rev?*
G04 #@! TF.SameCoordinates,Original*
G04 #@! TF.FileFunction,Paste,Top*
G04 #@! TF.FilePolarity,Positive*
%FSLAX46Y46*%
G04 Gerber Fmt 4.6, Leading zero omitted, Abs format (unit mm)*
G04 Created by KiCad (PCBNEW 7.0.7) date 2023-09-07 11:23:27*
%MOMM*%
%LPD*%
G01*
G04 APERTURE LIST*
%ADD10R,1.600000X0.850000*%
%ADD11R,0.940000X1.020000*%
%ADD12R,1.020000X0.940000*%
%ADD13R,1.117600X1.600200*%
G04 APERTURE END LIST*
D10*
G04 #@! TO.C,D17*
X124553900Y-166210000D03*
X124553900Y-167960000D03*
X128053900Y-167960000D03*
X128053900Y-166210000D03*
G04 #@! TD*
G04 #@! TO.C,D4*
X112857200Y-78661280D03*
X112857200Y-80411280D03*
X116357200Y-80411280D03*
X116357200Y-78661280D03*
G04 #@! TD*
G04 #@! TO.C,D3*
X106276060Y-65300880D03*
X106276060Y-67050880D03*
X109776060Y-67050880D03*
X109776060Y-65300880D03*
G04 #@! TD*
G04 #@! TO.C,D8*
X90335020Y-105145860D03*
X90335020Y-106895860D03*
X93835020Y-106895860D03*
X93835020Y-105145860D03*
G04 #@! TD*
G04 #@! TO.C,D2*
X102377160Y-60081180D03*
X102377160Y-61831180D03*
X105877160Y-61831180D03*
X105877160Y-60081180D03*
G04 #@! TD*
G04 #@! TO.C,D18*
X128053900Y-170929320D03*
X128053900Y-172679320D03*
X124553900Y-172679320D03*
X124553900Y-170929320D03*
G04 #@! TD*
G04 #@! TO.C,D16*
X128053900Y-161493220D03*
X128053900Y-163243220D03*
X124553900Y-163243220D03*
X124553900Y-161493220D03*
G04 #@! TD*
D11*
G04 #@! TO.C,C18*
X133355000Y-172165000D03*
X131775000Y-172165000D03*
G04 #@! TD*
D12*
G04 #@! TO.C,C17*
X130925000Y-167875000D03*
X130925000Y-166295000D03*
G04 #@! TD*
G04 #@! TO.C,C16*
X130925000Y-162950000D03*
X130925000Y-161370000D03*
G04 #@! TD*
D13*
G04 #@! TO.C,R3*
X110213000Y-50880000D03*
X113007000Y-50880000D03*
G04 #@! TD*
D10*
G04 #@! TO.C,D15*
X81495820Y-151020800D03*
X81495820Y-152770800D03*
X84995820Y-152770800D03*
X84995820Y-151020800D03*
G04 #@! TD*
G04 #@! TO.C,D14*
X98236840Y-149745720D03*
X98236840Y-151495720D03*
X94736840Y-151495720D03*
X94736840Y-149745720D03*
G04 #@! TD*
G04 #@! TO.C,D13*
X107751680Y-149646660D03*
X107751680Y-151396660D03*
X104251680Y-151396660D03*
X104251680Y-149646660D03*
G04 #@! TD*
G04 #@! TO.C,D12*
X99006580Y-134259340D03*
X99006580Y-136009340D03*
X102506580Y-136009340D03*
X102506580Y-134259340D03*
G04 #@! TD*
G04 #@! TO.C,D11*
X86842520Y-136009400D03*
X86842520Y-137759400D03*
X90342520Y-137759400D03*
X90342520Y-136009400D03*
G04 #@! TD*
G04 #@! TO.C,D10*
X76057560Y-139062480D03*
X76057560Y-140812480D03*
X72557560Y-140812480D03*
X72557560Y-139062480D03*
G04 #@! TD*
G04 #@! TO.C,D9*
X78572280Y-124106960D03*
X78572280Y-125856960D03*
X82072280Y-125856960D03*
X82072280Y-124106960D03*
G04 #@! TD*
G04 #@! TO.C,D7*
X92821680Y-101079320D03*
X92821680Y-102829320D03*
X96321680Y-102829320D03*
X96321680Y-101079320D03*
G04 #@! TD*
G04 #@! TO.C,D6*
X98772900Y-88056740D03*
X98772900Y-89806740D03*
X102272900Y-89806740D03*
X102272900Y-88056740D03*
G04 #@! TD*
G04 #@! TO.C,D5*
X120052900Y-84267060D03*
X120052900Y-86017060D03*
X116552900Y-86017060D03*
X116552900Y-84267060D03*
G04 #@! TD*
G04 #@! TO.C,D1*
X110520280Y-54371260D03*
X110520280Y-56121260D03*
X107020280Y-56121260D03*
X107020280Y-54371260D03*
G04 #@! TD*
D11*
G04 #@! TO.C,C15*
X82725000Y-155020000D03*
X84305000Y-155020000D03*
G04 #@! TD*
G04 #@! TO.C,C14*
X95365000Y-153750000D03*
X96945000Y-153750000D03*
G04 #@! TD*
G04 #@! TO.C,C13*
X105370000Y-153750000D03*
X106950000Y-153750000D03*
G04 #@! TD*
G04 #@! TO.C,C3*
X107645000Y-69295000D03*
X109225000Y-69295000D03*
G04 #@! TD*
G04 #@! TO.C,C2*
X108915000Y-61675000D03*
X110495000Y-61675000D03*
G04 #@! TD*
G04 #@! TO.C,C1*
X108760000Y-58500000D03*
X110340000Y-58500000D03*
G04 #@! TD*
G04 #@! TO.C,C6*
X100025000Y-92155000D03*
X101605000Y-92155000D03*
G04 #@! TD*
G04 #@! TO.C,C5*
X119385000Y-88345000D03*
X117805000Y-88345000D03*
G04 #@! TD*
G04 #@! TO.C,C4*
X113035000Y-83265000D03*
X111455000Y-83265000D03*
G04 #@! TD*
G04 #@! TO.C,C9*
X79335000Y-128350000D03*
X80915000Y-128350000D03*
G04 #@! TD*
G04 #@! TO.C,C8*
X93350000Y-109300000D03*
X91770000Y-109300000D03*
G04 #@! TD*
G04 #@! TO.C,C7*
X98600000Y-104220000D03*
X100180000Y-104220000D03*
G04 #@! TD*
G04 #@! TO.C,C12*
X101870000Y-138510000D03*
X100290000Y-138510000D03*
G04 #@! TD*
G04 #@! TO.C,C11*
X89540000Y-140415000D03*
X87960000Y-140415000D03*
G04 #@! TD*
G04 #@! TO.C,C10*
X75045000Y-143590000D03*
X73465000Y-143590000D03*
G04 #@! TD*
M02*
