G04 #@! TF.GenerationSoftware,KiCad,Pcbnew,7.0.7*
G04 #@! TF.CreationDate,2023-09-07T11:23:27-07:00*
G04 #@! TF.ProjectId,bivariate-bivalve,62697661-7269-4617-9465-2d626976616c,rev?*
G04 #@! TF.SameCoordinates,Original*
G04 #@! TF.FileFunction,Legend,Top*
G04 #@! TF.FilePolarity,Positive*
%FSLAX46Y46*%
G04 Gerber Fmt 4.6, Leading zero omitted, Abs format (unit mm)*
G04 Created by KiCad (PCBNEW 7.0.7) date 2023-09-07 11:23:27*
%MOMM*%
%LPD*%
G01*
G04 APERTURE LIST*
G04 Aperture macros list*
%AMRoundRect*
0 Rectangle with rounded corners*
0 $1 Rounding radius*
0 $2 $3 $4 $5 $6 $7 $8 $9 X,Y pos of 4 corners*
0 Add a 4 corners polygon primitive as box body*
4,1,4,$2,$3,$4,$5,$6,$7,$8,$9,$2,$3,0*
0 Add four circle primitives for the rounded corners*
1,1,$1+$1,$2,$3*
1,1,$1+$1,$4,$5*
1,1,$1+$1,$6,$7*
1,1,$1+$1,$8,$9*
0 Add four rect primitives between the rounded corners*
20,1,$1+$1,$2,$3,$4,$5,0*
20,1,$1+$1,$4,$5,$6,$7,0*
20,1,$1+$1,$6,$7,$8,$9,0*
20,1,$1+$1,$8,$9,$2,$3,0*%
G04 Aperture macros list end*
%ADD10C,0.150000*%
%ADD11C,0.098425*%
%ADD12C,0.120000*%
%ADD13C,0.152400*%
%ADD14C,1.000000*%
%ADD15C,1.600000*%
%ADD16O,1.600000X1.600000*%
%ADD17R,1.700000X1.700000*%
%ADD18O,1.700000X1.700000*%
%ADD19C,6.200000*%
%ADD20R,1.600000X0.850000*%
%ADD21C,1.295400*%
%ADD22R,1.295400X1.295400*%
%ADD23RoundRect,0.102000X-0.470000X-0.510000X0.470000X-0.510000X0.470000X0.510000X-0.470000X0.510000X0*%
%ADD24RoundRect,0.102000X0.510000X-0.470000X0.510000X0.470000X-0.510000X0.470000X-0.510000X-0.470000X0*%
%ADD25R,1.117600X1.600200*%
%ADD26RoundRect,0.250001X0.799999X0.799999X-0.799999X0.799999X-0.799999X-0.799999X0.799999X-0.799999X0*%
%ADD27RoundRect,0.102000X0.470000X0.510000X-0.470000X0.510000X-0.470000X-0.510000X0.470000X-0.510000X0*%
G04 APERTURE END LIST*
D10*
X102612969Y-114621457D02*
X102612969Y-107001457D01*
X102612969Y-109904314D02*
X103338684Y-109541457D01*
X103338684Y-109541457D02*
X104790112Y-109541457D01*
X104790112Y-109541457D02*
X105515826Y-109904314D01*
X105515826Y-109904314D02*
X105878684Y-110267171D01*
X105878684Y-110267171D02*
X106241541Y-110992885D01*
X106241541Y-110992885D02*
X106241541Y-113170028D01*
X106241541Y-113170028D02*
X105878684Y-113895742D01*
X105878684Y-113895742D02*
X105515826Y-114258600D01*
X105515826Y-114258600D02*
X104790112Y-114621457D01*
X104790112Y-114621457D02*
X103338684Y-114621457D01*
X103338684Y-114621457D02*
X102612969Y-114258600D01*
X109507255Y-114621457D02*
X109507255Y-109541457D01*
X109507255Y-107001457D02*
X109144398Y-107364314D01*
X109144398Y-107364314D02*
X109507255Y-107727171D01*
X109507255Y-107727171D02*
X109870112Y-107364314D01*
X109870112Y-107364314D02*
X109507255Y-107001457D01*
X109507255Y-107001457D02*
X109507255Y-107727171D01*
X112410112Y-109541457D02*
X114224398Y-114621457D01*
X114224398Y-114621457D02*
X116038683Y-109541457D01*
X122207255Y-114621457D02*
X122207255Y-110630028D01*
X122207255Y-110630028D02*
X121844397Y-109904314D01*
X121844397Y-109904314D02*
X121118683Y-109541457D01*
X121118683Y-109541457D02*
X119667255Y-109541457D01*
X119667255Y-109541457D02*
X118941540Y-109904314D01*
X122207255Y-114258600D02*
X121481540Y-114621457D01*
X121481540Y-114621457D02*
X119667255Y-114621457D01*
X119667255Y-114621457D02*
X118941540Y-114258600D01*
X118941540Y-114258600D02*
X118578683Y-113532885D01*
X118578683Y-113532885D02*
X118578683Y-112807171D01*
X118578683Y-112807171D02*
X118941540Y-112081457D01*
X118941540Y-112081457D02*
X119667255Y-111718600D01*
X119667255Y-111718600D02*
X121481540Y-111718600D01*
X121481540Y-111718600D02*
X122207255Y-111355742D01*
X125835826Y-114621457D02*
X125835826Y-109541457D01*
X125835826Y-110992885D02*
X126198683Y-110267171D01*
X126198683Y-110267171D02*
X126561541Y-109904314D01*
X126561541Y-109904314D02*
X127287255Y-109541457D01*
X127287255Y-109541457D02*
X128012969Y-109541457D01*
X130552969Y-114621457D02*
X130552969Y-109541457D01*
X130552969Y-107001457D02*
X130190112Y-107364314D01*
X130190112Y-107364314D02*
X130552969Y-107727171D01*
X130552969Y-107727171D02*
X130915826Y-107364314D01*
X130915826Y-107364314D02*
X130552969Y-107001457D01*
X130552969Y-107001457D02*
X130552969Y-107727171D01*
X137447255Y-114621457D02*
X137447255Y-110630028D01*
X137447255Y-110630028D02*
X137084397Y-109904314D01*
X137084397Y-109904314D02*
X136358683Y-109541457D01*
X136358683Y-109541457D02*
X134907255Y-109541457D01*
X134907255Y-109541457D02*
X134181540Y-109904314D01*
X137447255Y-114258600D02*
X136721540Y-114621457D01*
X136721540Y-114621457D02*
X134907255Y-114621457D01*
X134907255Y-114621457D02*
X134181540Y-114258600D01*
X134181540Y-114258600D02*
X133818683Y-113532885D01*
X133818683Y-113532885D02*
X133818683Y-112807171D01*
X133818683Y-112807171D02*
X134181540Y-112081457D01*
X134181540Y-112081457D02*
X134907255Y-111718600D01*
X134907255Y-111718600D02*
X136721540Y-111718600D01*
X136721540Y-111718600D02*
X137447255Y-111355742D01*
X139987255Y-109541457D02*
X142890112Y-109541457D01*
X141075826Y-107001457D02*
X141075826Y-113532885D01*
X141075826Y-113532885D02*
X141438683Y-114258600D01*
X141438683Y-114258600D02*
X142164398Y-114621457D01*
X142164398Y-114621457D02*
X142890112Y-114621457D01*
X148332969Y-114258600D02*
X147607255Y-114621457D01*
X147607255Y-114621457D02*
X146155827Y-114621457D01*
X146155827Y-114621457D02*
X145430112Y-114258600D01*
X145430112Y-114258600D02*
X145067255Y-113532885D01*
X145067255Y-113532885D02*
X145067255Y-110630028D01*
X145067255Y-110630028D02*
X145430112Y-109904314D01*
X145430112Y-109904314D02*
X146155827Y-109541457D01*
X146155827Y-109541457D02*
X147607255Y-109541457D01*
X147607255Y-109541457D02*
X148332969Y-109904314D01*
X148332969Y-109904314D02*
X148695827Y-110630028D01*
X148695827Y-110630028D02*
X148695827Y-111355742D01*
X148695827Y-111355742D02*
X145067255Y-112081457D01*
X102612969Y-126889657D02*
X102612969Y-119269657D01*
X102612969Y-122172514D02*
X103338684Y-121809657D01*
X103338684Y-121809657D02*
X104790112Y-121809657D01*
X104790112Y-121809657D02*
X105515826Y-122172514D01*
X105515826Y-122172514D02*
X105878684Y-122535371D01*
X105878684Y-122535371D02*
X106241541Y-123261085D01*
X106241541Y-123261085D02*
X106241541Y-125438228D01*
X106241541Y-125438228D02*
X105878684Y-126163942D01*
X105878684Y-126163942D02*
X105515826Y-126526800D01*
X105515826Y-126526800D02*
X104790112Y-126889657D01*
X104790112Y-126889657D02*
X103338684Y-126889657D01*
X103338684Y-126889657D02*
X102612969Y-126526800D01*
X109507255Y-126889657D02*
X109507255Y-121809657D01*
X109507255Y-119269657D02*
X109144398Y-119632514D01*
X109144398Y-119632514D02*
X109507255Y-119995371D01*
X109507255Y-119995371D02*
X109870112Y-119632514D01*
X109870112Y-119632514D02*
X109507255Y-119269657D01*
X109507255Y-119269657D02*
X109507255Y-119995371D01*
X112410112Y-121809657D02*
X114224398Y-126889657D01*
X114224398Y-126889657D02*
X116038683Y-121809657D01*
X122207255Y-126889657D02*
X122207255Y-122898228D01*
X122207255Y-122898228D02*
X121844397Y-122172514D01*
X121844397Y-122172514D02*
X121118683Y-121809657D01*
X121118683Y-121809657D02*
X119667255Y-121809657D01*
X119667255Y-121809657D02*
X118941540Y-122172514D01*
X122207255Y-126526800D02*
X121481540Y-126889657D01*
X121481540Y-126889657D02*
X119667255Y-126889657D01*
X119667255Y-126889657D02*
X118941540Y-126526800D01*
X118941540Y-126526800D02*
X118578683Y-125801085D01*
X118578683Y-125801085D02*
X118578683Y-125075371D01*
X118578683Y-125075371D02*
X118941540Y-124349657D01*
X118941540Y-124349657D02*
X119667255Y-123986800D01*
X119667255Y-123986800D02*
X121481540Y-123986800D01*
X121481540Y-123986800D02*
X122207255Y-123623942D01*
X126924398Y-126889657D02*
X126198683Y-126526800D01*
X126198683Y-126526800D02*
X125835826Y-125801085D01*
X125835826Y-125801085D02*
X125835826Y-119269657D01*
X129101541Y-121809657D02*
X130915827Y-126889657D01*
X130915827Y-126889657D02*
X132730112Y-121809657D01*
X138535826Y-126526800D02*
X137810112Y-126889657D01*
X137810112Y-126889657D02*
X136358684Y-126889657D01*
X136358684Y-126889657D02*
X135632969Y-126526800D01*
X135632969Y-126526800D02*
X135270112Y-125801085D01*
X135270112Y-125801085D02*
X135270112Y-122898228D01*
X135270112Y-122898228D02*
X135632969Y-122172514D01*
X135632969Y-122172514D02*
X136358684Y-121809657D01*
X136358684Y-121809657D02*
X137810112Y-121809657D01*
X137810112Y-121809657D02*
X138535826Y-122172514D01*
X138535826Y-122172514D02*
X138898684Y-122898228D01*
X138898684Y-122898228D02*
X138898684Y-123623942D01*
X138898684Y-123623942D02*
X135270112Y-124349657D01*
X141801541Y-126526800D02*
X142527255Y-126889657D01*
X142527255Y-126889657D02*
X143978684Y-126889657D01*
X143978684Y-126889657D02*
X144704398Y-126526800D01*
X144704398Y-126526800D02*
X145067255Y-125801085D01*
X145067255Y-125801085D02*
X145067255Y-125438228D01*
X145067255Y-125438228D02*
X144704398Y-124712514D01*
X144704398Y-124712514D02*
X143978684Y-124349657D01*
X143978684Y-124349657D02*
X142890113Y-124349657D01*
X142890113Y-124349657D02*
X142164398Y-123986800D01*
X142164398Y-123986800D02*
X141801541Y-123261085D01*
X141801541Y-123261085D02*
X141801541Y-122898228D01*
X141801541Y-122898228D02*
X142164398Y-122172514D01*
X142164398Y-122172514D02*
X142890113Y-121809657D01*
X142890113Y-121809657D02*
X143978684Y-121809657D01*
X143978684Y-121809657D02*
X144704398Y-122172514D01*
X125089614Y-164789819D02*
X125089614Y-163789819D01*
X125089614Y-163789819D02*
X125327709Y-163789819D01*
X125327709Y-163789819D02*
X125470566Y-163837438D01*
X125470566Y-163837438D02*
X125565804Y-163932676D01*
X125565804Y-163932676D02*
X125613423Y-164027914D01*
X125613423Y-164027914D02*
X125661042Y-164218390D01*
X125661042Y-164218390D02*
X125661042Y-164361247D01*
X125661042Y-164361247D02*
X125613423Y-164551723D01*
X125613423Y-164551723D02*
X125565804Y-164646961D01*
X125565804Y-164646961D02*
X125470566Y-164742200D01*
X125470566Y-164742200D02*
X125327709Y-164789819D01*
X125327709Y-164789819D02*
X125089614Y-164789819D01*
X126613423Y-164789819D02*
X126041995Y-164789819D01*
X126327709Y-164789819D02*
X126327709Y-163789819D01*
X126327709Y-163789819D02*
X126232471Y-163932676D01*
X126232471Y-163932676D02*
X126137233Y-164027914D01*
X126137233Y-164027914D02*
X126041995Y-164075533D01*
X126946757Y-163789819D02*
X127613423Y-163789819D01*
X127613423Y-163789819D02*
X127184852Y-164789819D01*
X123089614Y-166664819D02*
X122518186Y-166664819D01*
X122803900Y-166664819D02*
X122803900Y-165664819D01*
X122803900Y-165664819D02*
X122708662Y-165807676D01*
X122708662Y-165807676D02*
X122613424Y-165902914D01*
X122613424Y-165902914D02*
X122518186Y-165950533D01*
X113869105Y-77241099D02*
X113869105Y-76241099D01*
X113869105Y-76241099D02*
X114107200Y-76241099D01*
X114107200Y-76241099D02*
X114250057Y-76288718D01*
X114250057Y-76288718D02*
X114345295Y-76383956D01*
X114345295Y-76383956D02*
X114392914Y-76479194D01*
X114392914Y-76479194D02*
X114440533Y-76669670D01*
X114440533Y-76669670D02*
X114440533Y-76812527D01*
X114440533Y-76812527D02*
X114392914Y-77003003D01*
X114392914Y-77003003D02*
X114345295Y-77098241D01*
X114345295Y-77098241D02*
X114250057Y-77193480D01*
X114250057Y-77193480D02*
X114107200Y-77241099D01*
X114107200Y-77241099D02*
X113869105Y-77241099D01*
X115297676Y-76574432D02*
X115297676Y-77241099D01*
X115059581Y-76193480D02*
X114821486Y-76907765D01*
X114821486Y-76907765D02*
X115440533Y-76907765D01*
X111392914Y-79116099D02*
X110821486Y-79116099D01*
X111107200Y-79116099D02*
X111107200Y-78116099D01*
X111107200Y-78116099D02*
X111011962Y-78258956D01*
X111011962Y-78258956D02*
X110916724Y-78354194D01*
X110916724Y-78354194D02*
X110821486Y-78401813D01*
X107287965Y-63880699D02*
X107287965Y-62880699D01*
X107287965Y-62880699D02*
X107526060Y-62880699D01*
X107526060Y-62880699D02*
X107668917Y-62928318D01*
X107668917Y-62928318D02*
X107764155Y-63023556D01*
X107764155Y-63023556D02*
X107811774Y-63118794D01*
X107811774Y-63118794D02*
X107859393Y-63309270D01*
X107859393Y-63309270D02*
X107859393Y-63452127D01*
X107859393Y-63452127D02*
X107811774Y-63642603D01*
X107811774Y-63642603D02*
X107764155Y-63737841D01*
X107764155Y-63737841D02*
X107668917Y-63833080D01*
X107668917Y-63833080D02*
X107526060Y-63880699D01*
X107526060Y-63880699D02*
X107287965Y-63880699D01*
X108192727Y-62880699D02*
X108811774Y-62880699D01*
X108811774Y-62880699D02*
X108478441Y-63261651D01*
X108478441Y-63261651D02*
X108621298Y-63261651D01*
X108621298Y-63261651D02*
X108716536Y-63309270D01*
X108716536Y-63309270D02*
X108764155Y-63356889D01*
X108764155Y-63356889D02*
X108811774Y-63452127D01*
X108811774Y-63452127D02*
X108811774Y-63690222D01*
X108811774Y-63690222D02*
X108764155Y-63785460D01*
X108764155Y-63785460D02*
X108716536Y-63833080D01*
X108716536Y-63833080D02*
X108621298Y-63880699D01*
X108621298Y-63880699D02*
X108335584Y-63880699D01*
X108335584Y-63880699D02*
X108240346Y-63833080D01*
X108240346Y-63833080D02*
X108192727Y-63785460D01*
X104811774Y-65755699D02*
X104240346Y-65755699D01*
X104526060Y-65755699D02*
X104526060Y-64755699D01*
X104526060Y-64755699D02*
X104430822Y-64898556D01*
X104430822Y-64898556D02*
X104335584Y-64993794D01*
X104335584Y-64993794D02*
X104240346Y-65041413D01*
X91346925Y-103725679D02*
X91346925Y-102725679D01*
X91346925Y-102725679D02*
X91585020Y-102725679D01*
X91585020Y-102725679D02*
X91727877Y-102773298D01*
X91727877Y-102773298D02*
X91823115Y-102868536D01*
X91823115Y-102868536D02*
X91870734Y-102963774D01*
X91870734Y-102963774D02*
X91918353Y-103154250D01*
X91918353Y-103154250D02*
X91918353Y-103297107D01*
X91918353Y-103297107D02*
X91870734Y-103487583D01*
X91870734Y-103487583D02*
X91823115Y-103582821D01*
X91823115Y-103582821D02*
X91727877Y-103678060D01*
X91727877Y-103678060D02*
X91585020Y-103725679D01*
X91585020Y-103725679D02*
X91346925Y-103725679D01*
X92489782Y-103154250D02*
X92394544Y-103106631D01*
X92394544Y-103106631D02*
X92346925Y-103059012D01*
X92346925Y-103059012D02*
X92299306Y-102963774D01*
X92299306Y-102963774D02*
X92299306Y-102916155D01*
X92299306Y-102916155D02*
X92346925Y-102820917D01*
X92346925Y-102820917D02*
X92394544Y-102773298D01*
X92394544Y-102773298D02*
X92489782Y-102725679D01*
X92489782Y-102725679D02*
X92680258Y-102725679D01*
X92680258Y-102725679D02*
X92775496Y-102773298D01*
X92775496Y-102773298D02*
X92823115Y-102820917D01*
X92823115Y-102820917D02*
X92870734Y-102916155D01*
X92870734Y-102916155D02*
X92870734Y-102963774D01*
X92870734Y-102963774D02*
X92823115Y-103059012D01*
X92823115Y-103059012D02*
X92775496Y-103106631D01*
X92775496Y-103106631D02*
X92680258Y-103154250D01*
X92680258Y-103154250D02*
X92489782Y-103154250D01*
X92489782Y-103154250D02*
X92394544Y-103201869D01*
X92394544Y-103201869D02*
X92346925Y-103249488D01*
X92346925Y-103249488D02*
X92299306Y-103344726D01*
X92299306Y-103344726D02*
X92299306Y-103535202D01*
X92299306Y-103535202D02*
X92346925Y-103630440D01*
X92346925Y-103630440D02*
X92394544Y-103678060D01*
X92394544Y-103678060D02*
X92489782Y-103725679D01*
X92489782Y-103725679D02*
X92680258Y-103725679D01*
X92680258Y-103725679D02*
X92775496Y-103678060D01*
X92775496Y-103678060D02*
X92823115Y-103630440D01*
X92823115Y-103630440D02*
X92870734Y-103535202D01*
X92870734Y-103535202D02*
X92870734Y-103344726D01*
X92870734Y-103344726D02*
X92823115Y-103249488D01*
X92823115Y-103249488D02*
X92775496Y-103201869D01*
X92775496Y-103201869D02*
X92680258Y-103154250D01*
X88870734Y-105600679D02*
X88299306Y-105600679D01*
X88585020Y-105600679D02*
X88585020Y-104600679D01*
X88585020Y-104600679D02*
X88489782Y-104743536D01*
X88489782Y-104743536D02*
X88394544Y-104838774D01*
X88394544Y-104838774D02*
X88299306Y-104886393D01*
X103389065Y-58660999D02*
X103389065Y-57660999D01*
X103389065Y-57660999D02*
X103627160Y-57660999D01*
X103627160Y-57660999D02*
X103770017Y-57708618D01*
X103770017Y-57708618D02*
X103865255Y-57803856D01*
X103865255Y-57803856D02*
X103912874Y-57899094D01*
X103912874Y-57899094D02*
X103960493Y-58089570D01*
X103960493Y-58089570D02*
X103960493Y-58232427D01*
X103960493Y-58232427D02*
X103912874Y-58422903D01*
X103912874Y-58422903D02*
X103865255Y-58518141D01*
X103865255Y-58518141D02*
X103770017Y-58613380D01*
X103770017Y-58613380D02*
X103627160Y-58660999D01*
X103627160Y-58660999D02*
X103389065Y-58660999D01*
X104341446Y-57756237D02*
X104389065Y-57708618D01*
X104389065Y-57708618D02*
X104484303Y-57660999D01*
X104484303Y-57660999D02*
X104722398Y-57660999D01*
X104722398Y-57660999D02*
X104817636Y-57708618D01*
X104817636Y-57708618D02*
X104865255Y-57756237D01*
X104865255Y-57756237D02*
X104912874Y-57851475D01*
X104912874Y-57851475D02*
X104912874Y-57946713D01*
X104912874Y-57946713D02*
X104865255Y-58089570D01*
X104865255Y-58089570D02*
X104293827Y-58660999D01*
X104293827Y-58660999D02*
X104912874Y-58660999D01*
X100912874Y-60535999D02*
X100341446Y-60535999D01*
X100627160Y-60535999D02*
X100627160Y-59535999D01*
X100627160Y-59535999D02*
X100531922Y-59678856D01*
X100531922Y-59678856D02*
X100436684Y-59774094D01*
X100436684Y-59774094D02*
X100341446Y-59821713D01*
X125089614Y-169509139D02*
X125089614Y-168509139D01*
X125089614Y-168509139D02*
X125327709Y-168509139D01*
X125327709Y-168509139D02*
X125470566Y-168556758D01*
X125470566Y-168556758D02*
X125565804Y-168651996D01*
X125565804Y-168651996D02*
X125613423Y-168747234D01*
X125613423Y-168747234D02*
X125661042Y-168937710D01*
X125661042Y-168937710D02*
X125661042Y-169080567D01*
X125661042Y-169080567D02*
X125613423Y-169271043D01*
X125613423Y-169271043D02*
X125565804Y-169366281D01*
X125565804Y-169366281D02*
X125470566Y-169461520D01*
X125470566Y-169461520D02*
X125327709Y-169509139D01*
X125327709Y-169509139D02*
X125089614Y-169509139D01*
X126613423Y-169509139D02*
X126041995Y-169509139D01*
X126327709Y-169509139D02*
X126327709Y-168509139D01*
X126327709Y-168509139D02*
X126232471Y-168651996D01*
X126232471Y-168651996D02*
X126137233Y-168747234D01*
X126137233Y-168747234D02*
X126041995Y-168794853D01*
X127184852Y-168937710D02*
X127089614Y-168890091D01*
X127089614Y-168890091D02*
X127041995Y-168842472D01*
X127041995Y-168842472D02*
X126994376Y-168747234D01*
X126994376Y-168747234D02*
X126994376Y-168699615D01*
X126994376Y-168699615D02*
X127041995Y-168604377D01*
X127041995Y-168604377D02*
X127089614Y-168556758D01*
X127089614Y-168556758D02*
X127184852Y-168509139D01*
X127184852Y-168509139D02*
X127375328Y-168509139D01*
X127375328Y-168509139D02*
X127470566Y-168556758D01*
X127470566Y-168556758D02*
X127518185Y-168604377D01*
X127518185Y-168604377D02*
X127565804Y-168699615D01*
X127565804Y-168699615D02*
X127565804Y-168747234D01*
X127565804Y-168747234D02*
X127518185Y-168842472D01*
X127518185Y-168842472D02*
X127470566Y-168890091D01*
X127470566Y-168890091D02*
X127375328Y-168937710D01*
X127375328Y-168937710D02*
X127184852Y-168937710D01*
X127184852Y-168937710D02*
X127089614Y-168985329D01*
X127089614Y-168985329D02*
X127041995Y-169032948D01*
X127041995Y-169032948D02*
X126994376Y-169128186D01*
X126994376Y-169128186D02*
X126994376Y-169318662D01*
X126994376Y-169318662D02*
X127041995Y-169413900D01*
X127041995Y-169413900D02*
X127089614Y-169461520D01*
X127089614Y-169461520D02*
X127184852Y-169509139D01*
X127184852Y-169509139D02*
X127375328Y-169509139D01*
X127375328Y-169509139D02*
X127470566Y-169461520D01*
X127470566Y-169461520D02*
X127518185Y-169413900D01*
X127518185Y-169413900D02*
X127565804Y-169318662D01*
X127565804Y-169318662D02*
X127565804Y-169128186D01*
X127565804Y-169128186D02*
X127518185Y-169032948D01*
X127518185Y-169032948D02*
X127470566Y-168985329D01*
X127470566Y-168985329D02*
X127375328Y-168937710D01*
X123089614Y-171384139D02*
X122518186Y-171384139D01*
X122803900Y-171384139D02*
X122803900Y-170384139D01*
X122803900Y-170384139D02*
X122708662Y-170526996D01*
X122708662Y-170526996D02*
X122613424Y-170622234D01*
X122613424Y-170622234D02*
X122518186Y-170669853D01*
X125089614Y-160073039D02*
X125089614Y-159073039D01*
X125089614Y-159073039D02*
X125327709Y-159073039D01*
X125327709Y-159073039D02*
X125470566Y-159120658D01*
X125470566Y-159120658D02*
X125565804Y-159215896D01*
X125565804Y-159215896D02*
X125613423Y-159311134D01*
X125613423Y-159311134D02*
X125661042Y-159501610D01*
X125661042Y-159501610D02*
X125661042Y-159644467D01*
X125661042Y-159644467D02*
X125613423Y-159834943D01*
X125613423Y-159834943D02*
X125565804Y-159930181D01*
X125565804Y-159930181D02*
X125470566Y-160025420D01*
X125470566Y-160025420D02*
X125327709Y-160073039D01*
X125327709Y-160073039D02*
X125089614Y-160073039D01*
X126613423Y-160073039D02*
X126041995Y-160073039D01*
X126327709Y-160073039D02*
X126327709Y-159073039D01*
X126327709Y-159073039D02*
X126232471Y-159215896D01*
X126232471Y-159215896D02*
X126137233Y-159311134D01*
X126137233Y-159311134D02*
X126041995Y-159358753D01*
X127470566Y-159073039D02*
X127280090Y-159073039D01*
X127280090Y-159073039D02*
X127184852Y-159120658D01*
X127184852Y-159120658D02*
X127137233Y-159168277D01*
X127137233Y-159168277D02*
X127041995Y-159311134D01*
X127041995Y-159311134D02*
X126994376Y-159501610D01*
X126994376Y-159501610D02*
X126994376Y-159882562D01*
X126994376Y-159882562D02*
X127041995Y-159977800D01*
X127041995Y-159977800D02*
X127089614Y-160025420D01*
X127089614Y-160025420D02*
X127184852Y-160073039D01*
X127184852Y-160073039D02*
X127375328Y-160073039D01*
X127375328Y-160073039D02*
X127470566Y-160025420D01*
X127470566Y-160025420D02*
X127518185Y-159977800D01*
X127518185Y-159977800D02*
X127565804Y-159882562D01*
X127565804Y-159882562D02*
X127565804Y-159644467D01*
X127565804Y-159644467D02*
X127518185Y-159549229D01*
X127518185Y-159549229D02*
X127470566Y-159501610D01*
X127470566Y-159501610D02*
X127375328Y-159453991D01*
X127375328Y-159453991D02*
X127184852Y-159453991D01*
X127184852Y-159453991D02*
X127089614Y-159501610D01*
X127089614Y-159501610D02*
X127041995Y-159549229D01*
X127041995Y-159549229D02*
X126994376Y-159644467D01*
X123089614Y-161948039D02*
X122518186Y-161948039D01*
X122803900Y-161948039D02*
X122803900Y-160948039D01*
X122803900Y-160948039D02*
X122708662Y-161090896D01*
X122708662Y-161090896D02*
X122613424Y-161186134D01*
X122613424Y-161186134D02*
X122518186Y-161233753D01*
D11*
X132051907Y-171204519D02*
X132033159Y-171223267D01*
X132033159Y-171223267D02*
X131976916Y-171242014D01*
X131976916Y-171242014D02*
X131939421Y-171242014D01*
X131939421Y-171242014D02*
X131883178Y-171223267D01*
X131883178Y-171223267D02*
X131845683Y-171185771D01*
X131845683Y-171185771D02*
X131826935Y-171148276D01*
X131826935Y-171148276D02*
X131808187Y-171073285D01*
X131808187Y-171073285D02*
X131808187Y-171017042D01*
X131808187Y-171017042D02*
X131826935Y-170942052D01*
X131826935Y-170942052D02*
X131845683Y-170904556D01*
X131845683Y-170904556D02*
X131883178Y-170867061D01*
X131883178Y-170867061D02*
X131939421Y-170848313D01*
X131939421Y-170848313D02*
X131976916Y-170848313D01*
X131976916Y-170848313D02*
X132033159Y-170867061D01*
X132033159Y-170867061D02*
X132051907Y-170885809D01*
X132426860Y-171242014D02*
X132201888Y-171242014D01*
X132314374Y-171242014D02*
X132314374Y-170848313D01*
X132314374Y-170848313D02*
X132276879Y-170904556D01*
X132276879Y-170904556D02*
X132239384Y-170942052D01*
X132239384Y-170942052D02*
X132201888Y-170960799D01*
X132651832Y-171017042D02*
X132614337Y-170998295D01*
X132614337Y-170998295D02*
X132595589Y-170979547D01*
X132595589Y-170979547D02*
X132576841Y-170942052D01*
X132576841Y-170942052D02*
X132576841Y-170923304D01*
X132576841Y-170923304D02*
X132595589Y-170885809D01*
X132595589Y-170885809D02*
X132614337Y-170867061D01*
X132614337Y-170867061D02*
X132651832Y-170848313D01*
X132651832Y-170848313D02*
X132726823Y-170848313D01*
X132726823Y-170848313D02*
X132764318Y-170867061D01*
X132764318Y-170867061D02*
X132783066Y-170885809D01*
X132783066Y-170885809D02*
X132801813Y-170923304D01*
X132801813Y-170923304D02*
X132801813Y-170942052D01*
X132801813Y-170942052D02*
X132783066Y-170979547D01*
X132783066Y-170979547D02*
X132764318Y-170998295D01*
X132764318Y-170998295D02*
X132726823Y-171017042D01*
X132726823Y-171017042D02*
X132651832Y-171017042D01*
X132651832Y-171017042D02*
X132614337Y-171035790D01*
X132614337Y-171035790D02*
X132595589Y-171054538D01*
X132595589Y-171054538D02*
X132576841Y-171092033D01*
X132576841Y-171092033D02*
X132576841Y-171167024D01*
X132576841Y-171167024D02*
X132595589Y-171204519D01*
X132595589Y-171204519D02*
X132614337Y-171223267D01*
X132614337Y-171223267D02*
X132651832Y-171242014D01*
X132651832Y-171242014D02*
X132726823Y-171242014D01*
X132726823Y-171242014D02*
X132764318Y-171223267D01*
X132764318Y-171223267D02*
X132783066Y-171204519D01*
X132783066Y-171204519D02*
X132801813Y-171167024D01*
X132801813Y-171167024D02*
X132801813Y-171092033D01*
X132801813Y-171092033D02*
X132783066Y-171054538D01*
X132783066Y-171054538D02*
X132764318Y-171035790D01*
X132764318Y-171035790D02*
X132726823Y-171017042D01*
X129964519Y-167598092D02*
X129983267Y-167616840D01*
X129983267Y-167616840D02*
X130002014Y-167673083D01*
X130002014Y-167673083D02*
X130002014Y-167710578D01*
X130002014Y-167710578D02*
X129983267Y-167766821D01*
X129983267Y-167766821D02*
X129945771Y-167804317D01*
X129945771Y-167804317D02*
X129908276Y-167823064D01*
X129908276Y-167823064D02*
X129833285Y-167841812D01*
X129833285Y-167841812D02*
X129777042Y-167841812D01*
X129777042Y-167841812D02*
X129702052Y-167823064D01*
X129702052Y-167823064D02*
X129664556Y-167804317D01*
X129664556Y-167804317D02*
X129627061Y-167766821D01*
X129627061Y-167766821D02*
X129608313Y-167710578D01*
X129608313Y-167710578D02*
X129608313Y-167673083D01*
X129608313Y-167673083D02*
X129627061Y-167616840D01*
X129627061Y-167616840D02*
X129645809Y-167598092D01*
X130002014Y-167223139D02*
X130002014Y-167448111D01*
X130002014Y-167335625D02*
X129608313Y-167335625D01*
X129608313Y-167335625D02*
X129664556Y-167373120D01*
X129664556Y-167373120D02*
X129702052Y-167410616D01*
X129702052Y-167410616D02*
X129720799Y-167448111D01*
X129608313Y-167091906D02*
X129608313Y-166829438D01*
X129608313Y-166829438D02*
X130002014Y-166998167D01*
X129964519Y-162673092D02*
X129983267Y-162691840D01*
X129983267Y-162691840D02*
X130002014Y-162748083D01*
X130002014Y-162748083D02*
X130002014Y-162785578D01*
X130002014Y-162785578D02*
X129983267Y-162841821D01*
X129983267Y-162841821D02*
X129945771Y-162879317D01*
X129945771Y-162879317D02*
X129908276Y-162898064D01*
X129908276Y-162898064D02*
X129833285Y-162916812D01*
X129833285Y-162916812D02*
X129777042Y-162916812D01*
X129777042Y-162916812D02*
X129702052Y-162898064D01*
X129702052Y-162898064D02*
X129664556Y-162879317D01*
X129664556Y-162879317D02*
X129627061Y-162841821D01*
X129627061Y-162841821D02*
X129608313Y-162785578D01*
X129608313Y-162785578D02*
X129608313Y-162748083D01*
X129608313Y-162748083D02*
X129627061Y-162691840D01*
X129627061Y-162691840D02*
X129645809Y-162673092D01*
X130002014Y-162298139D02*
X130002014Y-162523111D01*
X130002014Y-162410625D02*
X129608313Y-162410625D01*
X129608313Y-162410625D02*
X129664556Y-162448120D01*
X129664556Y-162448120D02*
X129702052Y-162485616D01*
X129702052Y-162485616D02*
X129720799Y-162523111D01*
X129608313Y-161960681D02*
X129608313Y-162035672D01*
X129608313Y-162035672D02*
X129627061Y-162073167D01*
X129627061Y-162073167D02*
X129645809Y-162091915D01*
X129645809Y-162091915D02*
X129702052Y-162129410D01*
X129702052Y-162129410D02*
X129777042Y-162148158D01*
X129777042Y-162148158D02*
X129927024Y-162148158D01*
X129927024Y-162148158D02*
X129964519Y-162129410D01*
X129964519Y-162129410D02*
X129983267Y-162110663D01*
X129983267Y-162110663D02*
X130002014Y-162073167D01*
X130002014Y-162073167D02*
X130002014Y-161998177D01*
X130002014Y-161998177D02*
X129983267Y-161960681D01*
X129983267Y-161960681D02*
X129964519Y-161941934D01*
X129964519Y-161941934D02*
X129927024Y-161923186D01*
X129927024Y-161923186D02*
X129833285Y-161923186D01*
X129833285Y-161923186D02*
X129795790Y-161941934D01*
X129795790Y-161941934D02*
X129777042Y-161960681D01*
X129777042Y-161960681D02*
X129758295Y-161998177D01*
X129758295Y-161998177D02*
X129758295Y-162073167D01*
X129758295Y-162073167D02*
X129777042Y-162110663D01*
X129777042Y-162110663D02*
X129795790Y-162129410D01*
X129795790Y-162129410D02*
X129833285Y-162148158D01*
D10*
X111443333Y-51334819D02*
X111110000Y-50858628D01*
X110871905Y-51334819D02*
X110871905Y-50334819D01*
X110871905Y-50334819D02*
X111252857Y-50334819D01*
X111252857Y-50334819D02*
X111348095Y-50382438D01*
X111348095Y-50382438D02*
X111395714Y-50430057D01*
X111395714Y-50430057D02*
X111443333Y-50525295D01*
X111443333Y-50525295D02*
X111443333Y-50668152D01*
X111443333Y-50668152D02*
X111395714Y-50763390D01*
X111395714Y-50763390D02*
X111348095Y-50811009D01*
X111348095Y-50811009D02*
X111252857Y-50858628D01*
X111252857Y-50858628D02*
X110871905Y-50858628D01*
X111776667Y-50334819D02*
X112395714Y-50334819D01*
X112395714Y-50334819D02*
X112062381Y-50715771D01*
X112062381Y-50715771D02*
X112205238Y-50715771D01*
X112205238Y-50715771D02*
X112300476Y-50763390D01*
X112300476Y-50763390D02*
X112348095Y-50811009D01*
X112348095Y-50811009D02*
X112395714Y-50906247D01*
X112395714Y-50906247D02*
X112395714Y-51144342D01*
X112395714Y-51144342D02*
X112348095Y-51239580D01*
X112348095Y-51239580D02*
X112300476Y-51287200D01*
X112300476Y-51287200D02*
X112205238Y-51334819D01*
X112205238Y-51334819D02*
X111919524Y-51334819D01*
X111919524Y-51334819D02*
X111824286Y-51287200D01*
X111824286Y-51287200D02*
X111776667Y-51239580D01*
X82031534Y-149600619D02*
X82031534Y-148600619D01*
X82031534Y-148600619D02*
X82269629Y-148600619D01*
X82269629Y-148600619D02*
X82412486Y-148648238D01*
X82412486Y-148648238D02*
X82507724Y-148743476D01*
X82507724Y-148743476D02*
X82555343Y-148838714D01*
X82555343Y-148838714D02*
X82602962Y-149029190D01*
X82602962Y-149029190D02*
X82602962Y-149172047D01*
X82602962Y-149172047D02*
X82555343Y-149362523D01*
X82555343Y-149362523D02*
X82507724Y-149457761D01*
X82507724Y-149457761D02*
X82412486Y-149553000D01*
X82412486Y-149553000D02*
X82269629Y-149600619D01*
X82269629Y-149600619D02*
X82031534Y-149600619D01*
X83555343Y-149600619D02*
X82983915Y-149600619D01*
X83269629Y-149600619D02*
X83269629Y-148600619D01*
X83269629Y-148600619D02*
X83174391Y-148743476D01*
X83174391Y-148743476D02*
X83079153Y-148838714D01*
X83079153Y-148838714D02*
X82983915Y-148886333D01*
X84460105Y-148600619D02*
X83983915Y-148600619D01*
X83983915Y-148600619D02*
X83936296Y-149076809D01*
X83936296Y-149076809D02*
X83983915Y-149029190D01*
X83983915Y-149029190D02*
X84079153Y-148981571D01*
X84079153Y-148981571D02*
X84317248Y-148981571D01*
X84317248Y-148981571D02*
X84412486Y-149029190D01*
X84412486Y-149029190D02*
X84460105Y-149076809D01*
X84460105Y-149076809D02*
X84507724Y-149172047D01*
X84507724Y-149172047D02*
X84507724Y-149410142D01*
X84507724Y-149410142D02*
X84460105Y-149505380D01*
X84460105Y-149505380D02*
X84412486Y-149553000D01*
X84412486Y-149553000D02*
X84317248Y-149600619D01*
X84317248Y-149600619D02*
X84079153Y-149600619D01*
X84079153Y-149600619D02*
X83983915Y-149553000D01*
X83983915Y-149553000D02*
X83936296Y-149505380D01*
X80031534Y-151475619D02*
X79460106Y-151475619D01*
X79745820Y-151475619D02*
X79745820Y-150475619D01*
X79745820Y-150475619D02*
X79650582Y-150618476D01*
X79650582Y-150618476D02*
X79555344Y-150713714D01*
X79555344Y-150713714D02*
X79460106Y-150761333D01*
X95272554Y-148325539D02*
X95272554Y-147325539D01*
X95272554Y-147325539D02*
X95510649Y-147325539D01*
X95510649Y-147325539D02*
X95653506Y-147373158D01*
X95653506Y-147373158D02*
X95748744Y-147468396D01*
X95748744Y-147468396D02*
X95796363Y-147563634D01*
X95796363Y-147563634D02*
X95843982Y-147754110D01*
X95843982Y-147754110D02*
X95843982Y-147896967D01*
X95843982Y-147896967D02*
X95796363Y-148087443D01*
X95796363Y-148087443D02*
X95748744Y-148182681D01*
X95748744Y-148182681D02*
X95653506Y-148277920D01*
X95653506Y-148277920D02*
X95510649Y-148325539D01*
X95510649Y-148325539D02*
X95272554Y-148325539D01*
X96796363Y-148325539D02*
X96224935Y-148325539D01*
X96510649Y-148325539D02*
X96510649Y-147325539D01*
X96510649Y-147325539D02*
X96415411Y-147468396D01*
X96415411Y-147468396D02*
X96320173Y-147563634D01*
X96320173Y-147563634D02*
X96224935Y-147611253D01*
X97653506Y-147658872D02*
X97653506Y-148325539D01*
X97415411Y-147277920D02*
X97177316Y-147992205D01*
X97177316Y-147992205D02*
X97796363Y-147992205D01*
X93272554Y-150200539D02*
X92701126Y-150200539D01*
X92986840Y-150200539D02*
X92986840Y-149200539D01*
X92986840Y-149200539D02*
X92891602Y-149343396D01*
X92891602Y-149343396D02*
X92796364Y-149438634D01*
X92796364Y-149438634D02*
X92701126Y-149486253D01*
X104787394Y-148226479D02*
X104787394Y-147226479D01*
X104787394Y-147226479D02*
X105025489Y-147226479D01*
X105025489Y-147226479D02*
X105168346Y-147274098D01*
X105168346Y-147274098D02*
X105263584Y-147369336D01*
X105263584Y-147369336D02*
X105311203Y-147464574D01*
X105311203Y-147464574D02*
X105358822Y-147655050D01*
X105358822Y-147655050D02*
X105358822Y-147797907D01*
X105358822Y-147797907D02*
X105311203Y-147988383D01*
X105311203Y-147988383D02*
X105263584Y-148083621D01*
X105263584Y-148083621D02*
X105168346Y-148178860D01*
X105168346Y-148178860D02*
X105025489Y-148226479D01*
X105025489Y-148226479D02*
X104787394Y-148226479D01*
X106311203Y-148226479D02*
X105739775Y-148226479D01*
X106025489Y-148226479D02*
X106025489Y-147226479D01*
X106025489Y-147226479D02*
X105930251Y-147369336D01*
X105930251Y-147369336D02*
X105835013Y-147464574D01*
X105835013Y-147464574D02*
X105739775Y-147512193D01*
X106644537Y-147226479D02*
X107263584Y-147226479D01*
X107263584Y-147226479D02*
X106930251Y-147607431D01*
X106930251Y-147607431D02*
X107073108Y-147607431D01*
X107073108Y-147607431D02*
X107168346Y-147655050D01*
X107168346Y-147655050D02*
X107215965Y-147702669D01*
X107215965Y-147702669D02*
X107263584Y-147797907D01*
X107263584Y-147797907D02*
X107263584Y-148036002D01*
X107263584Y-148036002D02*
X107215965Y-148131240D01*
X107215965Y-148131240D02*
X107168346Y-148178860D01*
X107168346Y-148178860D02*
X107073108Y-148226479D01*
X107073108Y-148226479D02*
X106787394Y-148226479D01*
X106787394Y-148226479D02*
X106692156Y-148178860D01*
X106692156Y-148178860D02*
X106644537Y-148131240D01*
X102787394Y-150101479D02*
X102215966Y-150101479D01*
X102501680Y-150101479D02*
X102501680Y-149101479D01*
X102501680Y-149101479D02*
X102406442Y-149244336D01*
X102406442Y-149244336D02*
X102311204Y-149339574D01*
X102311204Y-149339574D02*
X102215966Y-149387193D01*
X99542294Y-132839159D02*
X99542294Y-131839159D01*
X99542294Y-131839159D02*
X99780389Y-131839159D01*
X99780389Y-131839159D02*
X99923246Y-131886778D01*
X99923246Y-131886778D02*
X100018484Y-131982016D01*
X100018484Y-131982016D02*
X100066103Y-132077254D01*
X100066103Y-132077254D02*
X100113722Y-132267730D01*
X100113722Y-132267730D02*
X100113722Y-132410587D01*
X100113722Y-132410587D02*
X100066103Y-132601063D01*
X100066103Y-132601063D02*
X100018484Y-132696301D01*
X100018484Y-132696301D02*
X99923246Y-132791540D01*
X99923246Y-132791540D02*
X99780389Y-132839159D01*
X99780389Y-132839159D02*
X99542294Y-132839159D01*
X101066103Y-132839159D02*
X100494675Y-132839159D01*
X100780389Y-132839159D02*
X100780389Y-131839159D01*
X100780389Y-131839159D02*
X100685151Y-131982016D01*
X100685151Y-131982016D02*
X100589913Y-132077254D01*
X100589913Y-132077254D02*
X100494675Y-132124873D01*
X101447056Y-131934397D02*
X101494675Y-131886778D01*
X101494675Y-131886778D02*
X101589913Y-131839159D01*
X101589913Y-131839159D02*
X101828008Y-131839159D01*
X101828008Y-131839159D02*
X101923246Y-131886778D01*
X101923246Y-131886778D02*
X101970865Y-131934397D01*
X101970865Y-131934397D02*
X102018484Y-132029635D01*
X102018484Y-132029635D02*
X102018484Y-132124873D01*
X102018484Y-132124873D02*
X101970865Y-132267730D01*
X101970865Y-132267730D02*
X101399437Y-132839159D01*
X101399437Y-132839159D02*
X102018484Y-132839159D01*
X97542294Y-134714159D02*
X96970866Y-134714159D01*
X97256580Y-134714159D02*
X97256580Y-133714159D01*
X97256580Y-133714159D02*
X97161342Y-133857016D01*
X97161342Y-133857016D02*
X97066104Y-133952254D01*
X97066104Y-133952254D02*
X96970866Y-133999873D01*
X87378234Y-134589219D02*
X87378234Y-133589219D01*
X87378234Y-133589219D02*
X87616329Y-133589219D01*
X87616329Y-133589219D02*
X87759186Y-133636838D01*
X87759186Y-133636838D02*
X87854424Y-133732076D01*
X87854424Y-133732076D02*
X87902043Y-133827314D01*
X87902043Y-133827314D02*
X87949662Y-134017790D01*
X87949662Y-134017790D02*
X87949662Y-134160647D01*
X87949662Y-134160647D02*
X87902043Y-134351123D01*
X87902043Y-134351123D02*
X87854424Y-134446361D01*
X87854424Y-134446361D02*
X87759186Y-134541600D01*
X87759186Y-134541600D02*
X87616329Y-134589219D01*
X87616329Y-134589219D02*
X87378234Y-134589219D01*
X88902043Y-134589219D02*
X88330615Y-134589219D01*
X88616329Y-134589219D02*
X88616329Y-133589219D01*
X88616329Y-133589219D02*
X88521091Y-133732076D01*
X88521091Y-133732076D02*
X88425853Y-133827314D01*
X88425853Y-133827314D02*
X88330615Y-133874933D01*
X89854424Y-134589219D02*
X89282996Y-134589219D01*
X89568710Y-134589219D02*
X89568710Y-133589219D01*
X89568710Y-133589219D02*
X89473472Y-133732076D01*
X89473472Y-133732076D02*
X89378234Y-133827314D01*
X89378234Y-133827314D02*
X89282996Y-133874933D01*
X85378234Y-136464219D02*
X84806806Y-136464219D01*
X85092520Y-136464219D02*
X85092520Y-135464219D01*
X85092520Y-135464219D02*
X84997282Y-135607076D01*
X84997282Y-135607076D02*
X84902044Y-135702314D01*
X84902044Y-135702314D02*
X84806806Y-135749933D01*
X73093274Y-137642299D02*
X73093274Y-136642299D01*
X73093274Y-136642299D02*
X73331369Y-136642299D01*
X73331369Y-136642299D02*
X73474226Y-136689918D01*
X73474226Y-136689918D02*
X73569464Y-136785156D01*
X73569464Y-136785156D02*
X73617083Y-136880394D01*
X73617083Y-136880394D02*
X73664702Y-137070870D01*
X73664702Y-137070870D02*
X73664702Y-137213727D01*
X73664702Y-137213727D02*
X73617083Y-137404203D01*
X73617083Y-137404203D02*
X73569464Y-137499441D01*
X73569464Y-137499441D02*
X73474226Y-137594680D01*
X73474226Y-137594680D02*
X73331369Y-137642299D01*
X73331369Y-137642299D02*
X73093274Y-137642299D01*
X74617083Y-137642299D02*
X74045655Y-137642299D01*
X74331369Y-137642299D02*
X74331369Y-136642299D01*
X74331369Y-136642299D02*
X74236131Y-136785156D01*
X74236131Y-136785156D02*
X74140893Y-136880394D01*
X74140893Y-136880394D02*
X74045655Y-136928013D01*
X75236131Y-136642299D02*
X75331369Y-136642299D01*
X75331369Y-136642299D02*
X75426607Y-136689918D01*
X75426607Y-136689918D02*
X75474226Y-136737537D01*
X75474226Y-136737537D02*
X75521845Y-136832775D01*
X75521845Y-136832775D02*
X75569464Y-137023251D01*
X75569464Y-137023251D02*
X75569464Y-137261346D01*
X75569464Y-137261346D02*
X75521845Y-137451822D01*
X75521845Y-137451822D02*
X75474226Y-137547060D01*
X75474226Y-137547060D02*
X75426607Y-137594680D01*
X75426607Y-137594680D02*
X75331369Y-137642299D01*
X75331369Y-137642299D02*
X75236131Y-137642299D01*
X75236131Y-137642299D02*
X75140893Y-137594680D01*
X75140893Y-137594680D02*
X75093274Y-137547060D01*
X75093274Y-137547060D02*
X75045655Y-137451822D01*
X75045655Y-137451822D02*
X74998036Y-137261346D01*
X74998036Y-137261346D02*
X74998036Y-137023251D01*
X74998036Y-137023251D02*
X75045655Y-136832775D01*
X75045655Y-136832775D02*
X75093274Y-136737537D01*
X75093274Y-136737537D02*
X75140893Y-136689918D01*
X75140893Y-136689918D02*
X75236131Y-136642299D01*
X71093274Y-139517299D02*
X70521846Y-139517299D01*
X70807560Y-139517299D02*
X70807560Y-138517299D01*
X70807560Y-138517299D02*
X70712322Y-138660156D01*
X70712322Y-138660156D02*
X70617084Y-138755394D01*
X70617084Y-138755394D02*
X70521846Y-138803013D01*
X79584185Y-122686779D02*
X79584185Y-121686779D01*
X79584185Y-121686779D02*
X79822280Y-121686779D01*
X79822280Y-121686779D02*
X79965137Y-121734398D01*
X79965137Y-121734398D02*
X80060375Y-121829636D01*
X80060375Y-121829636D02*
X80107994Y-121924874D01*
X80107994Y-121924874D02*
X80155613Y-122115350D01*
X80155613Y-122115350D02*
X80155613Y-122258207D01*
X80155613Y-122258207D02*
X80107994Y-122448683D01*
X80107994Y-122448683D02*
X80060375Y-122543921D01*
X80060375Y-122543921D02*
X79965137Y-122639160D01*
X79965137Y-122639160D02*
X79822280Y-122686779D01*
X79822280Y-122686779D02*
X79584185Y-122686779D01*
X80631804Y-122686779D02*
X80822280Y-122686779D01*
X80822280Y-122686779D02*
X80917518Y-122639160D01*
X80917518Y-122639160D02*
X80965137Y-122591540D01*
X80965137Y-122591540D02*
X81060375Y-122448683D01*
X81060375Y-122448683D02*
X81107994Y-122258207D01*
X81107994Y-122258207D02*
X81107994Y-121877255D01*
X81107994Y-121877255D02*
X81060375Y-121782017D01*
X81060375Y-121782017D02*
X81012756Y-121734398D01*
X81012756Y-121734398D02*
X80917518Y-121686779D01*
X80917518Y-121686779D02*
X80727042Y-121686779D01*
X80727042Y-121686779D02*
X80631804Y-121734398D01*
X80631804Y-121734398D02*
X80584185Y-121782017D01*
X80584185Y-121782017D02*
X80536566Y-121877255D01*
X80536566Y-121877255D02*
X80536566Y-122115350D01*
X80536566Y-122115350D02*
X80584185Y-122210588D01*
X80584185Y-122210588D02*
X80631804Y-122258207D01*
X80631804Y-122258207D02*
X80727042Y-122305826D01*
X80727042Y-122305826D02*
X80917518Y-122305826D01*
X80917518Y-122305826D02*
X81012756Y-122258207D01*
X81012756Y-122258207D02*
X81060375Y-122210588D01*
X81060375Y-122210588D02*
X81107994Y-122115350D01*
X77107994Y-124561779D02*
X76536566Y-124561779D01*
X76822280Y-124561779D02*
X76822280Y-123561779D01*
X76822280Y-123561779D02*
X76727042Y-123704636D01*
X76727042Y-123704636D02*
X76631804Y-123799874D01*
X76631804Y-123799874D02*
X76536566Y-123847493D01*
X93833585Y-99659139D02*
X93833585Y-98659139D01*
X93833585Y-98659139D02*
X94071680Y-98659139D01*
X94071680Y-98659139D02*
X94214537Y-98706758D01*
X94214537Y-98706758D02*
X94309775Y-98801996D01*
X94309775Y-98801996D02*
X94357394Y-98897234D01*
X94357394Y-98897234D02*
X94405013Y-99087710D01*
X94405013Y-99087710D02*
X94405013Y-99230567D01*
X94405013Y-99230567D02*
X94357394Y-99421043D01*
X94357394Y-99421043D02*
X94309775Y-99516281D01*
X94309775Y-99516281D02*
X94214537Y-99611520D01*
X94214537Y-99611520D02*
X94071680Y-99659139D01*
X94071680Y-99659139D02*
X93833585Y-99659139D01*
X94738347Y-98659139D02*
X95405013Y-98659139D01*
X95405013Y-98659139D02*
X94976442Y-99659139D01*
X91357394Y-101534139D02*
X90785966Y-101534139D01*
X91071680Y-101534139D02*
X91071680Y-100534139D01*
X91071680Y-100534139D02*
X90976442Y-100676996D01*
X90976442Y-100676996D02*
X90881204Y-100772234D01*
X90881204Y-100772234D02*
X90785966Y-100819853D01*
X99784805Y-86636559D02*
X99784805Y-85636559D01*
X99784805Y-85636559D02*
X100022900Y-85636559D01*
X100022900Y-85636559D02*
X100165757Y-85684178D01*
X100165757Y-85684178D02*
X100260995Y-85779416D01*
X100260995Y-85779416D02*
X100308614Y-85874654D01*
X100308614Y-85874654D02*
X100356233Y-86065130D01*
X100356233Y-86065130D02*
X100356233Y-86207987D01*
X100356233Y-86207987D02*
X100308614Y-86398463D01*
X100308614Y-86398463D02*
X100260995Y-86493701D01*
X100260995Y-86493701D02*
X100165757Y-86588940D01*
X100165757Y-86588940D02*
X100022900Y-86636559D01*
X100022900Y-86636559D02*
X99784805Y-86636559D01*
X101213376Y-85636559D02*
X101022900Y-85636559D01*
X101022900Y-85636559D02*
X100927662Y-85684178D01*
X100927662Y-85684178D02*
X100880043Y-85731797D01*
X100880043Y-85731797D02*
X100784805Y-85874654D01*
X100784805Y-85874654D02*
X100737186Y-86065130D01*
X100737186Y-86065130D02*
X100737186Y-86446082D01*
X100737186Y-86446082D02*
X100784805Y-86541320D01*
X100784805Y-86541320D02*
X100832424Y-86588940D01*
X100832424Y-86588940D02*
X100927662Y-86636559D01*
X100927662Y-86636559D02*
X101118138Y-86636559D01*
X101118138Y-86636559D02*
X101213376Y-86588940D01*
X101213376Y-86588940D02*
X101260995Y-86541320D01*
X101260995Y-86541320D02*
X101308614Y-86446082D01*
X101308614Y-86446082D02*
X101308614Y-86207987D01*
X101308614Y-86207987D02*
X101260995Y-86112749D01*
X101260995Y-86112749D02*
X101213376Y-86065130D01*
X101213376Y-86065130D02*
X101118138Y-86017511D01*
X101118138Y-86017511D02*
X100927662Y-86017511D01*
X100927662Y-86017511D02*
X100832424Y-86065130D01*
X100832424Y-86065130D02*
X100784805Y-86112749D01*
X100784805Y-86112749D02*
X100737186Y-86207987D01*
X97308614Y-88511559D02*
X96737186Y-88511559D01*
X97022900Y-88511559D02*
X97022900Y-87511559D01*
X97022900Y-87511559D02*
X96927662Y-87654416D01*
X96927662Y-87654416D02*
X96832424Y-87749654D01*
X96832424Y-87749654D02*
X96737186Y-87797273D01*
X117564805Y-82846879D02*
X117564805Y-81846879D01*
X117564805Y-81846879D02*
X117802900Y-81846879D01*
X117802900Y-81846879D02*
X117945757Y-81894498D01*
X117945757Y-81894498D02*
X118040995Y-81989736D01*
X118040995Y-81989736D02*
X118088614Y-82084974D01*
X118088614Y-82084974D02*
X118136233Y-82275450D01*
X118136233Y-82275450D02*
X118136233Y-82418307D01*
X118136233Y-82418307D02*
X118088614Y-82608783D01*
X118088614Y-82608783D02*
X118040995Y-82704021D01*
X118040995Y-82704021D02*
X117945757Y-82799260D01*
X117945757Y-82799260D02*
X117802900Y-82846879D01*
X117802900Y-82846879D02*
X117564805Y-82846879D01*
X119040995Y-81846879D02*
X118564805Y-81846879D01*
X118564805Y-81846879D02*
X118517186Y-82323069D01*
X118517186Y-82323069D02*
X118564805Y-82275450D01*
X118564805Y-82275450D02*
X118660043Y-82227831D01*
X118660043Y-82227831D02*
X118898138Y-82227831D01*
X118898138Y-82227831D02*
X118993376Y-82275450D01*
X118993376Y-82275450D02*
X119040995Y-82323069D01*
X119040995Y-82323069D02*
X119088614Y-82418307D01*
X119088614Y-82418307D02*
X119088614Y-82656402D01*
X119088614Y-82656402D02*
X119040995Y-82751640D01*
X119040995Y-82751640D02*
X118993376Y-82799260D01*
X118993376Y-82799260D02*
X118898138Y-82846879D01*
X118898138Y-82846879D02*
X118660043Y-82846879D01*
X118660043Y-82846879D02*
X118564805Y-82799260D01*
X118564805Y-82799260D02*
X118517186Y-82751640D01*
X115088614Y-84721879D02*
X114517186Y-84721879D01*
X114802900Y-84721879D02*
X114802900Y-83721879D01*
X114802900Y-83721879D02*
X114707662Y-83864736D01*
X114707662Y-83864736D02*
X114612424Y-83959974D01*
X114612424Y-83959974D02*
X114517186Y-84007593D01*
X108032185Y-52951079D02*
X108032185Y-51951079D01*
X108032185Y-51951079D02*
X108270280Y-51951079D01*
X108270280Y-51951079D02*
X108413137Y-51998698D01*
X108413137Y-51998698D02*
X108508375Y-52093936D01*
X108508375Y-52093936D02*
X108555994Y-52189174D01*
X108555994Y-52189174D02*
X108603613Y-52379650D01*
X108603613Y-52379650D02*
X108603613Y-52522507D01*
X108603613Y-52522507D02*
X108555994Y-52712983D01*
X108555994Y-52712983D02*
X108508375Y-52808221D01*
X108508375Y-52808221D02*
X108413137Y-52903460D01*
X108413137Y-52903460D02*
X108270280Y-52951079D01*
X108270280Y-52951079D02*
X108032185Y-52951079D01*
X109555994Y-52951079D02*
X108984566Y-52951079D01*
X109270280Y-52951079D02*
X109270280Y-51951079D01*
X109270280Y-51951079D02*
X109175042Y-52093936D01*
X109175042Y-52093936D02*
X109079804Y-52189174D01*
X109079804Y-52189174D02*
X108984566Y-52236793D01*
X105555994Y-54826079D02*
X104984566Y-54826079D01*
X105270280Y-54826079D02*
X105270280Y-53826079D01*
X105270280Y-53826079D02*
X105175042Y-53968936D01*
X105175042Y-53968936D02*
X105079804Y-54064174D01*
X105079804Y-54064174D02*
X104984566Y-54111793D01*
D11*
X83521907Y-156259519D02*
X83503159Y-156278267D01*
X83503159Y-156278267D02*
X83446916Y-156297014D01*
X83446916Y-156297014D02*
X83409421Y-156297014D01*
X83409421Y-156297014D02*
X83353178Y-156278267D01*
X83353178Y-156278267D02*
X83315683Y-156240771D01*
X83315683Y-156240771D02*
X83296935Y-156203276D01*
X83296935Y-156203276D02*
X83278187Y-156128285D01*
X83278187Y-156128285D02*
X83278187Y-156072042D01*
X83278187Y-156072042D02*
X83296935Y-155997052D01*
X83296935Y-155997052D02*
X83315683Y-155959556D01*
X83315683Y-155959556D02*
X83353178Y-155922061D01*
X83353178Y-155922061D02*
X83409421Y-155903313D01*
X83409421Y-155903313D02*
X83446916Y-155903313D01*
X83446916Y-155903313D02*
X83503159Y-155922061D01*
X83503159Y-155922061D02*
X83521907Y-155940809D01*
X83896860Y-156297014D02*
X83671888Y-156297014D01*
X83784374Y-156297014D02*
X83784374Y-155903313D01*
X83784374Y-155903313D02*
X83746879Y-155959556D01*
X83746879Y-155959556D02*
X83709384Y-155997052D01*
X83709384Y-155997052D02*
X83671888Y-156015799D01*
X84253066Y-155903313D02*
X84065589Y-155903313D01*
X84065589Y-155903313D02*
X84046841Y-156090790D01*
X84046841Y-156090790D02*
X84065589Y-156072042D01*
X84065589Y-156072042D02*
X84103084Y-156053295D01*
X84103084Y-156053295D02*
X84196823Y-156053295D01*
X84196823Y-156053295D02*
X84234318Y-156072042D01*
X84234318Y-156072042D02*
X84253066Y-156090790D01*
X84253066Y-156090790D02*
X84271813Y-156128285D01*
X84271813Y-156128285D02*
X84271813Y-156222024D01*
X84271813Y-156222024D02*
X84253066Y-156259519D01*
X84253066Y-156259519D02*
X84234318Y-156278267D01*
X84234318Y-156278267D02*
X84196823Y-156297014D01*
X84196823Y-156297014D02*
X84103084Y-156297014D01*
X84103084Y-156297014D02*
X84065589Y-156278267D01*
X84065589Y-156278267D02*
X84046841Y-156259519D01*
X96161907Y-154989519D02*
X96143159Y-155008267D01*
X96143159Y-155008267D02*
X96086916Y-155027014D01*
X96086916Y-155027014D02*
X96049421Y-155027014D01*
X96049421Y-155027014D02*
X95993178Y-155008267D01*
X95993178Y-155008267D02*
X95955683Y-154970771D01*
X95955683Y-154970771D02*
X95936935Y-154933276D01*
X95936935Y-154933276D02*
X95918187Y-154858285D01*
X95918187Y-154858285D02*
X95918187Y-154802042D01*
X95918187Y-154802042D02*
X95936935Y-154727052D01*
X95936935Y-154727052D02*
X95955683Y-154689556D01*
X95955683Y-154689556D02*
X95993178Y-154652061D01*
X95993178Y-154652061D02*
X96049421Y-154633313D01*
X96049421Y-154633313D02*
X96086916Y-154633313D01*
X96086916Y-154633313D02*
X96143159Y-154652061D01*
X96143159Y-154652061D02*
X96161907Y-154670809D01*
X96536860Y-155027014D02*
X96311888Y-155027014D01*
X96424374Y-155027014D02*
X96424374Y-154633313D01*
X96424374Y-154633313D02*
X96386879Y-154689556D01*
X96386879Y-154689556D02*
X96349384Y-154727052D01*
X96349384Y-154727052D02*
X96311888Y-154745799D01*
X96874318Y-154764547D02*
X96874318Y-155027014D01*
X96780580Y-154614566D02*
X96686841Y-154895781D01*
X96686841Y-154895781D02*
X96930561Y-154895781D01*
X106166907Y-154989519D02*
X106148159Y-155008267D01*
X106148159Y-155008267D02*
X106091916Y-155027014D01*
X106091916Y-155027014D02*
X106054421Y-155027014D01*
X106054421Y-155027014D02*
X105998178Y-155008267D01*
X105998178Y-155008267D02*
X105960683Y-154970771D01*
X105960683Y-154970771D02*
X105941935Y-154933276D01*
X105941935Y-154933276D02*
X105923187Y-154858285D01*
X105923187Y-154858285D02*
X105923187Y-154802042D01*
X105923187Y-154802042D02*
X105941935Y-154727052D01*
X105941935Y-154727052D02*
X105960683Y-154689556D01*
X105960683Y-154689556D02*
X105998178Y-154652061D01*
X105998178Y-154652061D02*
X106054421Y-154633313D01*
X106054421Y-154633313D02*
X106091916Y-154633313D01*
X106091916Y-154633313D02*
X106148159Y-154652061D01*
X106148159Y-154652061D02*
X106166907Y-154670809D01*
X106541860Y-155027014D02*
X106316888Y-155027014D01*
X106429374Y-155027014D02*
X106429374Y-154633313D01*
X106429374Y-154633313D02*
X106391879Y-154689556D01*
X106391879Y-154689556D02*
X106354384Y-154727052D01*
X106354384Y-154727052D02*
X106316888Y-154745799D01*
X106673094Y-154633313D02*
X106916813Y-154633313D01*
X106916813Y-154633313D02*
X106785580Y-154783295D01*
X106785580Y-154783295D02*
X106841823Y-154783295D01*
X106841823Y-154783295D02*
X106879318Y-154802042D01*
X106879318Y-154802042D02*
X106898066Y-154820790D01*
X106898066Y-154820790D02*
X106916813Y-154858285D01*
X106916813Y-154858285D02*
X106916813Y-154952024D01*
X106916813Y-154952024D02*
X106898066Y-154989519D01*
X106898066Y-154989519D02*
X106879318Y-155008267D01*
X106879318Y-155008267D02*
X106841823Y-155027014D01*
X106841823Y-155027014D02*
X106729337Y-155027014D01*
X106729337Y-155027014D02*
X106691841Y-155008267D01*
X106691841Y-155008267D02*
X106673094Y-154989519D01*
X108629383Y-67524519D02*
X108610635Y-67543267D01*
X108610635Y-67543267D02*
X108554392Y-67562014D01*
X108554392Y-67562014D02*
X108516897Y-67562014D01*
X108516897Y-67562014D02*
X108460654Y-67543267D01*
X108460654Y-67543267D02*
X108423159Y-67505771D01*
X108423159Y-67505771D02*
X108404411Y-67468276D01*
X108404411Y-67468276D02*
X108385663Y-67393285D01*
X108385663Y-67393285D02*
X108385663Y-67337042D01*
X108385663Y-67337042D02*
X108404411Y-67262052D01*
X108404411Y-67262052D02*
X108423159Y-67224556D01*
X108423159Y-67224556D02*
X108460654Y-67187061D01*
X108460654Y-67187061D02*
X108516897Y-67168313D01*
X108516897Y-67168313D02*
X108554392Y-67168313D01*
X108554392Y-67168313D02*
X108610635Y-67187061D01*
X108610635Y-67187061D02*
X108629383Y-67205809D01*
X108760617Y-67168313D02*
X109004336Y-67168313D01*
X109004336Y-67168313D02*
X108873103Y-67318295D01*
X108873103Y-67318295D02*
X108929346Y-67318295D01*
X108929346Y-67318295D02*
X108966841Y-67337042D01*
X108966841Y-67337042D02*
X108985589Y-67355790D01*
X108985589Y-67355790D02*
X109004336Y-67393285D01*
X109004336Y-67393285D02*
X109004336Y-67487024D01*
X109004336Y-67487024D02*
X108985589Y-67524519D01*
X108985589Y-67524519D02*
X108966841Y-67543267D01*
X108966841Y-67543267D02*
X108929346Y-67562014D01*
X108929346Y-67562014D02*
X108816860Y-67562014D01*
X108816860Y-67562014D02*
X108779364Y-67543267D01*
X108779364Y-67543267D02*
X108760617Y-67524519D01*
X109899383Y-62914519D02*
X109880635Y-62933267D01*
X109880635Y-62933267D02*
X109824392Y-62952014D01*
X109824392Y-62952014D02*
X109786897Y-62952014D01*
X109786897Y-62952014D02*
X109730654Y-62933267D01*
X109730654Y-62933267D02*
X109693159Y-62895771D01*
X109693159Y-62895771D02*
X109674411Y-62858276D01*
X109674411Y-62858276D02*
X109655663Y-62783285D01*
X109655663Y-62783285D02*
X109655663Y-62727042D01*
X109655663Y-62727042D02*
X109674411Y-62652052D01*
X109674411Y-62652052D02*
X109693159Y-62614556D01*
X109693159Y-62614556D02*
X109730654Y-62577061D01*
X109730654Y-62577061D02*
X109786897Y-62558313D01*
X109786897Y-62558313D02*
X109824392Y-62558313D01*
X109824392Y-62558313D02*
X109880635Y-62577061D01*
X109880635Y-62577061D02*
X109899383Y-62595809D01*
X110049364Y-62595809D02*
X110068112Y-62577061D01*
X110068112Y-62577061D02*
X110105607Y-62558313D01*
X110105607Y-62558313D02*
X110199346Y-62558313D01*
X110199346Y-62558313D02*
X110236841Y-62577061D01*
X110236841Y-62577061D02*
X110255589Y-62595809D01*
X110255589Y-62595809D02*
X110274336Y-62633304D01*
X110274336Y-62633304D02*
X110274336Y-62670799D01*
X110274336Y-62670799D02*
X110255589Y-62727042D01*
X110255589Y-62727042D02*
X110030617Y-62952014D01*
X110030617Y-62952014D02*
X110274336Y-62952014D01*
X109744383Y-59739519D02*
X109725635Y-59758267D01*
X109725635Y-59758267D02*
X109669392Y-59777014D01*
X109669392Y-59777014D02*
X109631897Y-59777014D01*
X109631897Y-59777014D02*
X109575654Y-59758267D01*
X109575654Y-59758267D02*
X109538159Y-59720771D01*
X109538159Y-59720771D02*
X109519411Y-59683276D01*
X109519411Y-59683276D02*
X109500663Y-59608285D01*
X109500663Y-59608285D02*
X109500663Y-59552042D01*
X109500663Y-59552042D02*
X109519411Y-59477052D01*
X109519411Y-59477052D02*
X109538159Y-59439556D01*
X109538159Y-59439556D02*
X109575654Y-59402061D01*
X109575654Y-59402061D02*
X109631897Y-59383313D01*
X109631897Y-59383313D02*
X109669392Y-59383313D01*
X109669392Y-59383313D02*
X109725635Y-59402061D01*
X109725635Y-59402061D02*
X109744383Y-59420809D01*
X110119336Y-59777014D02*
X109894364Y-59777014D01*
X110006850Y-59777014D02*
X110006850Y-59383313D01*
X110006850Y-59383313D02*
X109969355Y-59439556D01*
X109969355Y-59439556D02*
X109931860Y-59477052D01*
X109931860Y-59477052D02*
X109894364Y-59495799D01*
X101009383Y-93394519D02*
X100990635Y-93413267D01*
X100990635Y-93413267D02*
X100934392Y-93432014D01*
X100934392Y-93432014D02*
X100896897Y-93432014D01*
X100896897Y-93432014D02*
X100840654Y-93413267D01*
X100840654Y-93413267D02*
X100803159Y-93375771D01*
X100803159Y-93375771D02*
X100784411Y-93338276D01*
X100784411Y-93338276D02*
X100765663Y-93263285D01*
X100765663Y-93263285D02*
X100765663Y-93207042D01*
X100765663Y-93207042D02*
X100784411Y-93132052D01*
X100784411Y-93132052D02*
X100803159Y-93094556D01*
X100803159Y-93094556D02*
X100840654Y-93057061D01*
X100840654Y-93057061D02*
X100896897Y-93038313D01*
X100896897Y-93038313D02*
X100934392Y-93038313D01*
X100934392Y-93038313D02*
X100990635Y-93057061D01*
X100990635Y-93057061D02*
X101009383Y-93075809D01*
X101346841Y-93038313D02*
X101271850Y-93038313D01*
X101271850Y-93038313D02*
X101234355Y-93057061D01*
X101234355Y-93057061D02*
X101215607Y-93075809D01*
X101215607Y-93075809D02*
X101178112Y-93132052D01*
X101178112Y-93132052D02*
X101159364Y-93207042D01*
X101159364Y-93207042D02*
X101159364Y-93357024D01*
X101159364Y-93357024D02*
X101178112Y-93394519D01*
X101178112Y-93394519D02*
X101196860Y-93413267D01*
X101196860Y-93413267D02*
X101234355Y-93432014D01*
X101234355Y-93432014D02*
X101309346Y-93432014D01*
X101309346Y-93432014D02*
X101346841Y-93413267D01*
X101346841Y-93413267D02*
X101365589Y-93394519D01*
X101365589Y-93394519D02*
X101384336Y-93357024D01*
X101384336Y-93357024D02*
X101384336Y-93263285D01*
X101384336Y-93263285D02*
X101365589Y-93225790D01*
X101365589Y-93225790D02*
X101346841Y-93207042D01*
X101346841Y-93207042D02*
X101309346Y-93188295D01*
X101309346Y-93188295D02*
X101234355Y-93188295D01*
X101234355Y-93188295D02*
X101196860Y-93207042D01*
X101196860Y-93207042D02*
X101178112Y-93225790D01*
X101178112Y-93225790D02*
X101159364Y-93263285D01*
X118269383Y-87384519D02*
X118250635Y-87403267D01*
X118250635Y-87403267D02*
X118194392Y-87422014D01*
X118194392Y-87422014D02*
X118156897Y-87422014D01*
X118156897Y-87422014D02*
X118100654Y-87403267D01*
X118100654Y-87403267D02*
X118063159Y-87365771D01*
X118063159Y-87365771D02*
X118044411Y-87328276D01*
X118044411Y-87328276D02*
X118025663Y-87253285D01*
X118025663Y-87253285D02*
X118025663Y-87197042D01*
X118025663Y-87197042D02*
X118044411Y-87122052D01*
X118044411Y-87122052D02*
X118063159Y-87084556D01*
X118063159Y-87084556D02*
X118100654Y-87047061D01*
X118100654Y-87047061D02*
X118156897Y-87028313D01*
X118156897Y-87028313D02*
X118194392Y-87028313D01*
X118194392Y-87028313D02*
X118250635Y-87047061D01*
X118250635Y-87047061D02*
X118269383Y-87065809D01*
X118625589Y-87028313D02*
X118438112Y-87028313D01*
X118438112Y-87028313D02*
X118419364Y-87215790D01*
X118419364Y-87215790D02*
X118438112Y-87197042D01*
X118438112Y-87197042D02*
X118475607Y-87178295D01*
X118475607Y-87178295D02*
X118569346Y-87178295D01*
X118569346Y-87178295D02*
X118606841Y-87197042D01*
X118606841Y-87197042D02*
X118625589Y-87215790D01*
X118625589Y-87215790D02*
X118644336Y-87253285D01*
X118644336Y-87253285D02*
X118644336Y-87347024D01*
X118644336Y-87347024D02*
X118625589Y-87384519D01*
X118625589Y-87384519D02*
X118606841Y-87403267D01*
X118606841Y-87403267D02*
X118569346Y-87422014D01*
X118569346Y-87422014D02*
X118475607Y-87422014D01*
X118475607Y-87422014D02*
X118438112Y-87403267D01*
X118438112Y-87403267D02*
X118419364Y-87384519D01*
X112124519Y-82230616D02*
X112143267Y-82249364D01*
X112143267Y-82249364D02*
X112162014Y-82305607D01*
X112162014Y-82305607D02*
X112162014Y-82343102D01*
X112162014Y-82343102D02*
X112143267Y-82399345D01*
X112143267Y-82399345D02*
X112105771Y-82436841D01*
X112105771Y-82436841D02*
X112068276Y-82455588D01*
X112068276Y-82455588D02*
X111993285Y-82474336D01*
X111993285Y-82474336D02*
X111937042Y-82474336D01*
X111937042Y-82474336D02*
X111862052Y-82455588D01*
X111862052Y-82455588D02*
X111824556Y-82436841D01*
X111824556Y-82436841D02*
X111787061Y-82399345D01*
X111787061Y-82399345D02*
X111768313Y-82343102D01*
X111768313Y-82343102D02*
X111768313Y-82305607D01*
X111768313Y-82305607D02*
X111787061Y-82249364D01*
X111787061Y-82249364D02*
X111805809Y-82230616D01*
X111899547Y-81893158D02*
X112162014Y-81893158D01*
X111749566Y-81986897D02*
X112030781Y-82080635D01*
X112030781Y-82080635D02*
X112030781Y-81836915D01*
X80319383Y-129589519D02*
X80300635Y-129608267D01*
X80300635Y-129608267D02*
X80244392Y-129627014D01*
X80244392Y-129627014D02*
X80206897Y-129627014D01*
X80206897Y-129627014D02*
X80150654Y-129608267D01*
X80150654Y-129608267D02*
X80113159Y-129570771D01*
X80113159Y-129570771D02*
X80094411Y-129533276D01*
X80094411Y-129533276D02*
X80075663Y-129458285D01*
X80075663Y-129458285D02*
X80075663Y-129402042D01*
X80075663Y-129402042D02*
X80094411Y-129327052D01*
X80094411Y-129327052D02*
X80113159Y-129289556D01*
X80113159Y-129289556D02*
X80150654Y-129252061D01*
X80150654Y-129252061D02*
X80206897Y-129233313D01*
X80206897Y-129233313D02*
X80244392Y-129233313D01*
X80244392Y-129233313D02*
X80300635Y-129252061D01*
X80300635Y-129252061D02*
X80319383Y-129270809D01*
X80506860Y-129627014D02*
X80581850Y-129627014D01*
X80581850Y-129627014D02*
X80619346Y-129608267D01*
X80619346Y-129608267D02*
X80638093Y-129589519D01*
X80638093Y-129589519D02*
X80675589Y-129533276D01*
X80675589Y-129533276D02*
X80694336Y-129458285D01*
X80694336Y-129458285D02*
X80694336Y-129308304D01*
X80694336Y-129308304D02*
X80675589Y-129270809D01*
X80675589Y-129270809D02*
X80656841Y-129252061D01*
X80656841Y-129252061D02*
X80619346Y-129233313D01*
X80619346Y-129233313D02*
X80544355Y-129233313D01*
X80544355Y-129233313D02*
X80506860Y-129252061D01*
X80506860Y-129252061D02*
X80488112Y-129270809D01*
X80488112Y-129270809D02*
X80469364Y-129308304D01*
X80469364Y-129308304D02*
X80469364Y-129402042D01*
X80469364Y-129402042D02*
X80488112Y-129439538D01*
X80488112Y-129439538D02*
X80506860Y-129458285D01*
X80506860Y-129458285D02*
X80544355Y-129477033D01*
X80544355Y-129477033D02*
X80619346Y-129477033D01*
X80619346Y-129477033D02*
X80656841Y-129458285D01*
X80656841Y-129458285D02*
X80675589Y-129439538D01*
X80675589Y-129439538D02*
X80694336Y-129402042D01*
X92754383Y-110539519D02*
X92735635Y-110558267D01*
X92735635Y-110558267D02*
X92679392Y-110577014D01*
X92679392Y-110577014D02*
X92641897Y-110577014D01*
X92641897Y-110577014D02*
X92585654Y-110558267D01*
X92585654Y-110558267D02*
X92548159Y-110520771D01*
X92548159Y-110520771D02*
X92529411Y-110483276D01*
X92529411Y-110483276D02*
X92510663Y-110408285D01*
X92510663Y-110408285D02*
X92510663Y-110352042D01*
X92510663Y-110352042D02*
X92529411Y-110277052D01*
X92529411Y-110277052D02*
X92548159Y-110239556D01*
X92548159Y-110239556D02*
X92585654Y-110202061D01*
X92585654Y-110202061D02*
X92641897Y-110183313D01*
X92641897Y-110183313D02*
X92679392Y-110183313D01*
X92679392Y-110183313D02*
X92735635Y-110202061D01*
X92735635Y-110202061D02*
X92754383Y-110220809D01*
X92979355Y-110352042D02*
X92941860Y-110333295D01*
X92941860Y-110333295D02*
X92923112Y-110314547D01*
X92923112Y-110314547D02*
X92904364Y-110277052D01*
X92904364Y-110277052D02*
X92904364Y-110258304D01*
X92904364Y-110258304D02*
X92923112Y-110220809D01*
X92923112Y-110220809D02*
X92941860Y-110202061D01*
X92941860Y-110202061D02*
X92979355Y-110183313D01*
X92979355Y-110183313D02*
X93054346Y-110183313D01*
X93054346Y-110183313D02*
X93091841Y-110202061D01*
X93091841Y-110202061D02*
X93110589Y-110220809D01*
X93110589Y-110220809D02*
X93129336Y-110258304D01*
X93129336Y-110258304D02*
X93129336Y-110277052D01*
X93129336Y-110277052D02*
X93110589Y-110314547D01*
X93110589Y-110314547D02*
X93091841Y-110333295D01*
X93091841Y-110333295D02*
X93054346Y-110352042D01*
X93054346Y-110352042D02*
X92979355Y-110352042D01*
X92979355Y-110352042D02*
X92941860Y-110370790D01*
X92941860Y-110370790D02*
X92923112Y-110389538D01*
X92923112Y-110389538D02*
X92904364Y-110427033D01*
X92904364Y-110427033D02*
X92904364Y-110502024D01*
X92904364Y-110502024D02*
X92923112Y-110539519D01*
X92923112Y-110539519D02*
X92941860Y-110558267D01*
X92941860Y-110558267D02*
X92979355Y-110577014D01*
X92979355Y-110577014D02*
X93054346Y-110577014D01*
X93054346Y-110577014D02*
X93091841Y-110558267D01*
X93091841Y-110558267D02*
X93110589Y-110539519D01*
X93110589Y-110539519D02*
X93129336Y-110502024D01*
X93129336Y-110502024D02*
X93129336Y-110427033D01*
X93129336Y-110427033D02*
X93110589Y-110389538D01*
X93110589Y-110389538D02*
X93091841Y-110370790D01*
X93091841Y-110370790D02*
X93054346Y-110352042D01*
X99584383Y-105459519D02*
X99565635Y-105478267D01*
X99565635Y-105478267D02*
X99509392Y-105497014D01*
X99509392Y-105497014D02*
X99471897Y-105497014D01*
X99471897Y-105497014D02*
X99415654Y-105478267D01*
X99415654Y-105478267D02*
X99378159Y-105440771D01*
X99378159Y-105440771D02*
X99359411Y-105403276D01*
X99359411Y-105403276D02*
X99340663Y-105328285D01*
X99340663Y-105328285D02*
X99340663Y-105272042D01*
X99340663Y-105272042D02*
X99359411Y-105197052D01*
X99359411Y-105197052D02*
X99378159Y-105159556D01*
X99378159Y-105159556D02*
X99415654Y-105122061D01*
X99415654Y-105122061D02*
X99471897Y-105103313D01*
X99471897Y-105103313D02*
X99509392Y-105103313D01*
X99509392Y-105103313D02*
X99565635Y-105122061D01*
X99565635Y-105122061D02*
X99584383Y-105140809D01*
X99715617Y-105103313D02*
X99978084Y-105103313D01*
X99978084Y-105103313D02*
X99809355Y-105497014D01*
X100566907Y-137549519D02*
X100548159Y-137568267D01*
X100548159Y-137568267D02*
X100491916Y-137587014D01*
X100491916Y-137587014D02*
X100454421Y-137587014D01*
X100454421Y-137587014D02*
X100398178Y-137568267D01*
X100398178Y-137568267D02*
X100360683Y-137530771D01*
X100360683Y-137530771D02*
X100341935Y-137493276D01*
X100341935Y-137493276D02*
X100323187Y-137418285D01*
X100323187Y-137418285D02*
X100323187Y-137362042D01*
X100323187Y-137362042D02*
X100341935Y-137287052D01*
X100341935Y-137287052D02*
X100360683Y-137249556D01*
X100360683Y-137249556D02*
X100398178Y-137212061D01*
X100398178Y-137212061D02*
X100454421Y-137193313D01*
X100454421Y-137193313D02*
X100491916Y-137193313D01*
X100491916Y-137193313D02*
X100548159Y-137212061D01*
X100548159Y-137212061D02*
X100566907Y-137230809D01*
X100941860Y-137587014D02*
X100716888Y-137587014D01*
X100829374Y-137587014D02*
X100829374Y-137193313D01*
X100829374Y-137193313D02*
X100791879Y-137249556D01*
X100791879Y-137249556D02*
X100754384Y-137287052D01*
X100754384Y-137287052D02*
X100716888Y-137305799D01*
X101091841Y-137230809D02*
X101110589Y-137212061D01*
X101110589Y-137212061D02*
X101148084Y-137193313D01*
X101148084Y-137193313D02*
X101241823Y-137193313D01*
X101241823Y-137193313D02*
X101279318Y-137212061D01*
X101279318Y-137212061D02*
X101298066Y-137230809D01*
X101298066Y-137230809D02*
X101316813Y-137268304D01*
X101316813Y-137268304D02*
X101316813Y-137305799D01*
X101316813Y-137305799D02*
X101298066Y-137362042D01*
X101298066Y-137362042D02*
X101073094Y-137587014D01*
X101073094Y-137587014D02*
X101316813Y-137587014D01*
X88236907Y-139454519D02*
X88218159Y-139473267D01*
X88218159Y-139473267D02*
X88161916Y-139492014D01*
X88161916Y-139492014D02*
X88124421Y-139492014D01*
X88124421Y-139492014D02*
X88068178Y-139473267D01*
X88068178Y-139473267D02*
X88030683Y-139435771D01*
X88030683Y-139435771D02*
X88011935Y-139398276D01*
X88011935Y-139398276D02*
X87993187Y-139323285D01*
X87993187Y-139323285D02*
X87993187Y-139267042D01*
X87993187Y-139267042D02*
X88011935Y-139192052D01*
X88011935Y-139192052D02*
X88030683Y-139154556D01*
X88030683Y-139154556D02*
X88068178Y-139117061D01*
X88068178Y-139117061D02*
X88124421Y-139098313D01*
X88124421Y-139098313D02*
X88161916Y-139098313D01*
X88161916Y-139098313D02*
X88218159Y-139117061D01*
X88218159Y-139117061D02*
X88236907Y-139135809D01*
X88611860Y-139492014D02*
X88386888Y-139492014D01*
X88499374Y-139492014D02*
X88499374Y-139098313D01*
X88499374Y-139098313D02*
X88461879Y-139154556D01*
X88461879Y-139154556D02*
X88424384Y-139192052D01*
X88424384Y-139192052D02*
X88386888Y-139210799D01*
X88986813Y-139492014D02*
X88761841Y-139492014D01*
X88874327Y-139492014D02*
X88874327Y-139098313D01*
X88874327Y-139098313D02*
X88836832Y-139154556D01*
X88836832Y-139154556D02*
X88799337Y-139192052D01*
X88799337Y-139192052D02*
X88761841Y-139210799D01*
X73741907Y-142629519D02*
X73723159Y-142648267D01*
X73723159Y-142648267D02*
X73666916Y-142667014D01*
X73666916Y-142667014D02*
X73629421Y-142667014D01*
X73629421Y-142667014D02*
X73573178Y-142648267D01*
X73573178Y-142648267D02*
X73535683Y-142610771D01*
X73535683Y-142610771D02*
X73516935Y-142573276D01*
X73516935Y-142573276D02*
X73498187Y-142498285D01*
X73498187Y-142498285D02*
X73498187Y-142442042D01*
X73498187Y-142442042D02*
X73516935Y-142367052D01*
X73516935Y-142367052D02*
X73535683Y-142329556D01*
X73535683Y-142329556D02*
X73573178Y-142292061D01*
X73573178Y-142292061D02*
X73629421Y-142273313D01*
X73629421Y-142273313D02*
X73666916Y-142273313D01*
X73666916Y-142273313D02*
X73723159Y-142292061D01*
X73723159Y-142292061D02*
X73741907Y-142310809D01*
X74116860Y-142667014D02*
X73891888Y-142667014D01*
X74004374Y-142667014D02*
X74004374Y-142273313D01*
X74004374Y-142273313D02*
X73966879Y-142329556D01*
X73966879Y-142329556D02*
X73929384Y-142367052D01*
X73929384Y-142367052D02*
X73891888Y-142385799D01*
X74360580Y-142273313D02*
X74398075Y-142273313D01*
X74398075Y-142273313D02*
X74435570Y-142292061D01*
X74435570Y-142292061D02*
X74454318Y-142310809D01*
X74454318Y-142310809D02*
X74473066Y-142348304D01*
X74473066Y-142348304D02*
X74491813Y-142423295D01*
X74491813Y-142423295D02*
X74491813Y-142517033D01*
X74491813Y-142517033D02*
X74473066Y-142592024D01*
X74473066Y-142592024D02*
X74454318Y-142629519D01*
X74454318Y-142629519D02*
X74435570Y-142648267D01*
X74435570Y-142648267D02*
X74398075Y-142667014D01*
X74398075Y-142667014D02*
X74360580Y-142667014D01*
X74360580Y-142667014D02*
X74323084Y-142648267D01*
X74323084Y-142648267D02*
X74304337Y-142629519D01*
X74304337Y-142629519D02*
X74285589Y-142592024D01*
X74285589Y-142592024D02*
X74266841Y-142517033D01*
X74266841Y-142517033D02*
X74266841Y-142423295D01*
X74266841Y-142423295D02*
X74285589Y-142348304D01*
X74285589Y-142348304D02*
X74304337Y-142310809D01*
X74304337Y-142310809D02*
X74323084Y-142292061D01*
X74323084Y-142292061D02*
X74360580Y-142273313D01*
D12*
G04 #@! TO.C,D17*
X123353900Y-165135000D02*
X129253900Y-165135000D01*
X123353900Y-169035000D02*
X129253900Y-169035000D01*
X129253900Y-169035000D02*
X129253900Y-167960000D01*
G04 #@! TO.C,D4*
X111657200Y-77586280D02*
X117557200Y-77586280D01*
X111657200Y-81486280D02*
X117557200Y-81486280D01*
X117557200Y-81486280D02*
X117557200Y-80411280D01*
G04 #@! TO.C,D3*
X105076060Y-64225880D02*
X110976060Y-64225880D01*
X105076060Y-68125880D02*
X110976060Y-68125880D01*
X110976060Y-68125880D02*
X110976060Y-67050880D01*
G04 #@! TO.C,D8*
X89135020Y-104070860D02*
X95035020Y-104070860D01*
X89135020Y-107970860D02*
X95035020Y-107970860D01*
X95035020Y-107970860D02*
X95035020Y-106895860D01*
G04 #@! TO.C,D2*
X101177160Y-59006180D02*
X107077160Y-59006180D01*
X101177160Y-62906180D02*
X107077160Y-62906180D01*
X107077160Y-62906180D02*
X107077160Y-61831180D01*
G04 #@! TO.C,D18*
X129253900Y-173754320D02*
X129253900Y-172679320D01*
X123353900Y-173754320D02*
X129253900Y-173754320D01*
X123353900Y-169854320D02*
X129253900Y-169854320D01*
G04 #@! TO.C,D16*
X129253900Y-164318220D02*
X129253900Y-163243220D01*
X123353900Y-164318220D02*
X129253900Y-164318220D01*
X123353900Y-160418220D02*
X129253900Y-160418220D01*
D13*
G04 #@! TO.C,R3*
X111079350Y-51807100D02*
X112140650Y-51807100D01*
X112140650Y-49952900D02*
X111079350Y-49952900D01*
D12*
G04 #@! TO.C,D15*
X80295820Y-149945800D02*
X86195820Y-149945800D01*
X80295820Y-153845800D02*
X86195820Y-153845800D01*
X86195820Y-153845800D02*
X86195820Y-152770800D01*
G04 #@! TO.C,D14*
X99436840Y-152570720D02*
X99436840Y-151495720D01*
X93536840Y-152570720D02*
X99436840Y-152570720D01*
X93536840Y-148670720D02*
X99436840Y-148670720D01*
G04 #@! TO.C,D13*
X108951680Y-152471660D02*
X108951680Y-151396660D01*
X103051680Y-152471660D02*
X108951680Y-152471660D01*
X103051680Y-148571660D02*
X108951680Y-148571660D01*
G04 #@! TO.C,D12*
X97806580Y-133184340D02*
X103706580Y-133184340D01*
X97806580Y-137084340D02*
X103706580Y-137084340D01*
X103706580Y-137084340D02*
X103706580Y-136009340D01*
G04 #@! TO.C,D11*
X85642520Y-134934400D02*
X91542520Y-134934400D01*
X85642520Y-138834400D02*
X91542520Y-138834400D01*
X91542520Y-138834400D02*
X91542520Y-137759400D01*
G04 #@! TO.C,D10*
X77257560Y-141887480D02*
X77257560Y-140812480D01*
X71357560Y-141887480D02*
X77257560Y-141887480D01*
X71357560Y-137987480D02*
X77257560Y-137987480D01*
G04 #@! TO.C,D9*
X77372280Y-123031960D02*
X83272280Y-123031960D01*
X77372280Y-126931960D02*
X83272280Y-126931960D01*
X83272280Y-126931960D02*
X83272280Y-125856960D01*
G04 #@! TO.C,D7*
X91621680Y-100004320D02*
X97521680Y-100004320D01*
X91621680Y-103904320D02*
X97521680Y-103904320D01*
X97521680Y-103904320D02*
X97521680Y-102829320D01*
G04 #@! TO.C,D6*
X97572900Y-86981740D02*
X103472900Y-86981740D01*
X97572900Y-90881740D02*
X103472900Y-90881740D01*
X103472900Y-90881740D02*
X103472900Y-89806740D01*
G04 #@! TO.C,D5*
X121252900Y-87092060D02*
X121252900Y-86017060D01*
X115352900Y-87092060D02*
X121252900Y-87092060D01*
X115352900Y-83192060D02*
X121252900Y-83192060D01*
G04 #@! TO.C,D1*
X111720280Y-57196260D02*
X111720280Y-56121260D01*
X105820280Y-57196260D02*
X111720280Y-57196260D01*
X105820280Y-53296260D02*
X111720280Y-53296260D01*
G04 #@! TD*
%LPC*%
D14*
G04 #@! TO.C,REF\u002A\u002A*
X54290000Y-140470000D03*
G04 #@! TD*
G04 #@! TO.C,REF\u002A\u002A*
X99820000Y-179770000D03*
G04 #@! TD*
G04 #@! TO.C,REF\u002A\u002A*
X147460000Y-36340000D03*
G04 #@! TD*
D15*
G04 #@! TO.C,R1*
X67050000Y-56750000D03*
D16*
X59430000Y-56750000D03*
G04 #@! TD*
D17*
G04 #@! TO.C,J1*
X75310000Y-40805000D03*
D18*
X77850000Y-40805000D03*
X75310000Y-43345000D03*
X77850000Y-43345000D03*
X75310000Y-45885000D03*
X77850000Y-45885000D03*
X75310000Y-48425000D03*
X77850000Y-48425000D03*
X75310000Y-50965000D03*
X77850000Y-50965000D03*
X75310000Y-53505000D03*
X77850000Y-53505000D03*
X75310000Y-56045000D03*
X77850000Y-56045000D03*
X75310000Y-58585000D03*
X77850000Y-58585000D03*
X75310000Y-61125000D03*
X77850000Y-61125000D03*
X75310000Y-63665000D03*
X77850000Y-63665000D03*
X75310000Y-66205000D03*
X77850000Y-66205000D03*
X75310000Y-68745000D03*
X77850000Y-68745000D03*
X75310000Y-71285000D03*
X77850000Y-71285000D03*
X75310000Y-73825000D03*
X77850000Y-73825000D03*
X75310000Y-76365000D03*
X77850000Y-76365000D03*
X75310000Y-78905000D03*
X77850000Y-78905000D03*
X75310000Y-81445000D03*
X77850000Y-81445000D03*
X75310000Y-83985000D03*
X77850000Y-83985000D03*
X75310000Y-86525000D03*
X77850000Y-86525000D03*
X75310000Y-89065000D03*
X77850000Y-89065000D03*
G04 #@! TD*
D19*
G04 #@! TO.C,*
X76570000Y-35945000D03*
G04 #@! TD*
G04 #@! TO.C,*
X53570000Y-93945000D03*
G04 #@! TD*
G04 #@! TO.C,*
X76570000Y-93945000D03*
G04 #@! TD*
G04 #@! TO.C,*
X53570000Y-35945000D03*
G04 #@! TD*
D20*
G04 #@! TO.C,D17*
X124553900Y-166210000D03*
X124553900Y-167960000D03*
X128053900Y-167960000D03*
X128053900Y-166210000D03*
G04 #@! TD*
G04 #@! TO.C,D4*
X112857200Y-78661280D03*
X112857200Y-80411280D03*
X116357200Y-80411280D03*
X116357200Y-78661280D03*
G04 #@! TD*
G04 #@! TO.C,D3*
X106276060Y-65300880D03*
X106276060Y-67050880D03*
X109776060Y-67050880D03*
X109776060Y-65300880D03*
G04 #@! TD*
D21*
G04 #@! TO.C,U1*
X84305000Y-43895000D03*
X84305000Y-46435000D03*
X84305000Y-48975000D03*
X84305000Y-51515000D03*
X84305000Y-54055000D03*
X84305000Y-56595000D03*
X84305000Y-59135000D03*
X91925000Y-59135000D03*
X91925000Y-56595000D03*
X91925000Y-54055000D03*
X91925000Y-51515000D03*
X91925000Y-48975000D03*
X91925000Y-46435000D03*
D22*
X91925000Y-43895000D03*
G04 #@! TD*
D20*
G04 #@! TO.C,D8*
X90335020Y-105145860D03*
X90335020Y-106895860D03*
X93835020Y-106895860D03*
X93835020Y-105145860D03*
G04 #@! TD*
G04 #@! TO.C,D2*
X102377160Y-60081180D03*
X102377160Y-61831180D03*
X105877160Y-61831180D03*
X105877160Y-60081180D03*
G04 #@! TD*
G04 #@! TO.C,D18*
X128053900Y-170929320D03*
X128053900Y-172679320D03*
X124553900Y-172679320D03*
X124553900Y-170929320D03*
G04 #@! TD*
G04 #@! TO.C,D16*
X128053900Y-161493220D03*
X128053900Y-163243220D03*
X124553900Y-163243220D03*
X124553900Y-161493220D03*
G04 #@! TD*
D23*
G04 #@! TO.C,C18*
X133355000Y-172165000D03*
X131775000Y-172165000D03*
G04 #@! TD*
D24*
G04 #@! TO.C,C17*
X130925000Y-167875000D03*
X130925000Y-166295000D03*
G04 #@! TD*
G04 #@! TO.C,C16*
X130925000Y-162950000D03*
X130925000Y-161370000D03*
G04 #@! TD*
D25*
G04 #@! TO.C,R3*
X110213000Y-50880000D03*
X113007000Y-50880000D03*
G04 #@! TD*
D26*
G04 #@! TO.C,J5*
X101450000Y-36910000D03*
G04 #@! TD*
G04 #@! TO.C,J4*
X108435000Y-36910000D03*
G04 #@! TD*
G04 #@! TO.C,J3*
X53150000Y-69490000D03*
G04 #@! TD*
G04 #@! TO.C,J2*
X53150000Y-56790000D03*
G04 #@! TD*
D20*
G04 #@! TO.C,D15*
X81495820Y-151020800D03*
X81495820Y-152770800D03*
X84995820Y-152770800D03*
X84995820Y-151020800D03*
G04 #@! TD*
G04 #@! TO.C,D14*
X98236840Y-149745720D03*
X98236840Y-151495720D03*
X94736840Y-151495720D03*
X94736840Y-149745720D03*
G04 #@! TD*
G04 #@! TO.C,D13*
X107751680Y-149646660D03*
X107751680Y-151396660D03*
X104251680Y-151396660D03*
X104251680Y-149646660D03*
G04 #@! TD*
G04 #@! TO.C,D12*
X99006580Y-134259340D03*
X99006580Y-136009340D03*
X102506580Y-136009340D03*
X102506580Y-134259340D03*
G04 #@! TD*
G04 #@! TO.C,D11*
X86842520Y-136009400D03*
X86842520Y-137759400D03*
X90342520Y-137759400D03*
X90342520Y-136009400D03*
G04 #@! TD*
G04 #@! TO.C,D10*
X76057560Y-139062480D03*
X76057560Y-140812480D03*
X72557560Y-140812480D03*
X72557560Y-139062480D03*
G04 #@! TD*
G04 #@! TO.C,D9*
X78572280Y-124106960D03*
X78572280Y-125856960D03*
X82072280Y-125856960D03*
X82072280Y-124106960D03*
G04 #@! TD*
G04 #@! TO.C,D7*
X92821680Y-101079320D03*
X92821680Y-102829320D03*
X96321680Y-102829320D03*
X96321680Y-101079320D03*
G04 #@! TD*
G04 #@! TO.C,D6*
X98772900Y-88056740D03*
X98772900Y-89806740D03*
X102272900Y-89806740D03*
X102272900Y-88056740D03*
G04 #@! TD*
G04 #@! TO.C,D5*
X120052900Y-84267060D03*
X120052900Y-86017060D03*
X116552900Y-86017060D03*
X116552900Y-84267060D03*
G04 #@! TD*
G04 #@! TO.C,D1*
X110520280Y-54371260D03*
X110520280Y-56121260D03*
X107020280Y-56121260D03*
X107020280Y-54371260D03*
G04 #@! TD*
D27*
G04 #@! TO.C,C15*
X82725000Y-155020000D03*
X84305000Y-155020000D03*
G04 #@! TD*
G04 #@! TO.C,C14*
X95365000Y-153750000D03*
X96945000Y-153750000D03*
G04 #@! TD*
G04 #@! TO.C,C13*
X105370000Y-153750000D03*
X106950000Y-153750000D03*
G04 #@! TD*
D15*
G04 #@! TO.C,C19*
X107165000Y-45800000D03*
X102165000Y-45800000D03*
G04 #@! TD*
D27*
G04 #@! TO.C,C3*
X107645000Y-69295000D03*
X109225000Y-69295000D03*
G04 #@! TD*
G04 #@! TO.C,C2*
X108915000Y-61675000D03*
X110495000Y-61675000D03*
G04 #@! TD*
G04 #@! TO.C,C1*
X108760000Y-58500000D03*
X110340000Y-58500000D03*
G04 #@! TD*
G04 #@! TO.C,C6*
X100025000Y-92155000D03*
X101605000Y-92155000D03*
G04 #@! TD*
D23*
G04 #@! TO.C,C5*
X119385000Y-88345000D03*
X117805000Y-88345000D03*
G04 #@! TD*
G04 #@! TO.C,C4*
X113035000Y-83265000D03*
X111455000Y-83265000D03*
G04 #@! TD*
D27*
G04 #@! TO.C,C9*
X79335000Y-128350000D03*
X80915000Y-128350000D03*
G04 #@! TD*
G04 #@! TO.C,C8*
X93350000Y-109300000D03*
X91770000Y-109300000D03*
G04 #@! TD*
G04 #@! TO.C,C7*
X98600000Y-104220000D03*
X100180000Y-104220000D03*
G04 #@! TD*
D23*
G04 #@! TO.C,C12*
X101870000Y-138510000D03*
X100290000Y-138510000D03*
G04 #@! TD*
G04 #@! TO.C,C11*
X89540000Y-140415000D03*
X87960000Y-140415000D03*
G04 #@! TD*
G04 #@! TO.C,C10*
X75045000Y-143590000D03*
X73465000Y-143590000D03*
G04 #@! TD*
%LPD*%
M02*
