%TF.GenerationSoftware,KiCad,Pcbnew,7.0.7*%
%TF.CreationDate,2023-09-07T11:23:37-07:00*%
%TF.ProjectId,bivariate-bivalve,62697661-7269-4617-9465-2d626976616c,rev?*%
%TF.SameCoordinates,Original*%
%TF.FileFunction,Drillmap*%
%TF.FilePolarity,Positive*%
%FSLAX45Y45*%
G04 Gerber Fmt 4.5, Leading zero omitted, Abs format (unit mm)*
G04 Created by KiCad (PCBNEW 7.0.7) date 2023-09-07 11:23:37*
%MOMM*%
%LPD*%
G01*
G04 APERTURE LIST*
%ADD10C,0.100000*%
%ADD11C,0.200000*%
%ADD12C,0.275000*%
G04 APERTURE END LIST*
D10*
X5000000Y-3597000D02*
X5001320Y-18120014D01*
X14810000Y-3248000D02*
X5365986Y-3246320D01*
X15160680Y-3613986D02*
X15162000Y-18135000D01*
X5352000Y-18486000D02*
X14796014Y-18485680D01*
X5001320Y-18120014D02*
G75*
G03*
X5352000Y-18486000I350680J-14986D01*
G01*
X14796014Y-18485680D02*
G75*
G03*
X15162000Y-18135000I14986J350680D01*
G01*
X15160680Y-3613986D02*
G75*
G03*
X14810000Y-3248000I-350680J14986D01*
G01*
X5365986Y-3246320D02*
G75*
G03*
X5000000Y-3597000I-14986J-350680D01*
G01*
D11*
D10*
X5379000Y-13997000D02*
X5479000Y-14097000D01*
X5479000Y-13997000D02*
X5379000Y-14097000D01*
X9932000Y-17927000D02*
X10032000Y-18027000D01*
X10032000Y-17927000D02*
X9932000Y-18027000D01*
X14696000Y-3584000D02*
X14796000Y-3684000D01*
X14796000Y-3584000D02*
X14696000Y-3684000D01*
D12*
X5494500Y-3594500D02*
G75*
G03*
X5494500Y-3594500I-137500J0D01*
G01*
X5494500Y-9394500D02*
G75*
G03*
X5494500Y-9394500I-137500J0D01*
G01*
X7794500Y-3594500D02*
G75*
G03*
X7794500Y-3594500I-137500J0D01*
G01*
X7794500Y-9394500D02*
G75*
G03*
X7794500Y-9394500I-137500J0D01*
G01*
D11*
X5255777Y-18802484D02*
X5255777Y-18602484D01*
X5255777Y-18602484D02*
X5303396Y-18602484D01*
X5303396Y-18602484D02*
X5331967Y-18612008D01*
X5331967Y-18612008D02*
X5351015Y-18631055D01*
X5351015Y-18631055D02*
X5360539Y-18650103D01*
X5360539Y-18650103D02*
X5370063Y-18688198D01*
X5370063Y-18688198D02*
X5370063Y-18716770D01*
X5370063Y-18716770D02*
X5360539Y-18754865D01*
X5360539Y-18754865D02*
X5351015Y-18773912D01*
X5351015Y-18773912D02*
X5331967Y-18792960D01*
X5331967Y-18792960D02*
X5303396Y-18802484D01*
X5303396Y-18802484D02*
X5255777Y-18802484D01*
X5455777Y-18802484D02*
X5455777Y-18669150D01*
X5455777Y-18707246D02*
X5465301Y-18688198D01*
X5465301Y-18688198D02*
X5474824Y-18678674D01*
X5474824Y-18678674D02*
X5493872Y-18669150D01*
X5493872Y-18669150D02*
X5512920Y-18669150D01*
X5579586Y-18802484D02*
X5579586Y-18669150D01*
X5579586Y-18602484D02*
X5570063Y-18612008D01*
X5570063Y-18612008D02*
X5579586Y-18621531D01*
X5579586Y-18621531D02*
X5589110Y-18612008D01*
X5589110Y-18612008D02*
X5579586Y-18602484D01*
X5579586Y-18602484D02*
X5579586Y-18621531D01*
X5703396Y-18802484D02*
X5684348Y-18792960D01*
X5684348Y-18792960D02*
X5674824Y-18773912D01*
X5674824Y-18773912D02*
X5674824Y-18602484D01*
X5808158Y-18802484D02*
X5789110Y-18792960D01*
X5789110Y-18792960D02*
X5779586Y-18773912D01*
X5779586Y-18773912D02*
X5779586Y-18602484D01*
X6036729Y-18802484D02*
X6036729Y-18602484D01*
X6036729Y-18602484D02*
X6103396Y-18745341D01*
X6103396Y-18745341D02*
X6170062Y-18602484D01*
X6170062Y-18602484D02*
X6170062Y-18802484D01*
X6351015Y-18802484D02*
X6351015Y-18697722D01*
X6351015Y-18697722D02*
X6341491Y-18678674D01*
X6341491Y-18678674D02*
X6322443Y-18669150D01*
X6322443Y-18669150D02*
X6284348Y-18669150D01*
X6284348Y-18669150D02*
X6265301Y-18678674D01*
X6351015Y-18792960D02*
X6331967Y-18802484D01*
X6331967Y-18802484D02*
X6284348Y-18802484D01*
X6284348Y-18802484D02*
X6265301Y-18792960D01*
X6265301Y-18792960D02*
X6255777Y-18773912D01*
X6255777Y-18773912D02*
X6255777Y-18754865D01*
X6255777Y-18754865D02*
X6265301Y-18735817D01*
X6265301Y-18735817D02*
X6284348Y-18726293D01*
X6284348Y-18726293D02*
X6331967Y-18726293D01*
X6331967Y-18726293D02*
X6351015Y-18716770D01*
X6446253Y-18669150D02*
X6446253Y-18869150D01*
X6446253Y-18678674D02*
X6465301Y-18669150D01*
X6465301Y-18669150D02*
X6503396Y-18669150D01*
X6503396Y-18669150D02*
X6522443Y-18678674D01*
X6522443Y-18678674D02*
X6531967Y-18688198D01*
X6531967Y-18688198D02*
X6541491Y-18707246D01*
X6541491Y-18707246D02*
X6541491Y-18764389D01*
X6541491Y-18764389D02*
X6531967Y-18783436D01*
X6531967Y-18783436D02*
X6522443Y-18792960D01*
X6522443Y-18792960D02*
X6503396Y-18802484D01*
X6503396Y-18802484D02*
X6465301Y-18802484D01*
X6465301Y-18802484D02*
X6446253Y-18792960D01*
X6627205Y-18783436D02*
X6636729Y-18792960D01*
X6636729Y-18792960D02*
X6627205Y-18802484D01*
X6627205Y-18802484D02*
X6617682Y-18792960D01*
X6617682Y-18792960D02*
X6627205Y-18783436D01*
X6627205Y-18783436D02*
X6627205Y-18802484D01*
X6627205Y-18678674D02*
X6636729Y-18688198D01*
X6636729Y-18688198D02*
X6627205Y-18697722D01*
X6627205Y-18697722D02*
X6617682Y-18688198D01*
X6617682Y-18688198D02*
X6627205Y-18678674D01*
X6627205Y-18678674D02*
X6627205Y-18697722D01*
D10*
X4895000Y-19081000D02*
X4995000Y-19181000D01*
X4995000Y-19081000D02*
X4895000Y-19181000D01*
D11*
X5360539Y-19222484D02*
X5246253Y-19222484D01*
X5303396Y-19222484D02*
X5303396Y-19022484D01*
X5303396Y-19022484D02*
X5284348Y-19051055D01*
X5284348Y-19051055D02*
X5265301Y-19070103D01*
X5265301Y-19070103D02*
X5246253Y-19079627D01*
X5446253Y-19203436D02*
X5455777Y-19212960D01*
X5455777Y-19212960D02*
X5446253Y-19222484D01*
X5446253Y-19222484D02*
X5436729Y-19212960D01*
X5436729Y-19212960D02*
X5446253Y-19203436D01*
X5446253Y-19203436D02*
X5446253Y-19222484D01*
X5579586Y-19022484D02*
X5598634Y-19022484D01*
X5598634Y-19022484D02*
X5617682Y-19032008D01*
X5617682Y-19032008D02*
X5627205Y-19041531D01*
X5627205Y-19041531D02*
X5636729Y-19060579D01*
X5636729Y-19060579D02*
X5646253Y-19098674D01*
X5646253Y-19098674D02*
X5646253Y-19146293D01*
X5646253Y-19146293D02*
X5636729Y-19184389D01*
X5636729Y-19184389D02*
X5627205Y-19203436D01*
X5627205Y-19203436D02*
X5617682Y-19212960D01*
X5617682Y-19212960D02*
X5598634Y-19222484D01*
X5598634Y-19222484D02*
X5579586Y-19222484D01*
X5579586Y-19222484D02*
X5560539Y-19212960D01*
X5560539Y-19212960D02*
X5551015Y-19203436D01*
X5551015Y-19203436D02*
X5541491Y-19184389D01*
X5541491Y-19184389D02*
X5531967Y-19146293D01*
X5531967Y-19146293D02*
X5531967Y-19098674D01*
X5531967Y-19098674D02*
X5541491Y-19060579D01*
X5541491Y-19060579D02*
X5551015Y-19041531D01*
X5551015Y-19041531D02*
X5560539Y-19032008D01*
X5560539Y-19032008D02*
X5579586Y-19022484D01*
X5770062Y-19022484D02*
X5789110Y-19022484D01*
X5789110Y-19022484D02*
X5808158Y-19032008D01*
X5808158Y-19032008D02*
X5817682Y-19041531D01*
X5817682Y-19041531D02*
X5827205Y-19060579D01*
X5827205Y-19060579D02*
X5836729Y-19098674D01*
X5836729Y-19098674D02*
X5836729Y-19146293D01*
X5836729Y-19146293D02*
X5827205Y-19184389D01*
X5827205Y-19184389D02*
X5817682Y-19203436D01*
X5817682Y-19203436D02*
X5808158Y-19212960D01*
X5808158Y-19212960D02*
X5789110Y-19222484D01*
X5789110Y-19222484D02*
X5770062Y-19222484D01*
X5770062Y-19222484D02*
X5751015Y-19212960D01*
X5751015Y-19212960D02*
X5741491Y-19203436D01*
X5741491Y-19203436D02*
X5731967Y-19184389D01*
X5731967Y-19184389D02*
X5722443Y-19146293D01*
X5722443Y-19146293D02*
X5722443Y-19098674D01*
X5722443Y-19098674D02*
X5731967Y-19060579D01*
X5731967Y-19060579D02*
X5741491Y-19041531D01*
X5741491Y-19041531D02*
X5751015Y-19032008D01*
X5751015Y-19032008D02*
X5770062Y-19022484D01*
X5960539Y-19022484D02*
X5979586Y-19022484D01*
X5979586Y-19022484D02*
X5998634Y-19032008D01*
X5998634Y-19032008D02*
X6008158Y-19041531D01*
X6008158Y-19041531D02*
X6017682Y-19060579D01*
X6017682Y-19060579D02*
X6027205Y-19098674D01*
X6027205Y-19098674D02*
X6027205Y-19146293D01*
X6027205Y-19146293D02*
X6017682Y-19184389D01*
X6017682Y-19184389D02*
X6008158Y-19203436D01*
X6008158Y-19203436D02*
X5998634Y-19212960D01*
X5998634Y-19212960D02*
X5979586Y-19222484D01*
X5979586Y-19222484D02*
X5960539Y-19222484D01*
X5960539Y-19222484D02*
X5941491Y-19212960D01*
X5941491Y-19212960D02*
X5931967Y-19203436D01*
X5931967Y-19203436D02*
X5922443Y-19184389D01*
X5922443Y-19184389D02*
X5912920Y-19146293D01*
X5912920Y-19146293D02*
X5912920Y-19098674D01*
X5912920Y-19098674D02*
X5922443Y-19060579D01*
X5922443Y-19060579D02*
X5931967Y-19041531D01*
X5931967Y-19041531D02*
X5941491Y-19032008D01*
X5941491Y-19032008D02*
X5960539Y-19022484D01*
X6112920Y-19222484D02*
X6112920Y-19089150D01*
X6112920Y-19108198D02*
X6122443Y-19098674D01*
X6122443Y-19098674D02*
X6141491Y-19089150D01*
X6141491Y-19089150D02*
X6170063Y-19089150D01*
X6170063Y-19089150D02*
X6189110Y-19098674D01*
X6189110Y-19098674D02*
X6198634Y-19117722D01*
X6198634Y-19117722D02*
X6198634Y-19222484D01*
X6198634Y-19117722D02*
X6208158Y-19098674D01*
X6208158Y-19098674D02*
X6227205Y-19089150D01*
X6227205Y-19089150D02*
X6255777Y-19089150D01*
X6255777Y-19089150D02*
X6274824Y-19098674D01*
X6274824Y-19098674D02*
X6284348Y-19117722D01*
X6284348Y-19117722D02*
X6284348Y-19222484D01*
X6379586Y-19222484D02*
X6379586Y-19089150D01*
X6379586Y-19108198D02*
X6389110Y-19098674D01*
X6389110Y-19098674D02*
X6408158Y-19089150D01*
X6408158Y-19089150D02*
X6436729Y-19089150D01*
X6436729Y-19089150D02*
X6455777Y-19098674D01*
X6455777Y-19098674D02*
X6465301Y-19117722D01*
X6465301Y-19117722D02*
X6465301Y-19222484D01*
X6465301Y-19117722D02*
X6474824Y-19098674D01*
X6474824Y-19098674D02*
X6493872Y-19089150D01*
X6493872Y-19089150D02*
X6522443Y-19089150D01*
X6522443Y-19089150D02*
X6541491Y-19098674D01*
X6541491Y-19098674D02*
X6551015Y-19117722D01*
X6551015Y-19117722D02*
X6551015Y-19222484D01*
X6941491Y-19012960D02*
X6770063Y-19270103D01*
X7198634Y-19022484D02*
X7217682Y-19022484D01*
X7217682Y-19022484D02*
X7236729Y-19032008D01*
X7236729Y-19032008D02*
X7246253Y-19041531D01*
X7246253Y-19041531D02*
X7255777Y-19060579D01*
X7255777Y-19060579D02*
X7265301Y-19098674D01*
X7265301Y-19098674D02*
X7265301Y-19146293D01*
X7265301Y-19146293D02*
X7255777Y-19184389D01*
X7255777Y-19184389D02*
X7246253Y-19203436D01*
X7246253Y-19203436D02*
X7236729Y-19212960D01*
X7236729Y-19212960D02*
X7217682Y-19222484D01*
X7217682Y-19222484D02*
X7198634Y-19222484D01*
X7198634Y-19222484D02*
X7179586Y-19212960D01*
X7179586Y-19212960D02*
X7170063Y-19203436D01*
X7170063Y-19203436D02*
X7160539Y-19184389D01*
X7160539Y-19184389D02*
X7151015Y-19146293D01*
X7151015Y-19146293D02*
X7151015Y-19098674D01*
X7151015Y-19098674D02*
X7160539Y-19060579D01*
X7160539Y-19060579D02*
X7170063Y-19041531D01*
X7170063Y-19041531D02*
X7179586Y-19032008D01*
X7179586Y-19032008D02*
X7198634Y-19022484D01*
X7351015Y-19203436D02*
X7360539Y-19212960D01*
X7360539Y-19212960D02*
X7351015Y-19222484D01*
X7351015Y-19222484D02*
X7341491Y-19212960D01*
X7341491Y-19212960D02*
X7351015Y-19203436D01*
X7351015Y-19203436D02*
X7351015Y-19222484D01*
X7484348Y-19022484D02*
X7503396Y-19022484D01*
X7503396Y-19022484D02*
X7522444Y-19032008D01*
X7522444Y-19032008D02*
X7531967Y-19041531D01*
X7531967Y-19041531D02*
X7541491Y-19060579D01*
X7541491Y-19060579D02*
X7551015Y-19098674D01*
X7551015Y-19098674D02*
X7551015Y-19146293D01*
X7551015Y-19146293D02*
X7541491Y-19184389D01*
X7541491Y-19184389D02*
X7531967Y-19203436D01*
X7531967Y-19203436D02*
X7522444Y-19212960D01*
X7522444Y-19212960D02*
X7503396Y-19222484D01*
X7503396Y-19222484D02*
X7484348Y-19222484D01*
X7484348Y-19222484D02*
X7465301Y-19212960D01*
X7465301Y-19212960D02*
X7455777Y-19203436D01*
X7455777Y-19203436D02*
X7446253Y-19184389D01*
X7446253Y-19184389D02*
X7436729Y-19146293D01*
X7436729Y-19146293D02*
X7436729Y-19098674D01*
X7436729Y-19098674D02*
X7446253Y-19060579D01*
X7446253Y-19060579D02*
X7455777Y-19041531D01*
X7455777Y-19041531D02*
X7465301Y-19032008D01*
X7465301Y-19032008D02*
X7484348Y-19022484D01*
X7617682Y-19022484D02*
X7741491Y-19022484D01*
X7741491Y-19022484D02*
X7674825Y-19098674D01*
X7674825Y-19098674D02*
X7703396Y-19098674D01*
X7703396Y-19098674D02*
X7722444Y-19108198D01*
X7722444Y-19108198D02*
X7731967Y-19117722D01*
X7731967Y-19117722D02*
X7741491Y-19136770D01*
X7741491Y-19136770D02*
X7741491Y-19184389D01*
X7741491Y-19184389D02*
X7731967Y-19203436D01*
X7731967Y-19203436D02*
X7722444Y-19212960D01*
X7722444Y-19212960D02*
X7703396Y-19222484D01*
X7703396Y-19222484D02*
X7646253Y-19222484D01*
X7646253Y-19222484D02*
X7627206Y-19212960D01*
X7627206Y-19212960D02*
X7617682Y-19203436D01*
X7836729Y-19222484D02*
X7874825Y-19222484D01*
X7874825Y-19222484D02*
X7893872Y-19212960D01*
X7893872Y-19212960D02*
X7903396Y-19203436D01*
X7903396Y-19203436D02*
X7922444Y-19174865D01*
X7922444Y-19174865D02*
X7931967Y-19136770D01*
X7931967Y-19136770D02*
X7931967Y-19060579D01*
X7931967Y-19060579D02*
X7922444Y-19041531D01*
X7922444Y-19041531D02*
X7912920Y-19032008D01*
X7912920Y-19032008D02*
X7893872Y-19022484D01*
X7893872Y-19022484D02*
X7855777Y-19022484D01*
X7855777Y-19022484D02*
X7836729Y-19032008D01*
X7836729Y-19032008D02*
X7827206Y-19041531D01*
X7827206Y-19041531D02*
X7817682Y-19060579D01*
X7817682Y-19060579D02*
X7817682Y-19108198D01*
X7817682Y-19108198D02*
X7827206Y-19127246D01*
X7827206Y-19127246D02*
X7836729Y-19136770D01*
X7836729Y-19136770D02*
X7855777Y-19146293D01*
X7855777Y-19146293D02*
X7893872Y-19146293D01*
X7893872Y-19146293D02*
X7912920Y-19136770D01*
X7912920Y-19136770D02*
X7922444Y-19127246D01*
X7922444Y-19127246D02*
X7931967Y-19108198D01*
X8103396Y-19089150D02*
X8103396Y-19222484D01*
X8055777Y-19012960D02*
X8008158Y-19155817D01*
X8008158Y-19155817D02*
X8131967Y-19155817D01*
X8198634Y-19022484D02*
X8198634Y-19060579D01*
X8274825Y-19022484D02*
X8274825Y-19060579D01*
X8570063Y-19298674D02*
X8560539Y-19289150D01*
X8560539Y-19289150D02*
X8541491Y-19260579D01*
X8541491Y-19260579D02*
X8531968Y-19241531D01*
X8531968Y-19241531D02*
X8522444Y-19212960D01*
X8522444Y-19212960D02*
X8512920Y-19165341D01*
X8512920Y-19165341D02*
X8512920Y-19127246D01*
X8512920Y-19127246D02*
X8522444Y-19079627D01*
X8522444Y-19079627D02*
X8531968Y-19051055D01*
X8531968Y-19051055D02*
X8541491Y-19032008D01*
X8541491Y-19032008D02*
X8560539Y-19003436D01*
X8560539Y-19003436D02*
X8570063Y-18993912D01*
X8627206Y-19022484D02*
X8751015Y-19022484D01*
X8751015Y-19022484D02*
X8684349Y-19098674D01*
X8684349Y-19098674D02*
X8712920Y-19098674D01*
X8712920Y-19098674D02*
X8731968Y-19108198D01*
X8731968Y-19108198D02*
X8741491Y-19117722D01*
X8741491Y-19117722D02*
X8751015Y-19136770D01*
X8751015Y-19136770D02*
X8751015Y-19184389D01*
X8751015Y-19184389D02*
X8741491Y-19203436D01*
X8741491Y-19203436D02*
X8731968Y-19212960D01*
X8731968Y-19212960D02*
X8712920Y-19222484D01*
X8712920Y-19222484D02*
X8655777Y-19222484D01*
X8655777Y-19222484D02*
X8636730Y-19212960D01*
X8636730Y-19212960D02*
X8627206Y-19203436D01*
X8989111Y-19222484D02*
X8989111Y-19022484D01*
X9074825Y-19222484D02*
X9074825Y-19117722D01*
X9074825Y-19117722D02*
X9065301Y-19098674D01*
X9065301Y-19098674D02*
X9046253Y-19089150D01*
X9046253Y-19089150D02*
X9017682Y-19089150D01*
X9017682Y-19089150D02*
X8998634Y-19098674D01*
X8998634Y-19098674D02*
X8989111Y-19108198D01*
X9198634Y-19222484D02*
X9179587Y-19212960D01*
X9179587Y-19212960D02*
X9170063Y-19203436D01*
X9170063Y-19203436D02*
X9160539Y-19184389D01*
X9160539Y-19184389D02*
X9160539Y-19127246D01*
X9160539Y-19127246D02*
X9170063Y-19108198D01*
X9170063Y-19108198D02*
X9179587Y-19098674D01*
X9179587Y-19098674D02*
X9198634Y-19089150D01*
X9198634Y-19089150D02*
X9227206Y-19089150D01*
X9227206Y-19089150D02*
X9246253Y-19098674D01*
X9246253Y-19098674D02*
X9255777Y-19108198D01*
X9255777Y-19108198D02*
X9265301Y-19127246D01*
X9265301Y-19127246D02*
X9265301Y-19184389D01*
X9265301Y-19184389D02*
X9255777Y-19203436D01*
X9255777Y-19203436D02*
X9246253Y-19212960D01*
X9246253Y-19212960D02*
X9227206Y-19222484D01*
X9227206Y-19222484D02*
X9198634Y-19222484D01*
X9379587Y-19222484D02*
X9360539Y-19212960D01*
X9360539Y-19212960D02*
X9351015Y-19193912D01*
X9351015Y-19193912D02*
X9351015Y-19022484D01*
X9531968Y-19212960D02*
X9512920Y-19222484D01*
X9512920Y-19222484D02*
X9474825Y-19222484D01*
X9474825Y-19222484D02*
X9455777Y-19212960D01*
X9455777Y-19212960D02*
X9446253Y-19193912D01*
X9446253Y-19193912D02*
X9446253Y-19117722D01*
X9446253Y-19117722D02*
X9455777Y-19098674D01*
X9455777Y-19098674D02*
X9474825Y-19089150D01*
X9474825Y-19089150D02*
X9512920Y-19089150D01*
X9512920Y-19089150D02*
X9531968Y-19098674D01*
X9531968Y-19098674D02*
X9541492Y-19117722D01*
X9541492Y-19117722D02*
X9541492Y-19136770D01*
X9541492Y-19136770D02*
X9446253Y-19155817D01*
X9617682Y-19212960D02*
X9636730Y-19222484D01*
X9636730Y-19222484D02*
X9674825Y-19222484D01*
X9674825Y-19222484D02*
X9693873Y-19212960D01*
X9693873Y-19212960D02*
X9703396Y-19193912D01*
X9703396Y-19193912D02*
X9703396Y-19184389D01*
X9703396Y-19184389D02*
X9693873Y-19165341D01*
X9693873Y-19165341D02*
X9674825Y-19155817D01*
X9674825Y-19155817D02*
X9646253Y-19155817D01*
X9646253Y-19155817D02*
X9627206Y-19146293D01*
X9627206Y-19146293D02*
X9617682Y-19127246D01*
X9617682Y-19127246D02*
X9617682Y-19117722D01*
X9617682Y-19117722D02*
X9627206Y-19098674D01*
X9627206Y-19098674D02*
X9646253Y-19089150D01*
X9646253Y-19089150D02*
X9674825Y-19089150D01*
X9674825Y-19089150D02*
X9693873Y-19098674D01*
X9770063Y-19298674D02*
X9779587Y-19289150D01*
X9779587Y-19289150D02*
X9798634Y-19260579D01*
X9798634Y-19260579D02*
X9808158Y-19241531D01*
X9808158Y-19241531D02*
X9817682Y-19212960D01*
X9817682Y-19212960D02*
X9827206Y-19165341D01*
X9827206Y-19165341D02*
X9827206Y-19127246D01*
X9827206Y-19127246D02*
X9817682Y-19079627D01*
X9817682Y-19079627D02*
X9808158Y-19051055D01*
X9808158Y-19051055D02*
X9798634Y-19032008D01*
X9798634Y-19032008D02*
X9779587Y-19003436D01*
X9779587Y-19003436D02*
X9770063Y-18993912D01*
X10131968Y-19298674D02*
X10122444Y-19289150D01*
X10122444Y-19289150D02*
X10103396Y-19260579D01*
X10103396Y-19260579D02*
X10093873Y-19241531D01*
X10093873Y-19241531D02*
X10084349Y-19212960D01*
X10084349Y-19212960D02*
X10074825Y-19165341D01*
X10074825Y-19165341D02*
X10074825Y-19127246D01*
X10074825Y-19127246D02*
X10084349Y-19079627D01*
X10084349Y-19079627D02*
X10093873Y-19051055D01*
X10093873Y-19051055D02*
X10103396Y-19032008D01*
X10103396Y-19032008D02*
X10122444Y-19003436D01*
X10122444Y-19003436D02*
X10131968Y-18993912D01*
X10208158Y-19089150D02*
X10208158Y-19222484D01*
X10208158Y-19108198D02*
X10217682Y-19098674D01*
X10217682Y-19098674D02*
X10236730Y-19089150D01*
X10236730Y-19089150D02*
X10265301Y-19089150D01*
X10265301Y-19089150D02*
X10284349Y-19098674D01*
X10284349Y-19098674D02*
X10293873Y-19117722D01*
X10293873Y-19117722D02*
X10293873Y-19222484D01*
X10417682Y-19222484D02*
X10398634Y-19212960D01*
X10398634Y-19212960D02*
X10389111Y-19203436D01*
X10389111Y-19203436D02*
X10379587Y-19184389D01*
X10379587Y-19184389D02*
X10379587Y-19127246D01*
X10379587Y-19127246D02*
X10389111Y-19108198D01*
X10389111Y-19108198D02*
X10398634Y-19098674D01*
X10398634Y-19098674D02*
X10417682Y-19089150D01*
X10417682Y-19089150D02*
X10446254Y-19089150D01*
X10446254Y-19089150D02*
X10465301Y-19098674D01*
X10465301Y-19098674D02*
X10474825Y-19108198D01*
X10474825Y-19108198D02*
X10484349Y-19127246D01*
X10484349Y-19127246D02*
X10484349Y-19184389D01*
X10484349Y-19184389D02*
X10474825Y-19203436D01*
X10474825Y-19203436D02*
X10465301Y-19212960D01*
X10465301Y-19212960D02*
X10446254Y-19222484D01*
X10446254Y-19222484D02*
X10417682Y-19222484D01*
X10541492Y-19089150D02*
X10617682Y-19089150D01*
X10570063Y-19022484D02*
X10570063Y-19193912D01*
X10570063Y-19193912D02*
X10579587Y-19212960D01*
X10579587Y-19212960D02*
X10598634Y-19222484D01*
X10598634Y-19222484D02*
X10617682Y-19222484D01*
X10836730Y-19089150D02*
X10836730Y-19289150D01*
X10836730Y-19098674D02*
X10855777Y-19089150D01*
X10855777Y-19089150D02*
X10893873Y-19089150D01*
X10893873Y-19089150D02*
X10912920Y-19098674D01*
X10912920Y-19098674D02*
X10922444Y-19108198D01*
X10922444Y-19108198D02*
X10931968Y-19127246D01*
X10931968Y-19127246D02*
X10931968Y-19184389D01*
X10931968Y-19184389D02*
X10922444Y-19203436D01*
X10922444Y-19203436D02*
X10912920Y-19212960D01*
X10912920Y-19212960D02*
X10893873Y-19222484D01*
X10893873Y-19222484D02*
X10855777Y-19222484D01*
X10855777Y-19222484D02*
X10836730Y-19212960D01*
X11046254Y-19222484D02*
X11027206Y-19212960D01*
X11027206Y-19212960D02*
X11017682Y-19193912D01*
X11017682Y-19193912D02*
X11017682Y-19022484D01*
X11208158Y-19222484D02*
X11208158Y-19117722D01*
X11208158Y-19117722D02*
X11198634Y-19098674D01*
X11198634Y-19098674D02*
X11179587Y-19089150D01*
X11179587Y-19089150D02*
X11141492Y-19089150D01*
X11141492Y-19089150D02*
X11122444Y-19098674D01*
X11208158Y-19212960D02*
X11189111Y-19222484D01*
X11189111Y-19222484D02*
X11141492Y-19222484D01*
X11141492Y-19222484D02*
X11122444Y-19212960D01*
X11122444Y-19212960D02*
X11112920Y-19193912D01*
X11112920Y-19193912D02*
X11112920Y-19174865D01*
X11112920Y-19174865D02*
X11122444Y-19155817D01*
X11122444Y-19155817D02*
X11141492Y-19146293D01*
X11141492Y-19146293D02*
X11189111Y-19146293D01*
X11189111Y-19146293D02*
X11208158Y-19136770D01*
X11274825Y-19089150D02*
X11351015Y-19089150D01*
X11303396Y-19022484D02*
X11303396Y-19193912D01*
X11303396Y-19193912D02*
X11312920Y-19212960D01*
X11312920Y-19212960D02*
X11331968Y-19222484D01*
X11331968Y-19222484D02*
X11351015Y-19222484D01*
X11493873Y-19212960D02*
X11474825Y-19222484D01*
X11474825Y-19222484D02*
X11436730Y-19222484D01*
X11436730Y-19222484D02*
X11417682Y-19212960D01*
X11417682Y-19212960D02*
X11408158Y-19193912D01*
X11408158Y-19193912D02*
X11408158Y-19117722D01*
X11408158Y-19117722D02*
X11417682Y-19098674D01*
X11417682Y-19098674D02*
X11436730Y-19089150D01*
X11436730Y-19089150D02*
X11474825Y-19089150D01*
X11474825Y-19089150D02*
X11493873Y-19098674D01*
X11493873Y-19098674D02*
X11503396Y-19117722D01*
X11503396Y-19117722D02*
X11503396Y-19136770D01*
X11503396Y-19136770D02*
X11408158Y-19155817D01*
X11674825Y-19222484D02*
X11674825Y-19022484D01*
X11674825Y-19212960D02*
X11655777Y-19222484D01*
X11655777Y-19222484D02*
X11617682Y-19222484D01*
X11617682Y-19222484D02*
X11598634Y-19212960D01*
X11598634Y-19212960D02*
X11589111Y-19203436D01*
X11589111Y-19203436D02*
X11579587Y-19184389D01*
X11579587Y-19184389D02*
X11579587Y-19127246D01*
X11579587Y-19127246D02*
X11589111Y-19108198D01*
X11589111Y-19108198D02*
X11598634Y-19098674D01*
X11598634Y-19098674D02*
X11617682Y-19089150D01*
X11617682Y-19089150D02*
X11655777Y-19089150D01*
X11655777Y-19089150D02*
X11674825Y-19098674D01*
X11751015Y-19298674D02*
X11760539Y-19289150D01*
X11760539Y-19289150D02*
X11779587Y-19260579D01*
X11779587Y-19260579D02*
X11789111Y-19241531D01*
X11789111Y-19241531D02*
X11798634Y-19212960D01*
X11798634Y-19212960D02*
X11808158Y-19165341D01*
X11808158Y-19165341D02*
X11808158Y-19127246D01*
X11808158Y-19127246D02*
X11798634Y-19079627D01*
X11798634Y-19079627D02*
X11789111Y-19051055D01*
X11789111Y-19051055D02*
X11779587Y-19032008D01*
X11779587Y-19032008D02*
X11760539Y-19003436D01*
X11760539Y-19003436D02*
X11751015Y-18993912D01*
X4995000Y-19395000D02*
G75*
G03*
X4995000Y-19395000I-100000J0D01*
G01*
X5246253Y-19305531D02*
X5255777Y-19296008D01*
X5255777Y-19296008D02*
X5274824Y-19286484D01*
X5274824Y-19286484D02*
X5322444Y-19286484D01*
X5322444Y-19286484D02*
X5341491Y-19296008D01*
X5341491Y-19296008D02*
X5351015Y-19305531D01*
X5351015Y-19305531D02*
X5360539Y-19324579D01*
X5360539Y-19324579D02*
X5360539Y-19343627D01*
X5360539Y-19343627D02*
X5351015Y-19372198D01*
X5351015Y-19372198D02*
X5236729Y-19486484D01*
X5236729Y-19486484D02*
X5360539Y-19486484D01*
X5446253Y-19467436D02*
X5455777Y-19476960D01*
X5455777Y-19476960D02*
X5446253Y-19486484D01*
X5446253Y-19486484D02*
X5436729Y-19476960D01*
X5436729Y-19476960D02*
X5446253Y-19467436D01*
X5446253Y-19467436D02*
X5446253Y-19486484D01*
X5522444Y-19286484D02*
X5655777Y-19286484D01*
X5655777Y-19286484D02*
X5570063Y-19486484D01*
X5827205Y-19286484D02*
X5731967Y-19286484D01*
X5731967Y-19286484D02*
X5722443Y-19381722D01*
X5722443Y-19381722D02*
X5731967Y-19372198D01*
X5731967Y-19372198D02*
X5751015Y-19362674D01*
X5751015Y-19362674D02*
X5798634Y-19362674D01*
X5798634Y-19362674D02*
X5817682Y-19372198D01*
X5817682Y-19372198D02*
X5827205Y-19381722D01*
X5827205Y-19381722D02*
X5836729Y-19400770D01*
X5836729Y-19400770D02*
X5836729Y-19448389D01*
X5836729Y-19448389D02*
X5827205Y-19467436D01*
X5827205Y-19467436D02*
X5817682Y-19476960D01*
X5817682Y-19476960D02*
X5798634Y-19486484D01*
X5798634Y-19486484D02*
X5751015Y-19486484D01*
X5751015Y-19486484D02*
X5731967Y-19476960D01*
X5731967Y-19476960D02*
X5722443Y-19467436D01*
X5960539Y-19286484D02*
X5979586Y-19286484D01*
X5979586Y-19286484D02*
X5998634Y-19296008D01*
X5998634Y-19296008D02*
X6008158Y-19305531D01*
X6008158Y-19305531D02*
X6017682Y-19324579D01*
X6017682Y-19324579D02*
X6027205Y-19362674D01*
X6027205Y-19362674D02*
X6027205Y-19410293D01*
X6027205Y-19410293D02*
X6017682Y-19448389D01*
X6017682Y-19448389D02*
X6008158Y-19467436D01*
X6008158Y-19467436D02*
X5998634Y-19476960D01*
X5998634Y-19476960D02*
X5979586Y-19486484D01*
X5979586Y-19486484D02*
X5960539Y-19486484D01*
X5960539Y-19486484D02*
X5941491Y-19476960D01*
X5941491Y-19476960D02*
X5931967Y-19467436D01*
X5931967Y-19467436D02*
X5922443Y-19448389D01*
X5922443Y-19448389D02*
X5912920Y-19410293D01*
X5912920Y-19410293D02*
X5912920Y-19362674D01*
X5912920Y-19362674D02*
X5922443Y-19324579D01*
X5922443Y-19324579D02*
X5931967Y-19305531D01*
X5931967Y-19305531D02*
X5941491Y-19296008D01*
X5941491Y-19296008D02*
X5960539Y-19286484D01*
X6112920Y-19486484D02*
X6112920Y-19353150D01*
X6112920Y-19372198D02*
X6122443Y-19362674D01*
X6122443Y-19362674D02*
X6141491Y-19353150D01*
X6141491Y-19353150D02*
X6170063Y-19353150D01*
X6170063Y-19353150D02*
X6189110Y-19362674D01*
X6189110Y-19362674D02*
X6198634Y-19381722D01*
X6198634Y-19381722D02*
X6198634Y-19486484D01*
X6198634Y-19381722D02*
X6208158Y-19362674D01*
X6208158Y-19362674D02*
X6227205Y-19353150D01*
X6227205Y-19353150D02*
X6255777Y-19353150D01*
X6255777Y-19353150D02*
X6274824Y-19362674D01*
X6274824Y-19362674D02*
X6284348Y-19381722D01*
X6284348Y-19381722D02*
X6284348Y-19486484D01*
X6379586Y-19486484D02*
X6379586Y-19353150D01*
X6379586Y-19372198D02*
X6389110Y-19362674D01*
X6389110Y-19362674D02*
X6408158Y-19353150D01*
X6408158Y-19353150D02*
X6436729Y-19353150D01*
X6436729Y-19353150D02*
X6455777Y-19362674D01*
X6455777Y-19362674D02*
X6465301Y-19381722D01*
X6465301Y-19381722D02*
X6465301Y-19486484D01*
X6465301Y-19381722D02*
X6474824Y-19362674D01*
X6474824Y-19362674D02*
X6493872Y-19353150D01*
X6493872Y-19353150D02*
X6522443Y-19353150D01*
X6522443Y-19353150D02*
X6541491Y-19362674D01*
X6541491Y-19362674D02*
X6551015Y-19381722D01*
X6551015Y-19381722D02*
X6551015Y-19486484D01*
X6941491Y-19276960D02*
X6770063Y-19534103D01*
X7198634Y-19286484D02*
X7217682Y-19286484D01*
X7217682Y-19286484D02*
X7236729Y-19296008D01*
X7236729Y-19296008D02*
X7246253Y-19305531D01*
X7246253Y-19305531D02*
X7255777Y-19324579D01*
X7255777Y-19324579D02*
X7265301Y-19362674D01*
X7265301Y-19362674D02*
X7265301Y-19410293D01*
X7265301Y-19410293D02*
X7255777Y-19448389D01*
X7255777Y-19448389D02*
X7246253Y-19467436D01*
X7246253Y-19467436D02*
X7236729Y-19476960D01*
X7236729Y-19476960D02*
X7217682Y-19486484D01*
X7217682Y-19486484D02*
X7198634Y-19486484D01*
X7198634Y-19486484D02*
X7179586Y-19476960D01*
X7179586Y-19476960D02*
X7170063Y-19467436D01*
X7170063Y-19467436D02*
X7160539Y-19448389D01*
X7160539Y-19448389D02*
X7151015Y-19410293D01*
X7151015Y-19410293D02*
X7151015Y-19362674D01*
X7151015Y-19362674D02*
X7160539Y-19324579D01*
X7160539Y-19324579D02*
X7170063Y-19305531D01*
X7170063Y-19305531D02*
X7179586Y-19296008D01*
X7179586Y-19296008D02*
X7198634Y-19286484D01*
X7351015Y-19467436D02*
X7360539Y-19476960D01*
X7360539Y-19476960D02*
X7351015Y-19486484D01*
X7351015Y-19486484D02*
X7341491Y-19476960D01*
X7341491Y-19476960D02*
X7351015Y-19467436D01*
X7351015Y-19467436D02*
X7351015Y-19486484D01*
X7551015Y-19486484D02*
X7436729Y-19486484D01*
X7493872Y-19486484D02*
X7493872Y-19286484D01*
X7493872Y-19286484D02*
X7474825Y-19315055D01*
X7474825Y-19315055D02*
X7455777Y-19334103D01*
X7455777Y-19334103D02*
X7436729Y-19343627D01*
X7674825Y-19286484D02*
X7693872Y-19286484D01*
X7693872Y-19286484D02*
X7712920Y-19296008D01*
X7712920Y-19296008D02*
X7722444Y-19305531D01*
X7722444Y-19305531D02*
X7731967Y-19324579D01*
X7731967Y-19324579D02*
X7741491Y-19362674D01*
X7741491Y-19362674D02*
X7741491Y-19410293D01*
X7741491Y-19410293D02*
X7731967Y-19448389D01*
X7731967Y-19448389D02*
X7722444Y-19467436D01*
X7722444Y-19467436D02*
X7712920Y-19476960D01*
X7712920Y-19476960D02*
X7693872Y-19486484D01*
X7693872Y-19486484D02*
X7674825Y-19486484D01*
X7674825Y-19486484D02*
X7655777Y-19476960D01*
X7655777Y-19476960D02*
X7646253Y-19467436D01*
X7646253Y-19467436D02*
X7636729Y-19448389D01*
X7636729Y-19448389D02*
X7627206Y-19410293D01*
X7627206Y-19410293D02*
X7627206Y-19362674D01*
X7627206Y-19362674D02*
X7636729Y-19324579D01*
X7636729Y-19324579D02*
X7646253Y-19305531D01*
X7646253Y-19305531D02*
X7655777Y-19296008D01*
X7655777Y-19296008D02*
X7674825Y-19286484D01*
X7855777Y-19372198D02*
X7836729Y-19362674D01*
X7836729Y-19362674D02*
X7827206Y-19353150D01*
X7827206Y-19353150D02*
X7817682Y-19334103D01*
X7817682Y-19334103D02*
X7817682Y-19324579D01*
X7817682Y-19324579D02*
X7827206Y-19305531D01*
X7827206Y-19305531D02*
X7836729Y-19296008D01*
X7836729Y-19296008D02*
X7855777Y-19286484D01*
X7855777Y-19286484D02*
X7893872Y-19286484D01*
X7893872Y-19286484D02*
X7912920Y-19296008D01*
X7912920Y-19296008D02*
X7922444Y-19305531D01*
X7922444Y-19305531D02*
X7931967Y-19324579D01*
X7931967Y-19324579D02*
X7931967Y-19334103D01*
X7931967Y-19334103D02*
X7922444Y-19353150D01*
X7922444Y-19353150D02*
X7912920Y-19362674D01*
X7912920Y-19362674D02*
X7893872Y-19372198D01*
X7893872Y-19372198D02*
X7855777Y-19372198D01*
X7855777Y-19372198D02*
X7836729Y-19381722D01*
X7836729Y-19381722D02*
X7827206Y-19391246D01*
X7827206Y-19391246D02*
X7817682Y-19410293D01*
X7817682Y-19410293D02*
X7817682Y-19448389D01*
X7817682Y-19448389D02*
X7827206Y-19467436D01*
X7827206Y-19467436D02*
X7836729Y-19476960D01*
X7836729Y-19476960D02*
X7855777Y-19486484D01*
X7855777Y-19486484D02*
X7893872Y-19486484D01*
X7893872Y-19486484D02*
X7912920Y-19476960D01*
X7912920Y-19476960D02*
X7922444Y-19467436D01*
X7922444Y-19467436D02*
X7931967Y-19448389D01*
X7931967Y-19448389D02*
X7931967Y-19410293D01*
X7931967Y-19410293D02*
X7922444Y-19391246D01*
X7922444Y-19391246D02*
X7912920Y-19381722D01*
X7912920Y-19381722D02*
X7893872Y-19372198D01*
X7998634Y-19286484D02*
X8122444Y-19286484D01*
X8122444Y-19286484D02*
X8055777Y-19362674D01*
X8055777Y-19362674D02*
X8084348Y-19362674D01*
X8084348Y-19362674D02*
X8103396Y-19372198D01*
X8103396Y-19372198D02*
X8112920Y-19381722D01*
X8112920Y-19381722D02*
X8122444Y-19400770D01*
X8122444Y-19400770D02*
X8122444Y-19448389D01*
X8122444Y-19448389D02*
X8112920Y-19467436D01*
X8112920Y-19467436D02*
X8103396Y-19476960D01*
X8103396Y-19476960D02*
X8084348Y-19486484D01*
X8084348Y-19486484D02*
X8027206Y-19486484D01*
X8027206Y-19486484D02*
X8008158Y-19476960D01*
X8008158Y-19476960D02*
X7998634Y-19467436D01*
X8198634Y-19286484D02*
X8198634Y-19324579D01*
X8274825Y-19286484D02*
X8274825Y-19324579D01*
X8570063Y-19562674D02*
X8560539Y-19553150D01*
X8560539Y-19553150D02*
X8541491Y-19524579D01*
X8541491Y-19524579D02*
X8531968Y-19505531D01*
X8531968Y-19505531D02*
X8522444Y-19476960D01*
X8522444Y-19476960D02*
X8512920Y-19429341D01*
X8512920Y-19429341D02*
X8512920Y-19391246D01*
X8512920Y-19391246D02*
X8522444Y-19343627D01*
X8522444Y-19343627D02*
X8531968Y-19315055D01*
X8531968Y-19315055D02*
X8541491Y-19296008D01*
X8541491Y-19296008D02*
X8560539Y-19267436D01*
X8560539Y-19267436D02*
X8570063Y-19257912D01*
X8731968Y-19353150D02*
X8731968Y-19486484D01*
X8684349Y-19276960D02*
X8636730Y-19419817D01*
X8636730Y-19419817D02*
X8760539Y-19419817D01*
X8989111Y-19486484D02*
X8989111Y-19286484D01*
X9074825Y-19486484D02*
X9074825Y-19381722D01*
X9074825Y-19381722D02*
X9065301Y-19362674D01*
X9065301Y-19362674D02*
X9046253Y-19353150D01*
X9046253Y-19353150D02*
X9017682Y-19353150D01*
X9017682Y-19353150D02*
X8998634Y-19362674D01*
X8998634Y-19362674D02*
X8989111Y-19372198D01*
X9198634Y-19486484D02*
X9179587Y-19476960D01*
X9179587Y-19476960D02*
X9170063Y-19467436D01*
X9170063Y-19467436D02*
X9160539Y-19448389D01*
X9160539Y-19448389D02*
X9160539Y-19391246D01*
X9160539Y-19391246D02*
X9170063Y-19372198D01*
X9170063Y-19372198D02*
X9179587Y-19362674D01*
X9179587Y-19362674D02*
X9198634Y-19353150D01*
X9198634Y-19353150D02*
X9227206Y-19353150D01*
X9227206Y-19353150D02*
X9246253Y-19362674D01*
X9246253Y-19362674D02*
X9255777Y-19372198D01*
X9255777Y-19372198D02*
X9265301Y-19391246D01*
X9265301Y-19391246D02*
X9265301Y-19448389D01*
X9265301Y-19448389D02*
X9255777Y-19467436D01*
X9255777Y-19467436D02*
X9246253Y-19476960D01*
X9246253Y-19476960D02*
X9227206Y-19486484D01*
X9227206Y-19486484D02*
X9198634Y-19486484D01*
X9379587Y-19486484D02*
X9360539Y-19476960D01*
X9360539Y-19476960D02*
X9351015Y-19457912D01*
X9351015Y-19457912D02*
X9351015Y-19286484D01*
X9531968Y-19476960D02*
X9512920Y-19486484D01*
X9512920Y-19486484D02*
X9474825Y-19486484D01*
X9474825Y-19486484D02*
X9455777Y-19476960D01*
X9455777Y-19476960D02*
X9446253Y-19457912D01*
X9446253Y-19457912D02*
X9446253Y-19381722D01*
X9446253Y-19381722D02*
X9455777Y-19362674D01*
X9455777Y-19362674D02*
X9474825Y-19353150D01*
X9474825Y-19353150D02*
X9512920Y-19353150D01*
X9512920Y-19353150D02*
X9531968Y-19362674D01*
X9531968Y-19362674D02*
X9541492Y-19381722D01*
X9541492Y-19381722D02*
X9541492Y-19400770D01*
X9541492Y-19400770D02*
X9446253Y-19419817D01*
X9617682Y-19476960D02*
X9636730Y-19486484D01*
X9636730Y-19486484D02*
X9674825Y-19486484D01*
X9674825Y-19486484D02*
X9693873Y-19476960D01*
X9693873Y-19476960D02*
X9703396Y-19457912D01*
X9703396Y-19457912D02*
X9703396Y-19448389D01*
X9703396Y-19448389D02*
X9693873Y-19429341D01*
X9693873Y-19429341D02*
X9674825Y-19419817D01*
X9674825Y-19419817D02*
X9646253Y-19419817D01*
X9646253Y-19419817D02*
X9627206Y-19410293D01*
X9627206Y-19410293D02*
X9617682Y-19391246D01*
X9617682Y-19391246D02*
X9617682Y-19381722D01*
X9617682Y-19381722D02*
X9627206Y-19362674D01*
X9627206Y-19362674D02*
X9646253Y-19353150D01*
X9646253Y-19353150D02*
X9674825Y-19353150D01*
X9674825Y-19353150D02*
X9693873Y-19362674D01*
X9770063Y-19562674D02*
X9779587Y-19553150D01*
X9779587Y-19553150D02*
X9798634Y-19524579D01*
X9798634Y-19524579D02*
X9808158Y-19505531D01*
X9808158Y-19505531D02*
X9817682Y-19476960D01*
X9817682Y-19476960D02*
X9827206Y-19429341D01*
X9827206Y-19429341D02*
X9827206Y-19391246D01*
X9827206Y-19391246D02*
X9817682Y-19343627D01*
X9817682Y-19343627D02*
X9808158Y-19315055D01*
X9808158Y-19315055D02*
X9798634Y-19296008D01*
X9798634Y-19296008D02*
X9779587Y-19267436D01*
X9779587Y-19267436D02*
X9770063Y-19257912D01*
X10131968Y-19562674D02*
X10122444Y-19553150D01*
X10122444Y-19553150D02*
X10103396Y-19524579D01*
X10103396Y-19524579D02*
X10093873Y-19505531D01*
X10093873Y-19505531D02*
X10084349Y-19476960D01*
X10084349Y-19476960D02*
X10074825Y-19429341D01*
X10074825Y-19429341D02*
X10074825Y-19391246D01*
X10074825Y-19391246D02*
X10084349Y-19343627D01*
X10084349Y-19343627D02*
X10093873Y-19315055D01*
X10093873Y-19315055D02*
X10103396Y-19296008D01*
X10103396Y-19296008D02*
X10122444Y-19267436D01*
X10122444Y-19267436D02*
X10131968Y-19257912D01*
X10208158Y-19353150D02*
X10208158Y-19486484D01*
X10208158Y-19372198D02*
X10217682Y-19362674D01*
X10217682Y-19362674D02*
X10236730Y-19353150D01*
X10236730Y-19353150D02*
X10265301Y-19353150D01*
X10265301Y-19353150D02*
X10284349Y-19362674D01*
X10284349Y-19362674D02*
X10293873Y-19381722D01*
X10293873Y-19381722D02*
X10293873Y-19486484D01*
X10417682Y-19486484D02*
X10398634Y-19476960D01*
X10398634Y-19476960D02*
X10389111Y-19467436D01*
X10389111Y-19467436D02*
X10379587Y-19448389D01*
X10379587Y-19448389D02*
X10379587Y-19391246D01*
X10379587Y-19391246D02*
X10389111Y-19372198D01*
X10389111Y-19372198D02*
X10398634Y-19362674D01*
X10398634Y-19362674D02*
X10417682Y-19353150D01*
X10417682Y-19353150D02*
X10446254Y-19353150D01*
X10446254Y-19353150D02*
X10465301Y-19362674D01*
X10465301Y-19362674D02*
X10474825Y-19372198D01*
X10474825Y-19372198D02*
X10484349Y-19391246D01*
X10484349Y-19391246D02*
X10484349Y-19448389D01*
X10484349Y-19448389D02*
X10474825Y-19467436D01*
X10474825Y-19467436D02*
X10465301Y-19476960D01*
X10465301Y-19476960D02*
X10446254Y-19486484D01*
X10446254Y-19486484D02*
X10417682Y-19486484D01*
X10541492Y-19353150D02*
X10617682Y-19353150D01*
X10570063Y-19286484D02*
X10570063Y-19457912D01*
X10570063Y-19457912D02*
X10579587Y-19476960D01*
X10579587Y-19476960D02*
X10598634Y-19486484D01*
X10598634Y-19486484D02*
X10617682Y-19486484D01*
X10836730Y-19353150D02*
X10836730Y-19553150D01*
X10836730Y-19362674D02*
X10855777Y-19353150D01*
X10855777Y-19353150D02*
X10893873Y-19353150D01*
X10893873Y-19353150D02*
X10912920Y-19362674D01*
X10912920Y-19362674D02*
X10922444Y-19372198D01*
X10922444Y-19372198D02*
X10931968Y-19391246D01*
X10931968Y-19391246D02*
X10931968Y-19448389D01*
X10931968Y-19448389D02*
X10922444Y-19467436D01*
X10922444Y-19467436D02*
X10912920Y-19476960D01*
X10912920Y-19476960D02*
X10893873Y-19486484D01*
X10893873Y-19486484D02*
X10855777Y-19486484D01*
X10855777Y-19486484D02*
X10836730Y-19476960D01*
X11046254Y-19486484D02*
X11027206Y-19476960D01*
X11027206Y-19476960D02*
X11017682Y-19457912D01*
X11017682Y-19457912D02*
X11017682Y-19286484D01*
X11208158Y-19486484D02*
X11208158Y-19381722D01*
X11208158Y-19381722D02*
X11198634Y-19362674D01*
X11198634Y-19362674D02*
X11179587Y-19353150D01*
X11179587Y-19353150D02*
X11141492Y-19353150D01*
X11141492Y-19353150D02*
X11122444Y-19362674D01*
X11208158Y-19476960D02*
X11189111Y-19486484D01*
X11189111Y-19486484D02*
X11141492Y-19486484D01*
X11141492Y-19486484D02*
X11122444Y-19476960D01*
X11122444Y-19476960D02*
X11112920Y-19457912D01*
X11112920Y-19457912D02*
X11112920Y-19438865D01*
X11112920Y-19438865D02*
X11122444Y-19419817D01*
X11122444Y-19419817D02*
X11141492Y-19410293D01*
X11141492Y-19410293D02*
X11189111Y-19410293D01*
X11189111Y-19410293D02*
X11208158Y-19400770D01*
X11274825Y-19353150D02*
X11351015Y-19353150D01*
X11303396Y-19286484D02*
X11303396Y-19457912D01*
X11303396Y-19457912D02*
X11312920Y-19476960D01*
X11312920Y-19476960D02*
X11331968Y-19486484D01*
X11331968Y-19486484D02*
X11351015Y-19486484D01*
X11493873Y-19476960D02*
X11474825Y-19486484D01*
X11474825Y-19486484D02*
X11436730Y-19486484D01*
X11436730Y-19486484D02*
X11417682Y-19476960D01*
X11417682Y-19476960D02*
X11408158Y-19457912D01*
X11408158Y-19457912D02*
X11408158Y-19381722D01*
X11408158Y-19381722D02*
X11417682Y-19362674D01*
X11417682Y-19362674D02*
X11436730Y-19353150D01*
X11436730Y-19353150D02*
X11474825Y-19353150D01*
X11474825Y-19353150D02*
X11493873Y-19362674D01*
X11493873Y-19362674D02*
X11503396Y-19381722D01*
X11503396Y-19381722D02*
X11503396Y-19400770D01*
X11503396Y-19400770D02*
X11408158Y-19419817D01*
X11674825Y-19486484D02*
X11674825Y-19286484D01*
X11674825Y-19476960D02*
X11655777Y-19486484D01*
X11655777Y-19486484D02*
X11617682Y-19486484D01*
X11617682Y-19486484D02*
X11598634Y-19476960D01*
X11598634Y-19476960D02*
X11589111Y-19467436D01*
X11589111Y-19467436D02*
X11579587Y-19448389D01*
X11579587Y-19448389D02*
X11579587Y-19391246D01*
X11579587Y-19391246D02*
X11589111Y-19372198D01*
X11589111Y-19372198D02*
X11598634Y-19362674D01*
X11598634Y-19362674D02*
X11617682Y-19353150D01*
X11617682Y-19353150D02*
X11655777Y-19353150D01*
X11655777Y-19353150D02*
X11674825Y-19362674D01*
X11751015Y-19562674D02*
X11760539Y-19553150D01*
X11760539Y-19553150D02*
X11779587Y-19524579D01*
X11779587Y-19524579D02*
X11789111Y-19505531D01*
X11789111Y-19505531D02*
X11798634Y-19476960D01*
X11798634Y-19476960D02*
X11808158Y-19429341D01*
X11808158Y-19429341D02*
X11808158Y-19391246D01*
X11808158Y-19391246D02*
X11798634Y-19343627D01*
X11798634Y-19343627D02*
X11789111Y-19315055D01*
X11789111Y-19315055D02*
X11779587Y-19296008D01*
X11779587Y-19296008D02*
X11760539Y-19267436D01*
X11760539Y-19267436D02*
X11751015Y-19257912D01*
M02*
