%TF.GenerationSoftware,KiCad,Pcbnew,7.0.7*%
%TF.CreationDate,2023-09-07T11:23:37-07:00*%
%TF.ProjectId,bivariate-bivalve,62697661-7269-4617-9465-2d626976616c,rev?*%
%TF.SameCoordinates,Original*%
%TF.FileFunction,Drillmap*%
%TF.FilePolarity,Positive*%
%FSLAX45Y45*%
G04 Gerber Fmt 4.5, Leading zero omitted, Abs format (unit mm)*
G04 Created by KiCad (PCBNEW 7.0.7) date 2023-09-07 11:23:37*
%MOMM*%
%LPD*%
G01*
G04 APERTURE LIST*
%ADD10C,0.100000*%
%ADD11C,0.200000*%
%ADD12C,0.078740*%
%ADD13C,0.080000*%
%ADD14C,0.110000*%
G04 APERTURE END LIST*
D10*
X5000000Y-3597000D02*
X5001320Y-18120014D01*
X14810000Y-3248000D02*
X5365986Y-3246320D01*
X15160680Y-3613986D02*
X15162000Y-18135000D01*
X5352000Y-18486000D02*
X14796014Y-18485680D01*
X5001320Y-18120014D02*
G75*
G03*
X5352000Y-18486000I350680J-14986D01*
G01*
X14796014Y-18485680D02*
G75*
G03*
X15162000Y-18135000I14986J350680D01*
G01*
X15160680Y-3613986D02*
G75*
G03*
X14810000Y-3248000I-350680J14986D01*
G01*
X5365986Y-3246320D02*
G75*
G03*
X5000000Y-3597000I-14986J-350680D01*
G01*
D11*
D12*
X8391130Y-4350130D02*
X8469870Y-4428870D01*
X8469870Y-4350130D02*
X8391130Y-4428870D01*
X8391130Y-4604130D02*
X8469870Y-4682870D01*
X8469870Y-4604130D02*
X8391130Y-4682870D01*
X8391130Y-4858130D02*
X8469870Y-4936870D01*
X8469870Y-4858130D02*
X8391130Y-4936870D01*
X8391130Y-5112130D02*
X8469870Y-5190870D01*
X8469870Y-5112130D02*
X8391130Y-5190870D01*
X8391130Y-5366130D02*
X8469870Y-5444870D01*
X8469870Y-5366130D02*
X8391130Y-5444870D01*
X8391130Y-5620130D02*
X8469870Y-5698870D01*
X8469870Y-5620130D02*
X8391130Y-5698870D01*
X8391130Y-5874130D02*
X8469870Y-5952870D01*
X8469870Y-5874130D02*
X8391130Y-5952870D01*
X9153130Y-4350130D02*
X9231870Y-4428870D01*
X9231870Y-4350130D02*
X9153130Y-4428870D01*
X9153130Y-4604130D02*
X9231870Y-4682870D01*
X9231870Y-4604130D02*
X9153130Y-4682870D01*
X9153130Y-4858130D02*
X9231870Y-4936870D01*
X9231870Y-4858130D02*
X9153130Y-4936870D01*
X9153130Y-5112130D02*
X9231870Y-5190870D01*
X9231870Y-5112130D02*
X9153130Y-5190870D01*
X9153130Y-5366130D02*
X9231870Y-5444870D01*
X9231870Y-5366130D02*
X9153130Y-5444870D01*
X9153130Y-5620130D02*
X9231870Y-5698870D01*
X9231870Y-5620130D02*
X9153130Y-5698870D01*
X9153130Y-5874130D02*
X9231870Y-5952870D01*
X9231870Y-5874130D02*
X9153130Y-5952870D01*
D13*
X5983000Y-5675000D02*
G75*
G03*
X5983000Y-5675000I-40000J0D01*
G01*
X6745000Y-5675000D02*
G75*
G03*
X6745000Y-5675000I-40000J0D01*
G01*
X10256500Y-4580000D02*
G75*
G03*
X10256500Y-4580000I-40000J0D01*
G01*
X10756500Y-4580000D02*
G75*
G03*
X10756500Y-4580000I-40000J0D01*
G01*
D10*
X7531000Y-4030500D02*
X7531000Y-4130500D01*
X7481000Y-4080500D02*
X7581000Y-4080500D01*
X7531000Y-4284500D02*
X7531000Y-4384500D01*
X7481000Y-4334500D02*
X7581000Y-4334500D01*
X7531000Y-4538500D02*
X7531000Y-4638500D01*
X7481000Y-4588500D02*
X7581000Y-4588500D01*
X7531000Y-4792500D02*
X7531000Y-4892500D01*
X7481000Y-4842500D02*
X7581000Y-4842500D01*
X7531000Y-5046500D02*
X7531000Y-5146500D01*
X7481000Y-5096500D02*
X7581000Y-5096500D01*
X7531000Y-5300500D02*
X7531000Y-5400500D01*
X7481000Y-5350500D02*
X7581000Y-5350500D01*
X7531000Y-5554500D02*
X7531000Y-5654500D01*
X7481000Y-5604500D02*
X7581000Y-5604500D01*
X7531000Y-5808500D02*
X7531000Y-5908500D01*
X7481000Y-5858500D02*
X7581000Y-5858500D01*
X7531000Y-6062500D02*
X7531000Y-6162500D01*
X7481000Y-6112500D02*
X7581000Y-6112500D01*
X7531000Y-6316500D02*
X7531000Y-6416500D01*
X7481000Y-6366500D02*
X7581000Y-6366500D01*
X7531000Y-6570500D02*
X7531000Y-6670500D01*
X7481000Y-6620500D02*
X7581000Y-6620500D01*
X7531000Y-6824500D02*
X7531000Y-6924500D01*
X7481000Y-6874500D02*
X7581000Y-6874500D01*
X7531000Y-7078500D02*
X7531000Y-7178500D01*
X7481000Y-7128500D02*
X7581000Y-7128500D01*
X7531000Y-7332500D02*
X7531000Y-7432500D01*
X7481000Y-7382500D02*
X7581000Y-7382500D01*
X7531000Y-7586500D02*
X7531000Y-7686500D01*
X7481000Y-7636500D02*
X7581000Y-7636500D01*
X7531000Y-7840500D02*
X7531000Y-7940500D01*
X7481000Y-7890500D02*
X7581000Y-7890500D01*
X7531000Y-8094500D02*
X7531000Y-8194500D01*
X7481000Y-8144500D02*
X7581000Y-8144500D01*
X7531000Y-8348500D02*
X7531000Y-8448500D01*
X7481000Y-8398500D02*
X7581000Y-8398500D01*
X7531000Y-8602500D02*
X7531000Y-8702500D01*
X7481000Y-8652500D02*
X7581000Y-8652500D01*
X7531000Y-8856500D02*
X7531000Y-8956500D01*
X7481000Y-8906500D02*
X7581000Y-8906500D01*
X7785000Y-4030500D02*
X7785000Y-4130500D01*
X7735000Y-4080500D02*
X7835000Y-4080500D01*
X7785000Y-4284500D02*
X7785000Y-4384500D01*
X7735000Y-4334500D02*
X7835000Y-4334500D01*
X7785000Y-4538500D02*
X7785000Y-4638500D01*
X7735000Y-4588500D02*
X7835000Y-4588500D01*
X7785000Y-4792500D02*
X7785000Y-4892500D01*
X7735000Y-4842500D02*
X7835000Y-4842500D01*
X7785000Y-5046500D02*
X7785000Y-5146500D01*
X7735000Y-5096500D02*
X7835000Y-5096500D01*
X7785000Y-5300500D02*
X7785000Y-5400500D01*
X7735000Y-5350500D02*
X7835000Y-5350500D01*
X7785000Y-5554500D02*
X7785000Y-5654500D01*
X7735000Y-5604500D02*
X7835000Y-5604500D01*
X7785000Y-5808500D02*
X7785000Y-5908500D01*
X7735000Y-5858500D02*
X7835000Y-5858500D01*
X7785000Y-6062500D02*
X7785000Y-6162500D01*
X7735000Y-6112500D02*
X7835000Y-6112500D01*
X7785000Y-6316500D02*
X7785000Y-6416500D01*
X7735000Y-6366500D02*
X7835000Y-6366500D01*
X7785000Y-6570500D02*
X7785000Y-6670500D01*
X7735000Y-6620500D02*
X7835000Y-6620500D01*
X7785000Y-6824500D02*
X7785000Y-6924500D01*
X7735000Y-6874500D02*
X7835000Y-6874500D01*
X7785000Y-7078500D02*
X7785000Y-7178500D01*
X7735000Y-7128500D02*
X7835000Y-7128500D01*
X7785000Y-7332500D02*
X7785000Y-7432500D01*
X7735000Y-7382500D02*
X7835000Y-7382500D01*
X7785000Y-7586500D02*
X7785000Y-7686500D01*
X7735000Y-7636500D02*
X7835000Y-7636500D01*
X7785000Y-7840500D02*
X7785000Y-7940500D01*
X7735000Y-7890500D02*
X7835000Y-7890500D01*
X7785000Y-8094500D02*
X7785000Y-8194500D01*
X7735000Y-8144500D02*
X7835000Y-8144500D01*
X7785000Y-8348500D02*
X7785000Y-8448500D01*
X7735000Y-8398500D02*
X7835000Y-8398500D01*
X7785000Y-8602500D02*
X7785000Y-8702500D01*
X7735000Y-8652500D02*
X7835000Y-8652500D01*
X7785000Y-8856500D02*
X7785000Y-8956500D01*
X7735000Y-8906500D02*
X7835000Y-8906500D01*
D14*
X5353891Y-5717891D02*
X5353891Y-5640109D01*
X5276109Y-5640109D01*
X5276109Y-5717891D01*
X5353891Y-5717891D01*
X5353891Y-6987891D02*
X5353891Y-6910109D01*
X5276109Y-6910109D01*
X5276109Y-6987891D01*
X5353891Y-6987891D01*
X10183891Y-3729891D02*
X10183891Y-3652109D01*
X10106109Y-3652109D01*
X10106109Y-3729891D01*
X10183891Y-3729891D01*
X10882391Y-3729891D02*
X10882391Y-3652109D01*
X10804609Y-3652109D01*
X10804609Y-3729891D01*
X10882391Y-3729891D01*
D11*
X5255777Y-18802484D02*
X5255777Y-18602484D01*
X5255777Y-18602484D02*
X5303396Y-18602484D01*
X5303396Y-18602484D02*
X5331967Y-18612008D01*
X5331967Y-18612008D02*
X5351015Y-18631055D01*
X5351015Y-18631055D02*
X5360539Y-18650103D01*
X5360539Y-18650103D02*
X5370063Y-18688198D01*
X5370063Y-18688198D02*
X5370063Y-18716770D01*
X5370063Y-18716770D02*
X5360539Y-18754865D01*
X5360539Y-18754865D02*
X5351015Y-18773912D01*
X5351015Y-18773912D02*
X5331967Y-18792960D01*
X5331967Y-18792960D02*
X5303396Y-18802484D01*
X5303396Y-18802484D02*
X5255777Y-18802484D01*
X5455777Y-18802484D02*
X5455777Y-18669150D01*
X5455777Y-18707246D02*
X5465301Y-18688198D01*
X5465301Y-18688198D02*
X5474824Y-18678674D01*
X5474824Y-18678674D02*
X5493872Y-18669150D01*
X5493872Y-18669150D02*
X5512920Y-18669150D01*
X5579586Y-18802484D02*
X5579586Y-18669150D01*
X5579586Y-18602484D02*
X5570063Y-18612008D01*
X5570063Y-18612008D02*
X5579586Y-18621531D01*
X5579586Y-18621531D02*
X5589110Y-18612008D01*
X5589110Y-18612008D02*
X5579586Y-18602484D01*
X5579586Y-18602484D02*
X5579586Y-18621531D01*
X5703396Y-18802484D02*
X5684348Y-18792960D01*
X5684348Y-18792960D02*
X5674824Y-18773912D01*
X5674824Y-18773912D02*
X5674824Y-18602484D01*
X5808158Y-18802484D02*
X5789110Y-18792960D01*
X5789110Y-18792960D02*
X5779586Y-18773912D01*
X5779586Y-18773912D02*
X5779586Y-18602484D01*
X6036729Y-18802484D02*
X6036729Y-18602484D01*
X6036729Y-18602484D02*
X6103396Y-18745341D01*
X6103396Y-18745341D02*
X6170062Y-18602484D01*
X6170062Y-18602484D02*
X6170062Y-18802484D01*
X6351015Y-18802484D02*
X6351015Y-18697722D01*
X6351015Y-18697722D02*
X6341491Y-18678674D01*
X6341491Y-18678674D02*
X6322443Y-18669150D01*
X6322443Y-18669150D02*
X6284348Y-18669150D01*
X6284348Y-18669150D02*
X6265301Y-18678674D01*
X6351015Y-18792960D02*
X6331967Y-18802484D01*
X6331967Y-18802484D02*
X6284348Y-18802484D01*
X6284348Y-18802484D02*
X6265301Y-18792960D01*
X6265301Y-18792960D02*
X6255777Y-18773912D01*
X6255777Y-18773912D02*
X6255777Y-18754865D01*
X6255777Y-18754865D02*
X6265301Y-18735817D01*
X6265301Y-18735817D02*
X6284348Y-18726293D01*
X6284348Y-18726293D02*
X6331967Y-18726293D01*
X6331967Y-18726293D02*
X6351015Y-18716770D01*
X6446253Y-18669150D02*
X6446253Y-18869150D01*
X6446253Y-18678674D02*
X6465301Y-18669150D01*
X6465301Y-18669150D02*
X6503396Y-18669150D01*
X6503396Y-18669150D02*
X6522443Y-18678674D01*
X6522443Y-18678674D02*
X6531967Y-18688198D01*
X6531967Y-18688198D02*
X6541491Y-18707246D01*
X6541491Y-18707246D02*
X6541491Y-18764389D01*
X6541491Y-18764389D02*
X6531967Y-18783436D01*
X6531967Y-18783436D02*
X6522443Y-18792960D01*
X6522443Y-18792960D02*
X6503396Y-18802484D01*
X6503396Y-18802484D02*
X6465301Y-18802484D01*
X6465301Y-18802484D02*
X6446253Y-18792960D01*
X6627205Y-18783436D02*
X6636729Y-18792960D01*
X6636729Y-18792960D02*
X6627205Y-18802484D01*
X6627205Y-18802484D02*
X6617682Y-18792960D01*
X6617682Y-18792960D02*
X6627205Y-18783436D01*
X6627205Y-18783436D02*
X6627205Y-18802484D01*
X6627205Y-18678674D02*
X6636729Y-18688198D01*
X6636729Y-18688198D02*
X6627205Y-18697722D01*
X6627205Y-18697722D02*
X6617682Y-18688198D01*
X6617682Y-18688198D02*
X6627205Y-18678674D01*
X6627205Y-18678674D02*
X6627205Y-18697722D01*
D12*
X4916260Y-19091630D02*
X4995000Y-19170370D01*
X4995000Y-19091630D02*
X4916260Y-19170370D01*
D11*
X5293872Y-19022484D02*
X5312920Y-19022484D01*
X5312920Y-19022484D02*
X5331967Y-19032008D01*
X5331967Y-19032008D02*
X5341491Y-19041531D01*
X5341491Y-19041531D02*
X5351015Y-19060579D01*
X5351015Y-19060579D02*
X5360539Y-19098674D01*
X5360539Y-19098674D02*
X5360539Y-19146293D01*
X5360539Y-19146293D02*
X5351015Y-19184389D01*
X5351015Y-19184389D02*
X5341491Y-19203436D01*
X5341491Y-19203436D02*
X5331967Y-19212960D01*
X5331967Y-19212960D02*
X5312920Y-19222484D01*
X5312920Y-19222484D02*
X5293872Y-19222484D01*
X5293872Y-19222484D02*
X5274824Y-19212960D01*
X5274824Y-19212960D02*
X5265301Y-19203436D01*
X5265301Y-19203436D02*
X5255777Y-19184389D01*
X5255777Y-19184389D02*
X5246253Y-19146293D01*
X5246253Y-19146293D02*
X5246253Y-19098674D01*
X5246253Y-19098674D02*
X5255777Y-19060579D01*
X5255777Y-19060579D02*
X5265301Y-19041531D01*
X5265301Y-19041531D02*
X5274824Y-19032008D01*
X5274824Y-19032008D02*
X5293872Y-19022484D01*
X5446253Y-19203436D02*
X5455777Y-19212960D01*
X5455777Y-19212960D02*
X5446253Y-19222484D01*
X5446253Y-19222484D02*
X5436729Y-19212960D01*
X5436729Y-19212960D02*
X5446253Y-19203436D01*
X5446253Y-19203436D02*
X5446253Y-19222484D01*
X5522444Y-19022484D02*
X5655777Y-19022484D01*
X5655777Y-19022484D02*
X5570063Y-19222484D01*
X5760539Y-19108198D02*
X5741491Y-19098674D01*
X5741491Y-19098674D02*
X5731967Y-19089150D01*
X5731967Y-19089150D02*
X5722443Y-19070103D01*
X5722443Y-19070103D02*
X5722443Y-19060579D01*
X5722443Y-19060579D02*
X5731967Y-19041531D01*
X5731967Y-19041531D02*
X5741491Y-19032008D01*
X5741491Y-19032008D02*
X5760539Y-19022484D01*
X5760539Y-19022484D02*
X5798634Y-19022484D01*
X5798634Y-19022484D02*
X5817682Y-19032008D01*
X5817682Y-19032008D02*
X5827205Y-19041531D01*
X5827205Y-19041531D02*
X5836729Y-19060579D01*
X5836729Y-19060579D02*
X5836729Y-19070103D01*
X5836729Y-19070103D02*
X5827205Y-19089150D01*
X5827205Y-19089150D02*
X5817682Y-19098674D01*
X5817682Y-19098674D02*
X5798634Y-19108198D01*
X5798634Y-19108198D02*
X5760539Y-19108198D01*
X5760539Y-19108198D02*
X5741491Y-19117722D01*
X5741491Y-19117722D02*
X5731967Y-19127246D01*
X5731967Y-19127246D02*
X5722443Y-19146293D01*
X5722443Y-19146293D02*
X5722443Y-19184389D01*
X5722443Y-19184389D02*
X5731967Y-19203436D01*
X5731967Y-19203436D02*
X5741491Y-19212960D01*
X5741491Y-19212960D02*
X5760539Y-19222484D01*
X5760539Y-19222484D02*
X5798634Y-19222484D01*
X5798634Y-19222484D02*
X5817682Y-19212960D01*
X5817682Y-19212960D02*
X5827205Y-19203436D01*
X5827205Y-19203436D02*
X5836729Y-19184389D01*
X5836729Y-19184389D02*
X5836729Y-19146293D01*
X5836729Y-19146293D02*
X5827205Y-19127246D01*
X5827205Y-19127246D02*
X5817682Y-19117722D01*
X5817682Y-19117722D02*
X5798634Y-19108198D01*
X5903396Y-19022484D02*
X6036729Y-19022484D01*
X6036729Y-19022484D02*
X5951015Y-19222484D01*
X6112920Y-19222484D02*
X6112920Y-19089150D01*
X6112920Y-19108198D02*
X6122443Y-19098674D01*
X6122443Y-19098674D02*
X6141491Y-19089150D01*
X6141491Y-19089150D02*
X6170063Y-19089150D01*
X6170063Y-19089150D02*
X6189110Y-19098674D01*
X6189110Y-19098674D02*
X6198634Y-19117722D01*
X6198634Y-19117722D02*
X6198634Y-19222484D01*
X6198634Y-19117722D02*
X6208158Y-19098674D01*
X6208158Y-19098674D02*
X6227205Y-19089150D01*
X6227205Y-19089150D02*
X6255777Y-19089150D01*
X6255777Y-19089150D02*
X6274824Y-19098674D01*
X6274824Y-19098674D02*
X6284348Y-19117722D01*
X6284348Y-19117722D02*
X6284348Y-19222484D01*
X6379586Y-19222484D02*
X6379586Y-19089150D01*
X6379586Y-19108198D02*
X6389110Y-19098674D01*
X6389110Y-19098674D02*
X6408158Y-19089150D01*
X6408158Y-19089150D02*
X6436729Y-19089150D01*
X6436729Y-19089150D02*
X6455777Y-19098674D01*
X6455777Y-19098674D02*
X6465301Y-19117722D01*
X6465301Y-19117722D02*
X6465301Y-19222484D01*
X6465301Y-19117722D02*
X6474824Y-19098674D01*
X6474824Y-19098674D02*
X6493872Y-19089150D01*
X6493872Y-19089150D02*
X6522443Y-19089150D01*
X6522443Y-19089150D02*
X6541491Y-19098674D01*
X6541491Y-19098674D02*
X6551015Y-19117722D01*
X6551015Y-19117722D02*
X6551015Y-19222484D01*
X6941491Y-19012960D02*
X6770063Y-19270103D01*
X7198634Y-19022484D02*
X7217682Y-19022484D01*
X7217682Y-19022484D02*
X7236729Y-19032008D01*
X7236729Y-19032008D02*
X7246253Y-19041531D01*
X7246253Y-19041531D02*
X7255777Y-19060579D01*
X7255777Y-19060579D02*
X7265301Y-19098674D01*
X7265301Y-19098674D02*
X7265301Y-19146293D01*
X7265301Y-19146293D02*
X7255777Y-19184389D01*
X7255777Y-19184389D02*
X7246253Y-19203436D01*
X7246253Y-19203436D02*
X7236729Y-19212960D01*
X7236729Y-19212960D02*
X7217682Y-19222484D01*
X7217682Y-19222484D02*
X7198634Y-19222484D01*
X7198634Y-19222484D02*
X7179586Y-19212960D01*
X7179586Y-19212960D02*
X7170063Y-19203436D01*
X7170063Y-19203436D02*
X7160539Y-19184389D01*
X7160539Y-19184389D02*
X7151015Y-19146293D01*
X7151015Y-19146293D02*
X7151015Y-19098674D01*
X7151015Y-19098674D02*
X7160539Y-19060579D01*
X7160539Y-19060579D02*
X7170063Y-19041531D01*
X7170063Y-19041531D02*
X7179586Y-19032008D01*
X7179586Y-19032008D02*
X7198634Y-19022484D01*
X7351015Y-19203436D02*
X7360539Y-19212960D01*
X7360539Y-19212960D02*
X7351015Y-19222484D01*
X7351015Y-19222484D02*
X7341491Y-19212960D01*
X7341491Y-19212960D02*
X7351015Y-19203436D01*
X7351015Y-19203436D02*
X7351015Y-19222484D01*
X7484348Y-19022484D02*
X7503396Y-19022484D01*
X7503396Y-19022484D02*
X7522444Y-19032008D01*
X7522444Y-19032008D02*
X7531967Y-19041531D01*
X7531967Y-19041531D02*
X7541491Y-19060579D01*
X7541491Y-19060579D02*
X7551015Y-19098674D01*
X7551015Y-19098674D02*
X7551015Y-19146293D01*
X7551015Y-19146293D02*
X7541491Y-19184389D01*
X7541491Y-19184389D02*
X7531967Y-19203436D01*
X7531967Y-19203436D02*
X7522444Y-19212960D01*
X7522444Y-19212960D02*
X7503396Y-19222484D01*
X7503396Y-19222484D02*
X7484348Y-19222484D01*
X7484348Y-19222484D02*
X7465301Y-19212960D01*
X7465301Y-19212960D02*
X7455777Y-19203436D01*
X7455777Y-19203436D02*
X7446253Y-19184389D01*
X7446253Y-19184389D02*
X7436729Y-19146293D01*
X7436729Y-19146293D02*
X7436729Y-19098674D01*
X7436729Y-19098674D02*
X7446253Y-19060579D01*
X7446253Y-19060579D02*
X7455777Y-19041531D01*
X7455777Y-19041531D02*
X7465301Y-19032008D01*
X7465301Y-19032008D02*
X7484348Y-19022484D01*
X7617682Y-19022484D02*
X7741491Y-19022484D01*
X7741491Y-19022484D02*
X7674825Y-19098674D01*
X7674825Y-19098674D02*
X7703396Y-19098674D01*
X7703396Y-19098674D02*
X7722444Y-19108198D01*
X7722444Y-19108198D02*
X7731967Y-19117722D01*
X7731967Y-19117722D02*
X7741491Y-19136770D01*
X7741491Y-19136770D02*
X7741491Y-19184389D01*
X7741491Y-19184389D02*
X7731967Y-19203436D01*
X7731967Y-19203436D02*
X7722444Y-19212960D01*
X7722444Y-19212960D02*
X7703396Y-19222484D01*
X7703396Y-19222484D02*
X7646253Y-19222484D01*
X7646253Y-19222484D02*
X7627206Y-19212960D01*
X7627206Y-19212960D02*
X7617682Y-19203436D01*
X7931967Y-19222484D02*
X7817682Y-19222484D01*
X7874825Y-19222484D02*
X7874825Y-19022484D01*
X7874825Y-19022484D02*
X7855777Y-19051055D01*
X7855777Y-19051055D02*
X7836729Y-19070103D01*
X7836729Y-19070103D02*
X7817682Y-19079627D01*
X8055777Y-19022484D02*
X8074825Y-19022484D01*
X8074825Y-19022484D02*
X8093872Y-19032008D01*
X8093872Y-19032008D02*
X8103396Y-19041531D01*
X8103396Y-19041531D02*
X8112920Y-19060579D01*
X8112920Y-19060579D02*
X8122444Y-19098674D01*
X8122444Y-19098674D02*
X8122444Y-19146293D01*
X8122444Y-19146293D02*
X8112920Y-19184389D01*
X8112920Y-19184389D02*
X8103396Y-19203436D01*
X8103396Y-19203436D02*
X8093872Y-19212960D01*
X8093872Y-19212960D02*
X8074825Y-19222484D01*
X8074825Y-19222484D02*
X8055777Y-19222484D01*
X8055777Y-19222484D02*
X8036729Y-19212960D01*
X8036729Y-19212960D02*
X8027206Y-19203436D01*
X8027206Y-19203436D02*
X8017682Y-19184389D01*
X8017682Y-19184389D02*
X8008158Y-19146293D01*
X8008158Y-19146293D02*
X8008158Y-19098674D01*
X8008158Y-19098674D02*
X8017682Y-19060579D01*
X8017682Y-19060579D02*
X8027206Y-19041531D01*
X8027206Y-19041531D02*
X8036729Y-19032008D01*
X8036729Y-19032008D02*
X8055777Y-19022484D01*
X8198634Y-19022484D02*
X8198634Y-19060579D01*
X8274825Y-19022484D02*
X8274825Y-19060579D01*
X8570063Y-19298674D02*
X8560539Y-19289150D01*
X8560539Y-19289150D02*
X8541491Y-19260579D01*
X8541491Y-19260579D02*
X8531968Y-19241531D01*
X8531968Y-19241531D02*
X8522444Y-19212960D01*
X8522444Y-19212960D02*
X8512920Y-19165341D01*
X8512920Y-19165341D02*
X8512920Y-19127246D01*
X8512920Y-19127246D02*
X8522444Y-19079627D01*
X8522444Y-19079627D02*
X8531968Y-19051055D01*
X8531968Y-19051055D02*
X8541491Y-19032008D01*
X8541491Y-19032008D02*
X8560539Y-19003436D01*
X8560539Y-19003436D02*
X8570063Y-18993912D01*
X8751015Y-19222484D02*
X8636730Y-19222484D01*
X8693872Y-19222484D02*
X8693872Y-19022484D01*
X8693872Y-19022484D02*
X8674825Y-19051055D01*
X8674825Y-19051055D02*
X8655777Y-19070103D01*
X8655777Y-19070103D02*
X8636730Y-19079627D01*
X8922444Y-19089150D02*
X8922444Y-19222484D01*
X8874825Y-19012960D02*
X8827206Y-19155817D01*
X8827206Y-19155817D02*
X8951015Y-19155817D01*
X9179587Y-19222484D02*
X9179587Y-19022484D01*
X9265301Y-19222484D02*
X9265301Y-19117722D01*
X9265301Y-19117722D02*
X9255777Y-19098674D01*
X9255777Y-19098674D02*
X9236730Y-19089150D01*
X9236730Y-19089150D02*
X9208158Y-19089150D01*
X9208158Y-19089150D02*
X9189111Y-19098674D01*
X9189111Y-19098674D02*
X9179587Y-19108198D01*
X9389111Y-19222484D02*
X9370063Y-19212960D01*
X9370063Y-19212960D02*
X9360539Y-19203436D01*
X9360539Y-19203436D02*
X9351015Y-19184389D01*
X9351015Y-19184389D02*
X9351015Y-19127246D01*
X9351015Y-19127246D02*
X9360539Y-19108198D01*
X9360539Y-19108198D02*
X9370063Y-19098674D01*
X9370063Y-19098674D02*
X9389111Y-19089150D01*
X9389111Y-19089150D02*
X9417682Y-19089150D01*
X9417682Y-19089150D02*
X9436730Y-19098674D01*
X9436730Y-19098674D02*
X9446253Y-19108198D01*
X9446253Y-19108198D02*
X9455777Y-19127246D01*
X9455777Y-19127246D02*
X9455777Y-19184389D01*
X9455777Y-19184389D02*
X9446253Y-19203436D01*
X9446253Y-19203436D02*
X9436730Y-19212960D01*
X9436730Y-19212960D02*
X9417682Y-19222484D01*
X9417682Y-19222484D02*
X9389111Y-19222484D01*
X9570063Y-19222484D02*
X9551015Y-19212960D01*
X9551015Y-19212960D02*
X9541492Y-19193912D01*
X9541492Y-19193912D02*
X9541492Y-19022484D01*
X9722444Y-19212960D02*
X9703396Y-19222484D01*
X9703396Y-19222484D02*
X9665301Y-19222484D01*
X9665301Y-19222484D02*
X9646253Y-19212960D01*
X9646253Y-19212960D02*
X9636730Y-19193912D01*
X9636730Y-19193912D02*
X9636730Y-19117722D01*
X9636730Y-19117722D02*
X9646253Y-19098674D01*
X9646253Y-19098674D02*
X9665301Y-19089150D01*
X9665301Y-19089150D02*
X9703396Y-19089150D01*
X9703396Y-19089150D02*
X9722444Y-19098674D01*
X9722444Y-19098674D02*
X9731968Y-19117722D01*
X9731968Y-19117722D02*
X9731968Y-19136770D01*
X9731968Y-19136770D02*
X9636730Y-19155817D01*
X9808158Y-19212960D02*
X9827206Y-19222484D01*
X9827206Y-19222484D02*
X9865301Y-19222484D01*
X9865301Y-19222484D02*
X9884349Y-19212960D01*
X9884349Y-19212960D02*
X9893873Y-19193912D01*
X9893873Y-19193912D02*
X9893873Y-19184389D01*
X9893873Y-19184389D02*
X9884349Y-19165341D01*
X9884349Y-19165341D02*
X9865301Y-19155817D01*
X9865301Y-19155817D02*
X9836730Y-19155817D01*
X9836730Y-19155817D02*
X9817682Y-19146293D01*
X9817682Y-19146293D02*
X9808158Y-19127246D01*
X9808158Y-19127246D02*
X9808158Y-19117722D01*
X9808158Y-19117722D02*
X9817682Y-19098674D01*
X9817682Y-19098674D02*
X9836730Y-19089150D01*
X9836730Y-19089150D02*
X9865301Y-19089150D01*
X9865301Y-19089150D02*
X9884349Y-19098674D01*
X9960539Y-19298674D02*
X9970063Y-19289150D01*
X9970063Y-19289150D02*
X9989111Y-19260579D01*
X9989111Y-19260579D02*
X9998634Y-19241531D01*
X9998634Y-19241531D02*
X10008158Y-19212960D01*
X10008158Y-19212960D02*
X10017682Y-19165341D01*
X10017682Y-19165341D02*
X10017682Y-19127246D01*
X10017682Y-19127246D02*
X10008158Y-19079627D01*
X10008158Y-19079627D02*
X9998634Y-19051055D01*
X9998634Y-19051055D02*
X9989111Y-19032008D01*
X9989111Y-19032008D02*
X9970063Y-19003436D01*
X9970063Y-19003436D02*
X9960539Y-18993912D01*
D13*
X4995000Y-19395000D02*
G75*
G03*
X4995000Y-19395000I-40000J0D01*
G01*
D11*
X5293872Y-19286484D02*
X5312920Y-19286484D01*
X5312920Y-19286484D02*
X5331967Y-19296008D01*
X5331967Y-19296008D02*
X5341491Y-19305531D01*
X5341491Y-19305531D02*
X5351015Y-19324579D01*
X5351015Y-19324579D02*
X5360539Y-19362674D01*
X5360539Y-19362674D02*
X5360539Y-19410293D01*
X5360539Y-19410293D02*
X5351015Y-19448389D01*
X5351015Y-19448389D02*
X5341491Y-19467436D01*
X5341491Y-19467436D02*
X5331967Y-19476960D01*
X5331967Y-19476960D02*
X5312920Y-19486484D01*
X5312920Y-19486484D02*
X5293872Y-19486484D01*
X5293872Y-19486484D02*
X5274824Y-19476960D01*
X5274824Y-19476960D02*
X5265301Y-19467436D01*
X5265301Y-19467436D02*
X5255777Y-19448389D01*
X5255777Y-19448389D02*
X5246253Y-19410293D01*
X5246253Y-19410293D02*
X5246253Y-19362674D01*
X5246253Y-19362674D02*
X5255777Y-19324579D01*
X5255777Y-19324579D02*
X5265301Y-19305531D01*
X5265301Y-19305531D02*
X5274824Y-19296008D01*
X5274824Y-19296008D02*
X5293872Y-19286484D01*
X5446253Y-19467436D02*
X5455777Y-19476960D01*
X5455777Y-19476960D02*
X5446253Y-19486484D01*
X5446253Y-19486484D02*
X5436729Y-19476960D01*
X5436729Y-19476960D02*
X5446253Y-19467436D01*
X5446253Y-19467436D02*
X5446253Y-19486484D01*
X5570063Y-19372198D02*
X5551015Y-19362674D01*
X5551015Y-19362674D02*
X5541491Y-19353150D01*
X5541491Y-19353150D02*
X5531967Y-19334103D01*
X5531967Y-19334103D02*
X5531967Y-19324579D01*
X5531967Y-19324579D02*
X5541491Y-19305531D01*
X5541491Y-19305531D02*
X5551015Y-19296008D01*
X5551015Y-19296008D02*
X5570063Y-19286484D01*
X5570063Y-19286484D02*
X5608158Y-19286484D01*
X5608158Y-19286484D02*
X5627205Y-19296008D01*
X5627205Y-19296008D02*
X5636729Y-19305531D01*
X5636729Y-19305531D02*
X5646253Y-19324579D01*
X5646253Y-19324579D02*
X5646253Y-19334103D01*
X5646253Y-19334103D02*
X5636729Y-19353150D01*
X5636729Y-19353150D02*
X5627205Y-19362674D01*
X5627205Y-19362674D02*
X5608158Y-19372198D01*
X5608158Y-19372198D02*
X5570063Y-19372198D01*
X5570063Y-19372198D02*
X5551015Y-19381722D01*
X5551015Y-19381722D02*
X5541491Y-19391246D01*
X5541491Y-19391246D02*
X5531967Y-19410293D01*
X5531967Y-19410293D02*
X5531967Y-19448389D01*
X5531967Y-19448389D02*
X5541491Y-19467436D01*
X5541491Y-19467436D02*
X5551015Y-19476960D01*
X5551015Y-19476960D02*
X5570063Y-19486484D01*
X5570063Y-19486484D02*
X5608158Y-19486484D01*
X5608158Y-19486484D02*
X5627205Y-19476960D01*
X5627205Y-19476960D02*
X5636729Y-19467436D01*
X5636729Y-19467436D02*
X5646253Y-19448389D01*
X5646253Y-19448389D02*
X5646253Y-19410293D01*
X5646253Y-19410293D02*
X5636729Y-19391246D01*
X5636729Y-19391246D02*
X5627205Y-19381722D01*
X5627205Y-19381722D02*
X5608158Y-19372198D01*
X5770062Y-19286484D02*
X5789110Y-19286484D01*
X5789110Y-19286484D02*
X5808158Y-19296008D01*
X5808158Y-19296008D02*
X5817682Y-19305531D01*
X5817682Y-19305531D02*
X5827205Y-19324579D01*
X5827205Y-19324579D02*
X5836729Y-19362674D01*
X5836729Y-19362674D02*
X5836729Y-19410293D01*
X5836729Y-19410293D02*
X5827205Y-19448389D01*
X5827205Y-19448389D02*
X5817682Y-19467436D01*
X5817682Y-19467436D02*
X5808158Y-19476960D01*
X5808158Y-19476960D02*
X5789110Y-19486484D01*
X5789110Y-19486484D02*
X5770062Y-19486484D01*
X5770062Y-19486484D02*
X5751015Y-19476960D01*
X5751015Y-19476960D02*
X5741491Y-19467436D01*
X5741491Y-19467436D02*
X5731967Y-19448389D01*
X5731967Y-19448389D02*
X5722443Y-19410293D01*
X5722443Y-19410293D02*
X5722443Y-19362674D01*
X5722443Y-19362674D02*
X5731967Y-19324579D01*
X5731967Y-19324579D02*
X5741491Y-19305531D01*
X5741491Y-19305531D02*
X5751015Y-19296008D01*
X5751015Y-19296008D02*
X5770062Y-19286484D01*
X5960539Y-19286484D02*
X5979586Y-19286484D01*
X5979586Y-19286484D02*
X5998634Y-19296008D01*
X5998634Y-19296008D02*
X6008158Y-19305531D01*
X6008158Y-19305531D02*
X6017682Y-19324579D01*
X6017682Y-19324579D02*
X6027205Y-19362674D01*
X6027205Y-19362674D02*
X6027205Y-19410293D01*
X6027205Y-19410293D02*
X6017682Y-19448389D01*
X6017682Y-19448389D02*
X6008158Y-19467436D01*
X6008158Y-19467436D02*
X5998634Y-19476960D01*
X5998634Y-19476960D02*
X5979586Y-19486484D01*
X5979586Y-19486484D02*
X5960539Y-19486484D01*
X5960539Y-19486484D02*
X5941491Y-19476960D01*
X5941491Y-19476960D02*
X5931967Y-19467436D01*
X5931967Y-19467436D02*
X5922443Y-19448389D01*
X5922443Y-19448389D02*
X5912920Y-19410293D01*
X5912920Y-19410293D02*
X5912920Y-19362674D01*
X5912920Y-19362674D02*
X5922443Y-19324579D01*
X5922443Y-19324579D02*
X5931967Y-19305531D01*
X5931967Y-19305531D02*
X5941491Y-19296008D01*
X5941491Y-19296008D02*
X5960539Y-19286484D01*
X6112920Y-19486484D02*
X6112920Y-19353150D01*
X6112920Y-19372198D02*
X6122443Y-19362674D01*
X6122443Y-19362674D02*
X6141491Y-19353150D01*
X6141491Y-19353150D02*
X6170063Y-19353150D01*
X6170063Y-19353150D02*
X6189110Y-19362674D01*
X6189110Y-19362674D02*
X6198634Y-19381722D01*
X6198634Y-19381722D02*
X6198634Y-19486484D01*
X6198634Y-19381722D02*
X6208158Y-19362674D01*
X6208158Y-19362674D02*
X6227205Y-19353150D01*
X6227205Y-19353150D02*
X6255777Y-19353150D01*
X6255777Y-19353150D02*
X6274824Y-19362674D01*
X6274824Y-19362674D02*
X6284348Y-19381722D01*
X6284348Y-19381722D02*
X6284348Y-19486484D01*
X6379586Y-19486484D02*
X6379586Y-19353150D01*
X6379586Y-19372198D02*
X6389110Y-19362674D01*
X6389110Y-19362674D02*
X6408158Y-19353150D01*
X6408158Y-19353150D02*
X6436729Y-19353150D01*
X6436729Y-19353150D02*
X6455777Y-19362674D01*
X6455777Y-19362674D02*
X6465301Y-19381722D01*
X6465301Y-19381722D02*
X6465301Y-19486484D01*
X6465301Y-19381722D02*
X6474824Y-19362674D01*
X6474824Y-19362674D02*
X6493872Y-19353150D01*
X6493872Y-19353150D02*
X6522443Y-19353150D01*
X6522443Y-19353150D02*
X6541491Y-19362674D01*
X6541491Y-19362674D02*
X6551015Y-19381722D01*
X6551015Y-19381722D02*
X6551015Y-19486484D01*
X6941491Y-19276960D02*
X6770063Y-19534103D01*
X7198634Y-19286484D02*
X7217682Y-19286484D01*
X7217682Y-19286484D02*
X7236729Y-19296008D01*
X7236729Y-19296008D02*
X7246253Y-19305531D01*
X7246253Y-19305531D02*
X7255777Y-19324579D01*
X7255777Y-19324579D02*
X7265301Y-19362674D01*
X7265301Y-19362674D02*
X7265301Y-19410293D01*
X7265301Y-19410293D02*
X7255777Y-19448389D01*
X7255777Y-19448389D02*
X7246253Y-19467436D01*
X7246253Y-19467436D02*
X7236729Y-19476960D01*
X7236729Y-19476960D02*
X7217682Y-19486484D01*
X7217682Y-19486484D02*
X7198634Y-19486484D01*
X7198634Y-19486484D02*
X7179586Y-19476960D01*
X7179586Y-19476960D02*
X7170063Y-19467436D01*
X7170063Y-19467436D02*
X7160539Y-19448389D01*
X7160539Y-19448389D02*
X7151015Y-19410293D01*
X7151015Y-19410293D02*
X7151015Y-19362674D01*
X7151015Y-19362674D02*
X7160539Y-19324579D01*
X7160539Y-19324579D02*
X7170063Y-19305531D01*
X7170063Y-19305531D02*
X7179586Y-19296008D01*
X7179586Y-19296008D02*
X7198634Y-19286484D01*
X7351015Y-19467436D02*
X7360539Y-19476960D01*
X7360539Y-19476960D02*
X7351015Y-19486484D01*
X7351015Y-19486484D02*
X7341491Y-19476960D01*
X7341491Y-19476960D02*
X7351015Y-19467436D01*
X7351015Y-19467436D02*
X7351015Y-19486484D01*
X7484348Y-19286484D02*
X7503396Y-19286484D01*
X7503396Y-19286484D02*
X7522444Y-19296008D01*
X7522444Y-19296008D02*
X7531967Y-19305531D01*
X7531967Y-19305531D02*
X7541491Y-19324579D01*
X7541491Y-19324579D02*
X7551015Y-19362674D01*
X7551015Y-19362674D02*
X7551015Y-19410293D01*
X7551015Y-19410293D02*
X7541491Y-19448389D01*
X7541491Y-19448389D02*
X7531967Y-19467436D01*
X7531967Y-19467436D02*
X7522444Y-19476960D01*
X7522444Y-19476960D02*
X7503396Y-19486484D01*
X7503396Y-19486484D02*
X7484348Y-19486484D01*
X7484348Y-19486484D02*
X7465301Y-19476960D01*
X7465301Y-19476960D02*
X7455777Y-19467436D01*
X7455777Y-19467436D02*
X7446253Y-19448389D01*
X7446253Y-19448389D02*
X7436729Y-19410293D01*
X7436729Y-19410293D02*
X7436729Y-19362674D01*
X7436729Y-19362674D02*
X7446253Y-19324579D01*
X7446253Y-19324579D02*
X7455777Y-19305531D01*
X7455777Y-19305531D02*
X7465301Y-19296008D01*
X7465301Y-19296008D02*
X7484348Y-19286484D01*
X7617682Y-19286484D02*
X7741491Y-19286484D01*
X7741491Y-19286484D02*
X7674825Y-19362674D01*
X7674825Y-19362674D02*
X7703396Y-19362674D01*
X7703396Y-19362674D02*
X7722444Y-19372198D01*
X7722444Y-19372198D02*
X7731967Y-19381722D01*
X7731967Y-19381722D02*
X7741491Y-19400770D01*
X7741491Y-19400770D02*
X7741491Y-19448389D01*
X7741491Y-19448389D02*
X7731967Y-19467436D01*
X7731967Y-19467436D02*
X7722444Y-19476960D01*
X7722444Y-19476960D02*
X7703396Y-19486484D01*
X7703396Y-19486484D02*
X7646253Y-19486484D01*
X7646253Y-19486484D02*
X7627206Y-19476960D01*
X7627206Y-19476960D02*
X7617682Y-19467436D01*
X7931967Y-19486484D02*
X7817682Y-19486484D01*
X7874825Y-19486484D02*
X7874825Y-19286484D01*
X7874825Y-19286484D02*
X7855777Y-19315055D01*
X7855777Y-19315055D02*
X7836729Y-19334103D01*
X7836729Y-19334103D02*
X7817682Y-19343627D01*
X8112920Y-19286484D02*
X8017682Y-19286484D01*
X8017682Y-19286484D02*
X8008158Y-19381722D01*
X8008158Y-19381722D02*
X8017682Y-19372198D01*
X8017682Y-19372198D02*
X8036729Y-19362674D01*
X8036729Y-19362674D02*
X8084348Y-19362674D01*
X8084348Y-19362674D02*
X8103396Y-19372198D01*
X8103396Y-19372198D02*
X8112920Y-19381722D01*
X8112920Y-19381722D02*
X8122444Y-19400770D01*
X8122444Y-19400770D02*
X8122444Y-19448389D01*
X8122444Y-19448389D02*
X8112920Y-19467436D01*
X8112920Y-19467436D02*
X8103396Y-19476960D01*
X8103396Y-19476960D02*
X8084348Y-19486484D01*
X8084348Y-19486484D02*
X8036729Y-19486484D01*
X8036729Y-19486484D02*
X8017682Y-19476960D01*
X8017682Y-19476960D02*
X8008158Y-19467436D01*
X8198634Y-19286484D02*
X8198634Y-19324579D01*
X8274825Y-19286484D02*
X8274825Y-19324579D01*
X8570063Y-19562674D02*
X8560539Y-19553150D01*
X8560539Y-19553150D02*
X8541491Y-19524579D01*
X8541491Y-19524579D02*
X8531968Y-19505531D01*
X8531968Y-19505531D02*
X8522444Y-19476960D01*
X8522444Y-19476960D02*
X8512920Y-19429341D01*
X8512920Y-19429341D02*
X8512920Y-19391246D01*
X8512920Y-19391246D02*
X8522444Y-19343627D01*
X8522444Y-19343627D02*
X8531968Y-19315055D01*
X8531968Y-19315055D02*
X8541491Y-19296008D01*
X8541491Y-19296008D02*
X8560539Y-19267436D01*
X8560539Y-19267436D02*
X8570063Y-19257912D01*
X8731968Y-19353150D02*
X8731968Y-19486484D01*
X8684349Y-19276960D02*
X8636730Y-19419817D01*
X8636730Y-19419817D02*
X8760539Y-19419817D01*
X8989111Y-19486484D02*
X8989111Y-19286484D01*
X9074825Y-19486484D02*
X9074825Y-19381722D01*
X9074825Y-19381722D02*
X9065301Y-19362674D01*
X9065301Y-19362674D02*
X9046253Y-19353150D01*
X9046253Y-19353150D02*
X9017682Y-19353150D01*
X9017682Y-19353150D02*
X8998634Y-19362674D01*
X8998634Y-19362674D02*
X8989111Y-19372198D01*
X9198634Y-19486484D02*
X9179587Y-19476960D01*
X9179587Y-19476960D02*
X9170063Y-19467436D01*
X9170063Y-19467436D02*
X9160539Y-19448389D01*
X9160539Y-19448389D02*
X9160539Y-19391246D01*
X9160539Y-19391246D02*
X9170063Y-19372198D01*
X9170063Y-19372198D02*
X9179587Y-19362674D01*
X9179587Y-19362674D02*
X9198634Y-19353150D01*
X9198634Y-19353150D02*
X9227206Y-19353150D01*
X9227206Y-19353150D02*
X9246253Y-19362674D01*
X9246253Y-19362674D02*
X9255777Y-19372198D01*
X9255777Y-19372198D02*
X9265301Y-19391246D01*
X9265301Y-19391246D02*
X9265301Y-19448389D01*
X9265301Y-19448389D02*
X9255777Y-19467436D01*
X9255777Y-19467436D02*
X9246253Y-19476960D01*
X9246253Y-19476960D02*
X9227206Y-19486484D01*
X9227206Y-19486484D02*
X9198634Y-19486484D01*
X9379587Y-19486484D02*
X9360539Y-19476960D01*
X9360539Y-19476960D02*
X9351015Y-19457912D01*
X9351015Y-19457912D02*
X9351015Y-19286484D01*
X9531968Y-19476960D02*
X9512920Y-19486484D01*
X9512920Y-19486484D02*
X9474825Y-19486484D01*
X9474825Y-19486484D02*
X9455777Y-19476960D01*
X9455777Y-19476960D02*
X9446253Y-19457912D01*
X9446253Y-19457912D02*
X9446253Y-19381722D01*
X9446253Y-19381722D02*
X9455777Y-19362674D01*
X9455777Y-19362674D02*
X9474825Y-19353150D01*
X9474825Y-19353150D02*
X9512920Y-19353150D01*
X9512920Y-19353150D02*
X9531968Y-19362674D01*
X9531968Y-19362674D02*
X9541492Y-19381722D01*
X9541492Y-19381722D02*
X9541492Y-19400770D01*
X9541492Y-19400770D02*
X9446253Y-19419817D01*
X9617682Y-19476960D02*
X9636730Y-19486484D01*
X9636730Y-19486484D02*
X9674825Y-19486484D01*
X9674825Y-19486484D02*
X9693873Y-19476960D01*
X9693873Y-19476960D02*
X9703396Y-19457912D01*
X9703396Y-19457912D02*
X9703396Y-19448389D01*
X9703396Y-19448389D02*
X9693873Y-19429341D01*
X9693873Y-19429341D02*
X9674825Y-19419817D01*
X9674825Y-19419817D02*
X9646253Y-19419817D01*
X9646253Y-19419817D02*
X9627206Y-19410293D01*
X9627206Y-19410293D02*
X9617682Y-19391246D01*
X9617682Y-19391246D02*
X9617682Y-19381722D01*
X9617682Y-19381722D02*
X9627206Y-19362674D01*
X9627206Y-19362674D02*
X9646253Y-19353150D01*
X9646253Y-19353150D02*
X9674825Y-19353150D01*
X9674825Y-19353150D02*
X9693873Y-19362674D01*
X9770063Y-19562674D02*
X9779587Y-19553150D01*
X9779587Y-19553150D02*
X9798634Y-19524579D01*
X9798634Y-19524579D02*
X9808158Y-19505531D01*
X9808158Y-19505531D02*
X9817682Y-19476960D01*
X9817682Y-19476960D02*
X9827206Y-19429341D01*
X9827206Y-19429341D02*
X9827206Y-19391246D01*
X9827206Y-19391246D02*
X9817682Y-19343627D01*
X9817682Y-19343627D02*
X9808158Y-19315055D01*
X9808158Y-19315055D02*
X9798634Y-19296008D01*
X9798634Y-19296008D02*
X9779587Y-19267436D01*
X9779587Y-19267436D02*
X9770063Y-19257912D01*
D10*
X4945000Y-19609000D02*
X4945000Y-19709000D01*
X4895000Y-19659000D02*
X4995000Y-19659000D01*
D11*
X5360539Y-19750484D02*
X5246253Y-19750484D01*
X5303396Y-19750484D02*
X5303396Y-19550484D01*
X5303396Y-19550484D02*
X5284348Y-19579055D01*
X5284348Y-19579055D02*
X5265301Y-19598103D01*
X5265301Y-19598103D02*
X5246253Y-19607627D01*
X5446253Y-19731436D02*
X5455777Y-19740960D01*
X5455777Y-19740960D02*
X5446253Y-19750484D01*
X5446253Y-19750484D02*
X5436729Y-19740960D01*
X5436729Y-19740960D02*
X5446253Y-19731436D01*
X5446253Y-19731436D02*
X5446253Y-19750484D01*
X5579586Y-19550484D02*
X5598634Y-19550484D01*
X5598634Y-19550484D02*
X5617682Y-19560008D01*
X5617682Y-19560008D02*
X5627205Y-19569531D01*
X5627205Y-19569531D02*
X5636729Y-19588579D01*
X5636729Y-19588579D02*
X5646253Y-19626674D01*
X5646253Y-19626674D02*
X5646253Y-19674293D01*
X5646253Y-19674293D02*
X5636729Y-19712389D01*
X5636729Y-19712389D02*
X5627205Y-19731436D01*
X5627205Y-19731436D02*
X5617682Y-19740960D01*
X5617682Y-19740960D02*
X5598634Y-19750484D01*
X5598634Y-19750484D02*
X5579586Y-19750484D01*
X5579586Y-19750484D02*
X5560539Y-19740960D01*
X5560539Y-19740960D02*
X5551015Y-19731436D01*
X5551015Y-19731436D02*
X5541491Y-19712389D01*
X5541491Y-19712389D02*
X5531967Y-19674293D01*
X5531967Y-19674293D02*
X5531967Y-19626674D01*
X5531967Y-19626674D02*
X5541491Y-19588579D01*
X5541491Y-19588579D02*
X5551015Y-19569531D01*
X5551015Y-19569531D02*
X5560539Y-19560008D01*
X5560539Y-19560008D02*
X5579586Y-19550484D01*
X5770062Y-19550484D02*
X5789110Y-19550484D01*
X5789110Y-19550484D02*
X5808158Y-19560008D01*
X5808158Y-19560008D02*
X5817682Y-19569531D01*
X5817682Y-19569531D02*
X5827205Y-19588579D01*
X5827205Y-19588579D02*
X5836729Y-19626674D01*
X5836729Y-19626674D02*
X5836729Y-19674293D01*
X5836729Y-19674293D02*
X5827205Y-19712389D01*
X5827205Y-19712389D02*
X5817682Y-19731436D01*
X5817682Y-19731436D02*
X5808158Y-19740960D01*
X5808158Y-19740960D02*
X5789110Y-19750484D01*
X5789110Y-19750484D02*
X5770062Y-19750484D01*
X5770062Y-19750484D02*
X5751015Y-19740960D01*
X5751015Y-19740960D02*
X5741491Y-19731436D01*
X5741491Y-19731436D02*
X5731967Y-19712389D01*
X5731967Y-19712389D02*
X5722443Y-19674293D01*
X5722443Y-19674293D02*
X5722443Y-19626674D01*
X5722443Y-19626674D02*
X5731967Y-19588579D01*
X5731967Y-19588579D02*
X5741491Y-19569531D01*
X5741491Y-19569531D02*
X5751015Y-19560008D01*
X5751015Y-19560008D02*
X5770062Y-19550484D01*
X5960539Y-19550484D02*
X5979586Y-19550484D01*
X5979586Y-19550484D02*
X5998634Y-19560008D01*
X5998634Y-19560008D02*
X6008158Y-19569531D01*
X6008158Y-19569531D02*
X6017682Y-19588579D01*
X6017682Y-19588579D02*
X6027205Y-19626674D01*
X6027205Y-19626674D02*
X6027205Y-19674293D01*
X6027205Y-19674293D02*
X6017682Y-19712389D01*
X6017682Y-19712389D02*
X6008158Y-19731436D01*
X6008158Y-19731436D02*
X5998634Y-19740960D01*
X5998634Y-19740960D02*
X5979586Y-19750484D01*
X5979586Y-19750484D02*
X5960539Y-19750484D01*
X5960539Y-19750484D02*
X5941491Y-19740960D01*
X5941491Y-19740960D02*
X5931967Y-19731436D01*
X5931967Y-19731436D02*
X5922443Y-19712389D01*
X5922443Y-19712389D02*
X5912920Y-19674293D01*
X5912920Y-19674293D02*
X5912920Y-19626674D01*
X5912920Y-19626674D02*
X5922443Y-19588579D01*
X5922443Y-19588579D02*
X5931967Y-19569531D01*
X5931967Y-19569531D02*
X5941491Y-19560008D01*
X5941491Y-19560008D02*
X5960539Y-19550484D01*
X6112920Y-19750484D02*
X6112920Y-19617150D01*
X6112920Y-19636198D02*
X6122443Y-19626674D01*
X6122443Y-19626674D02*
X6141491Y-19617150D01*
X6141491Y-19617150D02*
X6170063Y-19617150D01*
X6170063Y-19617150D02*
X6189110Y-19626674D01*
X6189110Y-19626674D02*
X6198634Y-19645722D01*
X6198634Y-19645722D02*
X6198634Y-19750484D01*
X6198634Y-19645722D02*
X6208158Y-19626674D01*
X6208158Y-19626674D02*
X6227205Y-19617150D01*
X6227205Y-19617150D02*
X6255777Y-19617150D01*
X6255777Y-19617150D02*
X6274824Y-19626674D01*
X6274824Y-19626674D02*
X6284348Y-19645722D01*
X6284348Y-19645722D02*
X6284348Y-19750484D01*
X6379586Y-19750484D02*
X6379586Y-19617150D01*
X6379586Y-19636198D02*
X6389110Y-19626674D01*
X6389110Y-19626674D02*
X6408158Y-19617150D01*
X6408158Y-19617150D02*
X6436729Y-19617150D01*
X6436729Y-19617150D02*
X6455777Y-19626674D01*
X6455777Y-19626674D02*
X6465301Y-19645722D01*
X6465301Y-19645722D02*
X6465301Y-19750484D01*
X6465301Y-19645722D02*
X6474824Y-19626674D01*
X6474824Y-19626674D02*
X6493872Y-19617150D01*
X6493872Y-19617150D02*
X6522443Y-19617150D01*
X6522443Y-19617150D02*
X6541491Y-19626674D01*
X6541491Y-19626674D02*
X6551015Y-19645722D01*
X6551015Y-19645722D02*
X6551015Y-19750484D01*
X6941491Y-19540960D02*
X6770063Y-19798103D01*
X7198634Y-19550484D02*
X7217682Y-19550484D01*
X7217682Y-19550484D02*
X7236729Y-19560008D01*
X7236729Y-19560008D02*
X7246253Y-19569531D01*
X7246253Y-19569531D02*
X7255777Y-19588579D01*
X7255777Y-19588579D02*
X7265301Y-19626674D01*
X7265301Y-19626674D02*
X7265301Y-19674293D01*
X7265301Y-19674293D02*
X7255777Y-19712389D01*
X7255777Y-19712389D02*
X7246253Y-19731436D01*
X7246253Y-19731436D02*
X7236729Y-19740960D01*
X7236729Y-19740960D02*
X7217682Y-19750484D01*
X7217682Y-19750484D02*
X7198634Y-19750484D01*
X7198634Y-19750484D02*
X7179586Y-19740960D01*
X7179586Y-19740960D02*
X7170063Y-19731436D01*
X7170063Y-19731436D02*
X7160539Y-19712389D01*
X7160539Y-19712389D02*
X7151015Y-19674293D01*
X7151015Y-19674293D02*
X7151015Y-19626674D01*
X7151015Y-19626674D02*
X7160539Y-19588579D01*
X7160539Y-19588579D02*
X7170063Y-19569531D01*
X7170063Y-19569531D02*
X7179586Y-19560008D01*
X7179586Y-19560008D02*
X7198634Y-19550484D01*
X7351015Y-19731436D02*
X7360539Y-19740960D01*
X7360539Y-19740960D02*
X7351015Y-19750484D01*
X7351015Y-19750484D02*
X7341491Y-19740960D01*
X7341491Y-19740960D02*
X7351015Y-19731436D01*
X7351015Y-19731436D02*
X7351015Y-19750484D01*
X7484348Y-19550484D02*
X7503396Y-19550484D01*
X7503396Y-19550484D02*
X7522444Y-19560008D01*
X7522444Y-19560008D02*
X7531967Y-19569531D01*
X7531967Y-19569531D02*
X7541491Y-19588579D01*
X7541491Y-19588579D02*
X7551015Y-19626674D01*
X7551015Y-19626674D02*
X7551015Y-19674293D01*
X7551015Y-19674293D02*
X7541491Y-19712389D01*
X7541491Y-19712389D02*
X7531967Y-19731436D01*
X7531967Y-19731436D02*
X7522444Y-19740960D01*
X7522444Y-19740960D02*
X7503396Y-19750484D01*
X7503396Y-19750484D02*
X7484348Y-19750484D01*
X7484348Y-19750484D02*
X7465301Y-19740960D01*
X7465301Y-19740960D02*
X7455777Y-19731436D01*
X7455777Y-19731436D02*
X7446253Y-19712389D01*
X7446253Y-19712389D02*
X7436729Y-19674293D01*
X7436729Y-19674293D02*
X7436729Y-19626674D01*
X7436729Y-19626674D02*
X7446253Y-19588579D01*
X7446253Y-19588579D02*
X7455777Y-19569531D01*
X7455777Y-19569531D02*
X7465301Y-19560008D01*
X7465301Y-19560008D02*
X7484348Y-19550484D01*
X7617682Y-19550484D02*
X7741491Y-19550484D01*
X7741491Y-19550484D02*
X7674825Y-19626674D01*
X7674825Y-19626674D02*
X7703396Y-19626674D01*
X7703396Y-19626674D02*
X7722444Y-19636198D01*
X7722444Y-19636198D02*
X7731967Y-19645722D01*
X7731967Y-19645722D02*
X7741491Y-19664770D01*
X7741491Y-19664770D02*
X7741491Y-19712389D01*
X7741491Y-19712389D02*
X7731967Y-19731436D01*
X7731967Y-19731436D02*
X7722444Y-19740960D01*
X7722444Y-19740960D02*
X7703396Y-19750484D01*
X7703396Y-19750484D02*
X7646253Y-19750484D01*
X7646253Y-19750484D02*
X7627206Y-19740960D01*
X7627206Y-19740960D02*
X7617682Y-19731436D01*
X7836729Y-19750484D02*
X7874825Y-19750484D01*
X7874825Y-19750484D02*
X7893872Y-19740960D01*
X7893872Y-19740960D02*
X7903396Y-19731436D01*
X7903396Y-19731436D02*
X7922444Y-19702865D01*
X7922444Y-19702865D02*
X7931967Y-19664770D01*
X7931967Y-19664770D02*
X7931967Y-19588579D01*
X7931967Y-19588579D02*
X7922444Y-19569531D01*
X7922444Y-19569531D02*
X7912920Y-19560008D01*
X7912920Y-19560008D02*
X7893872Y-19550484D01*
X7893872Y-19550484D02*
X7855777Y-19550484D01*
X7855777Y-19550484D02*
X7836729Y-19560008D01*
X7836729Y-19560008D02*
X7827206Y-19569531D01*
X7827206Y-19569531D02*
X7817682Y-19588579D01*
X7817682Y-19588579D02*
X7817682Y-19636198D01*
X7817682Y-19636198D02*
X7827206Y-19655246D01*
X7827206Y-19655246D02*
X7836729Y-19664770D01*
X7836729Y-19664770D02*
X7855777Y-19674293D01*
X7855777Y-19674293D02*
X7893872Y-19674293D01*
X7893872Y-19674293D02*
X7912920Y-19664770D01*
X7912920Y-19664770D02*
X7922444Y-19655246D01*
X7922444Y-19655246D02*
X7931967Y-19636198D01*
X8103396Y-19617150D02*
X8103396Y-19750484D01*
X8055777Y-19540960D02*
X8008158Y-19683817D01*
X8008158Y-19683817D02*
X8131967Y-19683817D01*
X8198634Y-19550484D02*
X8198634Y-19588579D01*
X8274825Y-19550484D02*
X8274825Y-19588579D01*
X8570063Y-19826674D02*
X8560539Y-19817150D01*
X8560539Y-19817150D02*
X8541491Y-19788579D01*
X8541491Y-19788579D02*
X8531968Y-19769531D01*
X8531968Y-19769531D02*
X8522444Y-19740960D01*
X8522444Y-19740960D02*
X8512920Y-19693341D01*
X8512920Y-19693341D02*
X8512920Y-19655246D01*
X8512920Y-19655246D02*
X8522444Y-19607627D01*
X8522444Y-19607627D02*
X8531968Y-19579055D01*
X8531968Y-19579055D02*
X8541491Y-19560008D01*
X8541491Y-19560008D02*
X8560539Y-19531436D01*
X8560539Y-19531436D02*
X8570063Y-19521912D01*
X8731968Y-19617150D02*
X8731968Y-19750484D01*
X8684349Y-19540960D02*
X8636730Y-19683817D01*
X8636730Y-19683817D02*
X8760539Y-19683817D01*
X8874825Y-19550484D02*
X8893872Y-19550484D01*
X8893872Y-19550484D02*
X8912920Y-19560008D01*
X8912920Y-19560008D02*
X8922444Y-19569531D01*
X8922444Y-19569531D02*
X8931968Y-19588579D01*
X8931968Y-19588579D02*
X8941491Y-19626674D01*
X8941491Y-19626674D02*
X8941491Y-19674293D01*
X8941491Y-19674293D02*
X8931968Y-19712389D01*
X8931968Y-19712389D02*
X8922444Y-19731436D01*
X8922444Y-19731436D02*
X8912920Y-19740960D01*
X8912920Y-19740960D02*
X8893872Y-19750484D01*
X8893872Y-19750484D02*
X8874825Y-19750484D01*
X8874825Y-19750484D02*
X8855777Y-19740960D01*
X8855777Y-19740960D02*
X8846253Y-19731436D01*
X8846253Y-19731436D02*
X8836730Y-19712389D01*
X8836730Y-19712389D02*
X8827206Y-19674293D01*
X8827206Y-19674293D02*
X8827206Y-19626674D01*
X8827206Y-19626674D02*
X8836730Y-19588579D01*
X8836730Y-19588579D02*
X8846253Y-19569531D01*
X8846253Y-19569531D02*
X8855777Y-19560008D01*
X8855777Y-19560008D02*
X8874825Y-19550484D01*
X9179587Y-19750484D02*
X9179587Y-19550484D01*
X9265301Y-19750484D02*
X9265301Y-19645722D01*
X9265301Y-19645722D02*
X9255777Y-19626674D01*
X9255777Y-19626674D02*
X9236730Y-19617150D01*
X9236730Y-19617150D02*
X9208158Y-19617150D01*
X9208158Y-19617150D02*
X9189111Y-19626674D01*
X9189111Y-19626674D02*
X9179587Y-19636198D01*
X9389111Y-19750484D02*
X9370063Y-19740960D01*
X9370063Y-19740960D02*
X9360539Y-19731436D01*
X9360539Y-19731436D02*
X9351015Y-19712389D01*
X9351015Y-19712389D02*
X9351015Y-19655246D01*
X9351015Y-19655246D02*
X9360539Y-19636198D01*
X9360539Y-19636198D02*
X9370063Y-19626674D01*
X9370063Y-19626674D02*
X9389111Y-19617150D01*
X9389111Y-19617150D02*
X9417682Y-19617150D01*
X9417682Y-19617150D02*
X9436730Y-19626674D01*
X9436730Y-19626674D02*
X9446253Y-19636198D01*
X9446253Y-19636198D02*
X9455777Y-19655246D01*
X9455777Y-19655246D02*
X9455777Y-19712389D01*
X9455777Y-19712389D02*
X9446253Y-19731436D01*
X9446253Y-19731436D02*
X9436730Y-19740960D01*
X9436730Y-19740960D02*
X9417682Y-19750484D01*
X9417682Y-19750484D02*
X9389111Y-19750484D01*
X9570063Y-19750484D02*
X9551015Y-19740960D01*
X9551015Y-19740960D02*
X9541492Y-19721912D01*
X9541492Y-19721912D02*
X9541492Y-19550484D01*
X9722444Y-19740960D02*
X9703396Y-19750484D01*
X9703396Y-19750484D02*
X9665301Y-19750484D01*
X9665301Y-19750484D02*
X9646253Y-19740960D01*
X9646253Y-19740960D02*
X9636730Y-19721912D01*
X9636730Y-19721912D02*
X9636730Y-19645722D01*
X9636730Y-19645722D02*
X9646253Y-19626674D01*
X9646253Y-19626674D02*
X9665301Y-19617150D01*
X9665301Y-19617150D02*
X9703396Y-19617150D01*
X9703396Y-19617150D02*
X9722444Y-19626674D01*
X9722444Y-19626674D02*
X9731968Y-19645722D01*
X9731968Y-19645722D02*
X9731968Y-19664770D01*
X9731968Y-19664770D02*
X9636730Y-19683817D01*
X9808158Y-19740960D02*
X9827206Y-19750484D01*
X9827206Y-19750484D02*
X9865301Y-19750484D01*
X9865301Y-19750484D02*
X9884349Y-19740960D01*
X9884349Y-19740960D02*
X9893873Y-19721912D01*
X9893873Y-19721912D02*
X9893873Y-19712389D01*
X9893873Y-19712389D02*
X9884349Y-19693341D01*
X9884349Y-19693341D02*
X9865301Y-19683817D01*
X9865301Y-19683817D02*
X9836730Y-19683817D01*
X9836730Y-19683817D02*
X9817682Y-19674293D01*
X9817682Y-19674293D02*
X9808158Y-19655246D01*
X9808158Y-19655246D02*
X9808158Y-19645722D01*
X9808158Y-19645722D02*
X9817682Y-19626674D01*
X9817682Y-19626674D02*
X9836730Y-19617150D01*
X9836730Y-19617150D02*
X9865301Y-19617150D01*
X9865301Y-19617150D02*
X9884349Y-19626674D01*
X9960539Y-19826674D02*
X9970063Y-19817150D01*
X9970063Y-19817150D02*
X9989111Y-19788579D01*
X9989111Y-19788579D02*
X9998634Y-19769531D01*
X9998634Y-19769531D02*
X10008158Y-19740960D01*
X10008158Y-19740960D02*
X10017682Y-19693341D01*
X10017682Y-19693341D02*
X10017682Y-19655246D01*
X10017682Y-19655246D02*
X10008158Y-19607627D01*
X10008158Y-19607627D02*
X9998634Y-19579055D01*
X9998634Y-19579055D02*
X9989111Y-19560008D01*
X9989111Y-19560008D02*
X9970063Y-19531436D01*
X9970063Y-19531436D02*
X9960539Y-19521912D01*
D14*
X4978891Y-19961891D02*
X4978891Y-19884109D01*
X4901109Y-19884109D01*
X4901109Y-19961891D01*
X4978891Y-19961891D01*
D11*
X5360539Y-20014484D02*
X5246253Y-20014484D01*
X5303396Y-20014484D02*
X5303396Y-19814484D01*
X5303396Y-19814484D02*
X5284348Y-19843055D01*
X5284348Y-19843055D02*
X5265301Y-19862103D01*
X5265301Y-19862103D02*
X5246253Y-19871627D01*
X5446253Y-19995436D02*
X5455777Y-20004960D01*
X5455777Y-20004960D02*
X5446253Y-20014484D01*
X5446253Y-20014484D02*
X5436729Y-20004960D01*
X5436729Y-20004960D02*
X5446253Y-19995436D01*
X5446253Y-19995436D02*
X5446253Y-20014484D01*
X5646253Y-20014484D02*
X5531967Y-20014484D01*
X5589110Y-20014484D02*
X5589110Y-19814484D01*
X5589110Y-19814484D02*
X5570063Y-19843055D01*
X5570063Y-19843055D02*
X5551015Y-19862103D01*
X5551015Y-19862103D02*
X5531967Y-19871627D01*
X5770062Y-19814484D02*
X5789110Y-19814484D01*
X5789110Y-19814484D02*
X5808158Y-19824008D01*
X5808158Y-19824008D02*
X5817682Y-19833531D01*
X5817682Y-19833531D02*
X5827205Y-19852579D01*
X5827205Y-19852579D02*
X5836729Y-19890674D01*
X5836729Y-19890674D02*
X5836729Y-19938293D01*
X5836729Y-19938293D02*
X5827205Y-19976389D01*
X5827205Y-19976389D02*
X5817682Y-19995436D01*
X5817682Y-19995436D02*
X5808158Y-20004960D01*
X5808158Y-20004960D02*
X5789110Y-20014484D01*
X5789110Y-20014484D02*
X5770062Y-20014484D01*
X5770062Y-20014484D02*
X5751015Y-20004960D01*
X5751015Y-20004960D02*
X5741491Y-19995436D01*
X5741491Y-19995436D02*
X5731967Y-19976389D01*
X5731967Y-19976389D02*
X5722443Y-19938293D01*
X5722443Y-19938293D02*
X5722443Y-19890674D01*
X5722443Y-19890674D02*
X5731967Y-19852579D01*
X5731967Y-19852579D02*
X5741491Y-19833531D01*
X5741491Y-19833531D02*
X5751015Y-19824008D01*
X5751015Y-19824008D02*
X5770062Y-19814484D01*
X5960539Y-19814484D02*
X5979586Y-19814484D01*
X5979586Y-19814484D02*
X5998634Y-19824008D01*
X5998634Y-19824008D02*
X6008158Y-19833531D01*
X6008158Y-19833531D02*
X6017682Y-19852579D01*
X6017682Y-19852579D02*
X6027205Y-19890674D01*
X6027205Y-19890674D02*
X6027205Y-19938293D01*
X6027205Y-19938293D02*
X6017682Y-19976389D01*
X6017682Y-19976389D02*
X6008158Y-19995436D01*
X6008158Y-19995436D02*
X5998634Y-20004960D01*
X5998634Y-20004960D02*
X5979586Y-20014484D01*
X5979586Y-20014484D02*
X5960539Y-20014484D01*
X5960539Y-20014484D02*
X5941491Y-20004960D01*
X5941491Y-20004960D02*
X5931967Y-19995436D01*
X5931967Y-19995436D02*
X5922443Y-19976389D01*
X5922443Y-19976389D02*
X5912920Y-19938293D01*
X5912920Y-19938293D02*
X5912920Y-19890674D01*
X5912920Y-19890674D02*
X5922443Y-19852579D01*
X5922443Y-19852579D02*
X5931967Y-19833531D01*
X5931967Y-19833531D02*
X5941491Y-19824008D01*
X5941491Y-19824008D02*
X5960539Y-19814484D01*
X6112920Y-20014484D02*
X6112920Y-19881150D01*
X6112920Y-19900198D02*
X6122443Y-19890674D01*
X6122443Y-19890674D02*
X6141491Y-19881150D01*
X6141491Y-19881150D02*
X6170063Y-19881150D01*
X6170063Y-19881150D02*
X6189110Y-19890674D01*
X6189110Y-19890674D02*
X6198634Y-19909722D01*
X6198634Y-19909722D02*
X6198634Y-20014484D01*
X6198634Y-19909722D02*
X6208158Y-19890674D01*
X6208158Y-19890674D02*
X6227205Y-19881150D01*
X6227205Y-19881150D02*
X6255777Y-19881150D01*
X6255777Y-19881150D02*
X6274824Y-19890674D01*
X6274824Y-19890674D02*
X6284348Y-19909722D01*
X6284348Y-19909722D02*
X6284348Y-20014484D01*
X6379586Y-20014484D02*
X6379586Y-19881150D01*
X6379586Y-19900198D02*
X6389110Y-19890674D01*
X6389110Y-19890674D02*
X6408158Y-19881150D01*
X6408158Y-19881150D02*
X6436729Y-19881150D01*
X6436729Y-19881150D02*
X6455777Y-19890674D01*
X6455777Y-19890674D02*
X6465301Y-19909722D01*
X6465301Y-19909722D02*
X6465301Y-20014484D01*
X6465301Y-19909722D02*
X6474824Y-19890674D01*
X6474824Y-19890674D02*
X6493872Y-19881150D01*
X6493872Y-19881150D02*
X6522443Y-19881150D01*
X6522443Y-19881150D02*
X6541491Y-19890674D01*
X6541491Y-19890674D02*
X6551015Y-19909722D01*
X6551015Y-19909722D02*
X6551015Y-20014484D01*
X6941491Y-19804960D02*
X6770063Y-20062103D01*
X7198634Y-19814484D02*
X7217682Y-19814484D01*
X7217682Y-19814484D02*
X7236729Y-19824008D01*
X7236729Y-19824008D02*
X7246253Y-19833531D01*
X7246253Y-19833531D02*
X7255777Y-19852579D01*
X7255777Y-19852579D02*
X7265301Y-19890674D01*
X7265301Y-19890674D02*
X7265301Y-19938293D01*
X7265301Y-19938293D02*
X7255777Y-19976389D01*
X7255777Y-19976389D02*
X7246253Y-19995436D01*
X7246253Y-19995436D02*
X7236729Y-20004960D01*
X7236729Y-20004960D02*
X7217682Y-20014484D01*
X7217682Y-20014484D02*
X7198634Y-20014484D01*
X7198634Y-20014484D02*
X7179586Y-20004960D01*
X7179586Y-20004960D02*
X7170063Y-19995436D01*
X7170063Y-19995436D02*
X7160539Y-19976389D01*
X7160539Y-19976389D02*
X7151015Y-19938293D01*
X7151015Y-19938293D02*
X7151015Y-19890674D01*
X7151015Y-19890674D02*
X7160539Y-19852579D01*
X7160539Y-19852579D02*
X7170063Y-19833531D01*
X7170063Y-19833531D02*
X7179586Y-19824008D01*
X7179586Y-19824008D02*
X7198634Y-19814484D01*
X7351015Y-19995436D02*
X7360539Y-20004960D01*
X7360539Y-20004960D02*
X7351015Y-20014484D01*
X7351015Y-20014484D02*
X7341491Y-20004960D01*
X7341491Y-20004960D02*
X7351015Y-19995436D01*
X7351015Y-19995436D02*
X7351015Y-20014484D01*
X7484348Y-19814484D02*
X7503396Y-19814484D01*
X7503396Y-19814484D02*
X7522444Y-19824008D01*
X7522444Y-19824008D02*
X7531967Y-19833531D01*
X7531967Y-19833531D02*
X7541491Y-19852579D01*
X7541491Y-19852579D02*
X7551015Y-19890674D01*
X7551015Y-19890674D02*
X7551015Y-19938293D01*
X7551015Y-19938293D02*
X7541491Y-19976389D01*
X7541491Y-19976389D02*
X7531967Y-19995436D01*
X7531967Y-19995436D02*
X7522444Y-20004960D01*
X7522444Y-20004960D02*
X7503396Y-20014484D01*
X7503396Y-20014484D02*
X7484348Y-20014484D01*
X7484348Y-20014484D02*
X7465301Y-20004960D01*
X7465301Y-20004960D02*
X7455777Y-19995436D01*
X7455777Y-19995436D02*
X7446253Y-19976389D01*
X7446253Y-19976389D02*
X7436729Y-19938293D01*
X7436729Y-19938293D02*
X7436729Y-19890674D01*
X7436729Y-19890674D02*
X7446253Y-19852579D01*
X7446253Y-19852579D02*
X7455777Y-19833531D01*
X7455777Y-19833531D02*
X7465301Y-19824008D01*
X7465301Y-19824008D02*
X7484348Y-19814484D01*
X7722444Y-19881150D02*
X7722444Y-20014484D01*
X7674825Y-19804960D02*
X7627206Y-19947817D01*
X7627206Y-19947817D02*
X7751015Y-19947817D01*
X7808158Y-19814484D02*
X7931967Y-19814484D01*
X7931967Y-19814484D02*
X7865301Y-19890674D01*
X7865301Y-19890674D02*
X7893872Y-19890674D01*
X7893872Y-19890674D02*
X7912920Y-19900198D01*
X7912920Y-19900198D02*
X7922444Y-19909722D01*
X7922444Y-19909722D02*
X7931967Y-19928770D01*
X7931967Y-19928770D02*
X7931967Y-19976389D01*
X7931967Y-19976389D02*
X7922444Y-19995436D01*
X7922444Y-19995436D02*
X7912920Y-20004960D01*
X7912920Y-20004960D02*
X7893872Y-20014484D01*
X7893872Y-20014484D02*
X7836729Y-20014484D01*
X7836729Y-20014484D02*
X7817682Y-20004960D01*
X7817682Y-20004960D02*
X7808158Y-19995436D01*
X7998634Y-19814484D02*
X8122444Y-19814484D01*
X8122444Y-19814484D02*
X8055777Y-19890674D01*
X8055777Y-19890674D02*
X8084348Y-19890674D01*
X8084348Y-19890674D02*
X8103396Y-19900198D01*
X8103396Y-19900198D02*
X8112920Y-19909722D01*
X8112920Y-19909722D02*
X8122444Y-19928770D01*
X8122444Y-19928770D02*
X8122444Y-19976389D01*
X8122444Y-19976389D02*
X8112920Y-19995436D01*
X8112920Y-19995436D02*
X8103396Y-20004960D01*
X8103396Y-20004960D02*
X8084348Y-20014484D01*
X8084348Y-20014484D02*
X8027206Y-20014484D01*
X8027206Y-20014484D02*
X8008158Y-20004960D01*
X8008158Y-20004960D02*
X7998634Y-19995436D01*
X8198634Y-19814484D02*
X8198634Y-19852579D01*
X8274825Y-19814484D02*
X8274825Y-19852579D01*
X8570063Y-20090674D02*
X8560539Y-20081150D01*
X8560539Y-20081150D02*
X8541491Y-20052579D01*
X8541491Y-20052579D02*
X8531968Y-20033531D01*
X8531968Y-20033531D02*
X8522444Y-20004960D01*
X8522444Y-20004960D02*
X8512920Y-19957341D01*
X8512920Y-19957341D02*
X8512920Y-19919246D01*
X8512920Y-19919246D02*
X8522444Y-19871627D01*
X8522444Y-19871627D02*
X8531968Y-19843055D01*
X8531968Y-19843055D02*
X8541491Y-19824008D01*
X8541491Y-19824008D02*
X8560539Y-19795436D01*
X8560539Y-19795436D02*
X8570063Y-19785912D01*
X8731968Y-19881150D02*
X8731968Y-20014484D01*
X8684349Y-19804960D02*
X8636730Y-19947817D01*
X8636730Y-19947817D02*
X8760539Y-19947817D01*
X8989111Y-20014484D02*
X8989111Y-19814484D01*
X9074825Y-20014484D02*
X9074825Y-19909722D01*
X9074825Y-19909722D02*
X9065301Y-19890674D01*
X9065301Y-19890674D02*
X9046253Y-19881150D01*
X9046253Y-19881150D02*
X9017682Y-19881150D01*
X9017682Y-19881150D02*
X8998634Y-19890674D01*
X8998634Y-19890674D02*
X8989111Y-19900198D01*
X9198634Y-20014484D02*
X9179587Y-20004960D01*
X9179587Y-20004960D02*
X9170063Y-19995436D01*
X9170063Y-19995436D02*
X9160539Y-19976389D01*
X9160539Y-19976389D02*
X9160539Y-19919246D01*
X9160539Y-19919246D02*
X9170063Y-19900198D01*
X9170063Y-19900198D02*
X9179587Y-19890674D01*
X9179587Y-19890674D02*
X9198634Y-19881150D01*
X9198634Y-19881150D02*
X9227206Y-19881150D01*
X9227206Y-19881150D02*
X9246253Y-19890674D01*
X9246253Y-19890674D02*
X9255777Y-19900198D01*
X9255777Y-19900198D02*
X9265301Y-19919246D01*
X9265301Y-19919246D02*
X9265301Y-19976389D01*
X9265301Y-19976389D02*
X9255777Y-19995436D01*
X9255777Y-19995436D02*
X9246253Y-20004960D01*
X9246253Y-20004960D02*
X9227206Y-20014484D01*
X9227206Y-20014484D02*
X9198634Y-20014484D01*
X9379587Y-20014484D02*
X9360539Y-20004960D01*
X9360539Y-20004960D02*
X9351015Y-19985912D01*
X9351015Y-19985912D02*
X9351015Y-19814484D01*
X9531968Y-20004960D02*
X9512920Y-20014484D01*
X9512920Y-20014484D02*
X9474825Y-20014484D01*
X9474825Y-20014484D02*
X9455777Y-20004960D01*
X9455777Y-20004960D02*
X9446253Y-19985912D01*
X9446253Y-19985912D02*
X9446253Y-19909722D01*
X9446253Y-19909722D02*
X9455777Y-19890674D01*
X9455777Y-19890674D02*
X9474825Y-19881150D01*
X9474825Y-19881150D02*
X9512920Y-19881150D01*
X9512920Y-19881150D02*
X9531968Y-19890674D01*
X9531968Y-19890674D02*
X9541492Y-19909722D01*
X9541492Y-19909722D02*
X9541492Y-19928770D01*
X9541492Y-19928770D02*
X9446253Y-19947817D01*
X9617682Y-20004960D02*
X9636730Y-20014484D01*
X9636730Y-20014484D02*
X9674825Y-20014484D01*
X9674825Y-20014484D02*
X9693873Y-20004960D01*
X9693873Y-20004960D02*
X9703396Y-19985912D01*
X9703396Y-19985912D02*
X9703396Y-19976389D01*
X9703396Y-19976389D02*
X9693873Y-19957341D01*
X9693873Y-19957341D02*
X9674825Y-19947817D01*
X9674825Y-19947817D02*
X9646253Y-19947817D01*
X9646253Y-19947817D02*
X9627206Y-19938293D01*
X9627206Y-19938293D02*
X9617682Y-19919246D01*
X9617682Y-19919246D02*
X9617682Y-19909722D01*
X9617682Y-19909722D02*
X9627206Y-19890674D01*
X9627206Y-19890674D02*
X9646253Y-19881150D01*
X9646253Y-19881150D02*
X9674825Y-19881150D01*
X9674825Y-19881150D02*
X9693873Y-19890674D01*
X9770063Y-20090674D02*
X9779587Y-20081150D01*
X9779587Y-20081150D02*
X9798634Y-20052579D01*
X9798634Y-20052579D02*
X9808158Y-20033531D01*
X9808158Y-20033531D02*
X9817682Y-20004960D01*
X9817682Y-20004960D02*
X9827206Y-19957341D01*
X9827206Y-19957341D02*
X9827206Y-19919246D01*
X9827206Y-19919246D02*
X9817682Y-19871627D01*
X9817682Y-19871627D02*
X9808158Y-19843055D01*
X9808158Y-19843055D02*
X9798634Y-19824008D01*
X9798634Y-19824008D02*
X9779587Y-19795436D01*
X9779587Y-19795436D02*
X9770063Y-19785912D01*
M02*
